<svg id="Layer_1" data-name="Layer 1" xmlns="http://www.w3.org/2000/svg" viewBox="0 0 358 351.03"><defs><style>.cls-1{fill:#4d6051;}</style></defs><path class="cls-1" d="M358,175.52c0,13.46-7.44,25.91-10.3,38.51-3,13-1.73,27.43-7.39,39.17-5.76,11.93-17.86,19.93-26.05,30.18s-13.35,23.87-23.65,32.09-24.61,10.2-36.54,15.95c-11.73,5.66-22.22,15.69-35.23,18.65-12.6,2.86-26.38-1.55-39.84-1.55s-27.24,4.41-39.84,1.55c-13-3-23.5-13-35.24-18.65-11.93-5.75-26.28-7.77-36.53-15.95S52,293.68,43.74,283.38s-20.29-18.25-26-30.18C12,241.46,13.26,227,10.3,214,7.44,201.43,0,189,0,175.52S7.44,149.6,10.3,137c3-13,1.73-27.44,7.39-39.18C23.45,85.9,35.55,77.9,43.74,67.65S57.09,43.78,67.39,35.56s24.61-10.19,36.54-16C115.66,14,126.15,3.92,139.16,1,151.76-1.9,165.54,2.52,179,2.52S206.24-1.9,218.84,1c13,3,23.5,13,35.24,18.64,11.93,5.76,26.28,7.77,36.53,16S306,57.35,314.26,67.65s20.29,18.25,26.05,30.18C346,109.57,344.74,124,347.7,137,350.56,149.6,358,162.05,358,175.52Z"/></svg>