<svg id="Layer_1" data-name="Layer 1" xmlns="http://www.w3.org/2000/svg" viewBox="0 0 358 351.03"><defs><style>.cls-1{fill:#95a799;}</style></defs><path class="cls-1" d="M140.89,281.87c.63.3.82.71.57,1.24l-.07.15a3.49,3.49,0,0,1-1.48,1.17,3.82,3.82,0,0,0-1.74,1.7l-8.28,17.76a3.81,3.81,0,0,0-.18,2.42,3.56,3.56,0,0,1,.06,1.89l-.07.16c-.25.53-.69.64-1.32.35l-18.22-8.49a1.48,1.48,0,0,1-.84-.76,2,2,0,0,1,0-1.18l1.46-5.48a1.07,1.07,0,0,1,.62-.75,1.18,1.18,0,0,1,1,.07l.23.1a2.6,2.6,0,0,1,1.25,1.46,10,10,0,0,1,.65,2.21,8.2,8.2,0,0,0,.76,2.27,3.3,3.3,0,0,0,1.52,1.58l2.57,1.2a1.89,1.89,0,0,0,2.81-1.09l3.66-7.86-3.55-1.66a2,2,0,0,0-1.83.17c-.68.35-1.33.72-1.94,1.09s-1,.5-1.36.36l-.37-.18c-.53-.24-.65-.68-.36-1.31l3.44-7.37c.29-.63.7-.83,1.23-.58l.38.18c.3.14.51.54.63,1.21s.27,1.36.46,2.08a2,2,0,0,0,1.07,1.44l3.56,1.66,3.08-6.62a3.52,3.52,0,0,0,.09-2.46,3.39,3.39,0,0,1-.16-1.94l.07-.15c.25-.53.69-.65,1.32-.35Z"/><path class="cls-1" d="M114.52,268.57a6.08,6.08,0,0,1,5.87,3.82,4.49,4.49,0,0,1-3.53,5.42A6.13,6.13,0,0,1,111,274a4.48,4.48,0,0,1,3.53-5.41Z"/><path class="cls-1" d="M110.6,265.4c.51.47.56.92.17,1.35l-.12.12a3.56,3.56,0,0,1-1.77.66,3.78,3.78,0,0,0-2.17,1.09L93.4,283a3.79,3.79,0,0,0-.92,2.25,3.43,3.43,0,0,1-.52,1.82l-.11.12c-.4.43-.85.41-1.36-.06l-14.26-13.2a1.54,1.54,0,0,1-.59-1,1.86,1.86,0,0,1,.39-1.09l3.06-4.78a1.08,1.08,0,0,1,.82-.52,1.21,1.21,0,0,1,.91.36l.19.17a2.64,2.64,0,0,1,.74,1.77,10.45,10.45,0,0,1,0,2.31,8,8,0,0,0,0,2.39,3.26,3.26,0,0,0,1,2l1.72,1.58a1.87,1.87,0,0,0,3-.17l5.15-5.57L90,269a2.11,2.11,0,0,0-1.45-.58,3.79,3.79,0,0,0-1.53.27,7.67,7.67,0,0,1-1.37.41,1.12,1.12,0,0,1-1-.16l-.31-.28c-.43-.4-.4-.85.07-1.36l5.52-6c.47-.51.92-.57,1.35-.17l.31.28a1.16,1.16,0,0,1,.26.95,6.43,6.43,0,0,1-.26,1.35,3.54,3.54,0,0,0-.11,1.5,2.2,2.2,0,0,0,.72,1.37l2.6,2.41,4.65-5a4.25,4.25,0,0,0,1.11-2.15,2.31,2.31,0,0,0-.87-2.17l-2.2-2a2.9,2.9,0,0,0-2-.72,7.54,7.54,0,0,0-2.34.36,8,8,0,0,1-2.29.41,2.5,2.5,0,0,1-1.85-.57l-.31-.29a.91.91,0,0,1-.3-.87,1.38,1.38,0,0,1,.5-.82l4.59-3.6a2,2,0,0,1,1.1-.51,1.5,1.5,0,0,1,1,.49Z"/><path class="cls-1" d="M87.34,241.79a6.13,6.13,0,0,1,4.27,5.56,4.5,4.5,0,0,1-5.13,3.94,6.13,6.13,0,0,1-4.27-5.56,3.89,3.89,0,0,1,1.73-3.06A3.94,3.94,0,0,1,87.34,241.79Z"/><path class="cls-1" d="M84.68,237.49c.33.61.23,1.06-.28,1.33l-.15.08a3.6,3.6,0,0,1-1.89,0,3.84,3.84,0,0,0-2.41.31L62.6,248.35A3.83,3.83,0,0,0,61,250.17a3.5,3.5,0,0,1-1.1,1.54l-.15.08c-.51.27-.93.1-1.26-.52l-9-17.19a1.53,1.53,0,0,1-.22-1.11,1.87,1.87,0,0,1,.72-.9l4.48-3.49a1.07,1.07,0,0,1,1-.21,1.18,1.18,0,0,1,.74.64l.12.23a2.6,2.6,0,0,1,.11,1.91,9.84,9.84,0,0,1-.82,2.16,8.13,8.13,0,0,0-.77,2.26,3.34,3.34,0,0,0,.25,2.18l1.09,2.06a1.88,1.88,0,0,0,2.89.84l6.72-3.53L64,234a2.1,2.1,0,0,0-1.18-1,3.85,3.85,0,0,0-1.53-.26,7.39,7.39,0,0,1-1.42-.07,1.1,1.1,0,0,1-.89-.48l-.2-.37c-.27-.51-.1-.93.52-1.26l7.2-3.78c.61-.33,1-.23,1.33.29l.19.37a1.12,1.12,0,0,1-.07,1,6.38,6.38,0,0,1-.7,1.19,3.48,3.48,0,0,0-.59,1.37,2.16,2.16,0,0,0,.22,1.53l1.65,3.14,6.05-3.18a4.23,4.23,0,0,0,1.76-1.66,2.32,2.32,0,0,0-.09-2.33l-1.4-2.66a2.9,2.9,0,0,0-1.65-1.35,7.11,7.11,0,0,0-2.33-.44,8.5,8.5,0,0,1-2.29-.37,2.51,2.51,0,0,1-1.56-1.17l-.19-.36a.89.89,0,0,1,0-.93,1.34,1.34,0,0,1,.74-.6l5.52-1.87a2.07,2.07,0,0,1,1.21-.12,1.49,1.49,0,0,1,.8.81Z"/><path class="cls-1" d="M70.66,207.53a6.1,6.1,0,0,1,2.16,6.66,4.47,4.47,0,0,1-6.15,2,6.1,6.1,0,0,1-2.16-6.66,4.47,4.47,0,0,1,6.15-2Z"/><path class="cls-1" d="M69.62,202.55c.1.69-.14,1.07-.72,1.16l-.16,0a3.57,3.57,0,0,1-1.8-.6,3.75,3.75,0,0,0-2.37-.52l-19.4,2.8a3.77,3.77,0,0,0-2.12,1.18,3.56,3.56,0,0,1-1.55,1.08l-.17,0c-.58.08-.91-.22-1-.91l-1.47-10.11c-.1-.69.14-1.07.72-1.16l.16,0a3.34,3.34,0,0,1,1.81.71,3.58,3.58,0,0,0,2.39.62l18.16-2.63a4,4,0,0,0,2-.84,1.83,1.83,0,0,0,.62-1.78l-.43-3a3.31,3.31,0,0,0-1.3-2.17,7.38,7.38,0,0,0-2.36-1.28,14.39,14.39,0,0,1-2.3-.95c-.72-.38-1.11-.8-1.18-1.26l-.09-.62a1,1,0,0,1,.2-.83,1,1,0,0,1,.78-.28l7,.12a2,2,0,0,1,1.19.31,1.53,1.53,0,0,1,.48,1Z"/><path class="cls-1" d="M66.41,170a6.1,6.1,0,0,1-.17,7,4.48,4.48,0,0,1-6.46-.15,6.12,6.12,0,0,1,.16-7,4.47,4.47,0,0,1,6.47.15Z"/><path class="cls-1" d="M66.43,165.62l-.17,0a3.54,3.54,0,0,1-1.54-1.09,3.8,3.8,0,0,0-2.13-1.18L43.2,160.47a3.8,3.8,0,0,0-2.37.51,3.57,3.57,0,0,1-1.79.6l-.17,0c-.58-.09-.82-.48-.71-1.16l1.47-10c.1-.68.44-1,1-.9l.16,0a3.45,3.45,0,0,1,1.53,1.2A3.62,3.62,0,0,0,44.45,152l19.39,2.86a3.52,3.52,0,0,0,2.39-.62,3.38,3.38,0,0,1,1.81-.7l.17,0c.57.08.81.47.71,1.16l-1.47,10Q67.3,165.76,66.43,165.62Z"/><path class="cls-1" d="M71.33,142.61a5.38,5.38,0,0,1,.13,3.67,5.44,5.44,0,0,1-2,3.08,4.48,4.48,0,0,1-6.23-1.73,6.08,6.08,0,0,1,1.88-6.75,4.48,4.48,0,0,1,6.22,1.73Z"/><path class="cls-1" d="M58.61,100.37c.31-.62.73-.79,1.25-.53l.15.07a3.38,3.38,0,0,1,1.07,1.62,3.58,3.58,0,0,0,1.6,1.88l20,10.09a1.92,1.92,0,0,1,1,2.91l-1.22,2.42a3.12,3.12,0,0,1-2.39,1.51L57.2,124.6l13.37,6.73a3.48,3.48,0,0,0,2.48.13,3.24,3.24,0,0,1,2-.13l.15.07c.53.26.63.7.32,1.32l-2.61,5.18c-.31.62-.73.8-1.25.54l-.15-.08a3.47,3.47,0,0,1-1.12-1.52,3.87,3.87,0,0,0-1.65-1.79l-17.5-8.81a3.84,3.84,0,0,0-2.42-.26,3.36,3.36,0,0,1-1.89,0l-.15-.07c-.52-.26-.63-.7-.31-1.33l3.18-6.33a3.06,3.06,0,0,1,2.4-1.5l21.21-3.37-12.4-6.25a3.56,3.56,0,0,0-2.45-.18,3.46,3.46,0,0,1-1.93.08l-.15-.08c-.53-.26-.63-.7-.32-1.32Z"/><path class="cls-1" d="M92,104.52a6.12,6.12,0,0,1-4.3,5.54,4.49,4.49,0,0,1-5.1-4,6.09,6.09,0,0,1,4.29-5.53,4.48,4.48,0,0,1,5.11,4Z"/><path class="cls-1" d="M105.16,92.61a14.4,14.4,0,0,1-11.23,4,15,15,0,0,1-10.33-5,15.45,15.45,0,0,1-3.87-7.46,14.3,14.3,0,0,1,.38-7.48,13.71,13.71,0,0,1,3.78-5.77A17,17,0,0,1,92,66.47q4.07-.78,6.36,1.75A3.79,3.79,0,0,1,99.4,71a3.63,3.63,0,0,1-1.33,2.6A5.66,5.66,0,0,1,94.51,75a10.48,10.48,0,0,1-3.75-.4A15.11,15.11,0,0,0,87.29,74a3.56,3.56,0,0,0-2.74.73,3.08,3.08,0,0,0-.88,3.13,8.86,8.86,0,0,0,2.26,4,20.75,20.75,0,0,0,9,6.12c3.29,1,5.84.73,7.68-.92a5.76,5.76,0,0,0,.85-.94l-3.27-3.62a3.38,3.38,0,0,0-2.35-.94,3.26,3.26,0,0,1-2-.52l-.11-.12a.74.74,0,0,1-.17-.69,1.3,1.3,0,0,1,.45-.74l7.36-6.6c.52-.46,1-.48,1.36,0l.12.12a3.41,3.41,0,0,1,.42,1.9,3.5,3.5,0,0,0,.81,2.33l2.93,3.25A3.7,3.7,0,0,1,110,82a5.62,5.62,0,0,1,0,2.23A14.49,14.49,0,0,1,105.16,92.61Z"/><path class="cls-1" d="M122.62,78.66a6.13,6.13,0,0,1-6,3.69,3.9,3.9,0,0,1-2.87-2,3.86,3.86,0,0,1-.53-3.47,5.39,5.39,0,0,1,2.39-2.78,5.44,5.44,0,0,1,3.56-.91,4.51,4.51,0,0,1,3.41,5.5Z"/><path class="cls-1" d="M138.26,72.42a13.3,13.3,0,0,1-7.78.76,14.43,14.43,0,0,1-6.88-3.43,17.06,17.06,0,0,1-4.49-6.46,15.08,15.08,0,0,1-.43-11.23,13,13,0,0,1,7.77-7.66,16,16,0,0,1,8.87-1.13q4.25.73,5.53,3.95a3.61,3.61,0,0,1,.05,2.88,4,4,0,0,1-2.29,2,4.81,4.81,0,0,1-2.94.24,7.22,7.22,0,0,1-2.64-1.2c-.79-.57-1.54-1.15-2.28-1.74a8.43,8.43,0,0,0-2.31-1.33,3.1,3.1,0,0,0-2.3,0,3.39,3.39,0,0,0-2,2.58,7.79,7.79,0,0,0,.63,4.67,15.78,15.78,0,0,0,6.07,7.83q3.87,2.4,7.2,1.07a9.71,9.71,0,0,0,1.25-.62,4.35,4.35,0,0,0,1-.86l.72-.83a4.42,4.42,0,0,0,.57-1c.2-.44.33-.74.41-.89a8.43,8.43,0,0,0,.34-.94c.15-.49.23-.74.25-.78a1.37,1.37,0,0,1,1.24-1,1.18,1.18,0,0,1,1.33.85,10.42,10.42,0,0,1,0,8.09Q143.6,70.26,138.26,72.42Z"/><path class="cls-1" d="M159.17,65.38A5.42,5.42,0,0,1,156,67.17a5.36,5.36,0,0,1-3.65-.37A4.47,4.47,0,0,1,151,60.48a6.1,6.1,0,0,1,6.86-1.43,3.9,3.9,0,0,1,2,2.88A4,4,0,0,1,159.17,65.38Z"/><path class="cls-1" d="M189.23,59.19a7.6,7.6,0,0,0,1.57,2.22,3,3,0,0,1,1,1.69v.17c0,.59-.33.88-1,.9l-12.13.23c-.7,0-1-.27-1.06-.85v-.17a1.33,1.33,0,0,1,.38-.88,6.38,6.38,0,0,1,.81-.83,2.37,2.37,0,0,0,.67-1,1.82,1.82,0,0,0,0-1.32l-.71-1.9-9.75.19-.63,1.93a1.79,1.79,0,0,0,0,1.31,2.4,2.4,0,0,0,.71,1,6.27,6.27,0,0,1,.85.79,1.34,1.34,0,0,1,.41.87v.17c0,.58-.33.88-1,.89l-6.8.14c-.69,0-1-.28-1.06-.86v-.17a2.84,2.84,0,0,1,1-1.68A6.38,6.38,0,0,0,164,59.68L171,40.32a2.89,2.89,0,0,0-.66-2.49,5.86,5.86,0,0,1-1-1.82v-.16c0-.59.33-.89,1-.9l6.17-.12a3.17,3.17,0,0,1,3.13,2.11Zm-19-5,7.34-.14-3.79-10.48Z"/><path class="cls-1" d="M201.53,66a6.09,6.09,0,0,1-6.9-1.2,4.48,4.48,0,0,1,1.1-6.36,6.13,6.13,0,0,1,6.91,1.19A4.49,4.49,0,0,1,201.53,66Z"/><path class="cls-1" d="M206.44,67.39c-.66-.23-.89-.63-.69-1.18l.05-.15a3.53,3.53,0,0,1,1.37-1.31,3.79,3.79,0,0,0,1.57-1.85l6.56-18.47a3.82,3.82,0,0,0,0-2.43,3.54,3.54,0,0,1-.24-1.88l0-.16c.2-.55.62-.71,1.28-.47L226,42.91c.65.23.88.62.68,1.17l0,.16c-.12.34-.61.76-1.47,1.27a3.61,3.61,0,0,0-1.67,1.82l-6.14,17.29a4,4,0,0,0-.2,2.19,1.83,1.83,0,0,0,1.28,1.38l2.83,1a3.29,3.29,0,0,0,2.53-.14A7.36,7.36,0,0,0,226,67.57a13.58,13.58,0,0,1,1.92-1.6,1.88,1.88,0,0,1,1.66-.45l.59.21a.94.94,0,0,1,.64.56,1,1,0,0,1-.11.82l-3.38,6.15a1.94,1.94,0,0,1-.83.9,1.53,1.53,0,0,1-1.11,0Z"/><path class="cls-1" d="M236.66,79.72a6.11,6.11,0,0,1-6.11-3.43,4.49,4.49,0,0,1,3.16-5.64,6.11,6.11,0,0,1,6.11,3.43,4.49,4.49,0,0,1-3.16,5.64Z"/><path class="cls-1" d="M240.82,82.67c-.54-.44-.63-.88-.26-1.34l.11-.13a3.5,3.5,0,0,1,1.72-.78,3.73,3.73,0,0,0,2.09-1.23l12.31-15.25a3.87,3.87,0,0,0,.76-2.31,3.63,3.63,0,0,1,.39-1.85l.11-.13c.37-.45.82-.46,1.36,0L267.36,66c.54.43.63.88.26,1.33l-.1.13a3.44,3.44,0,0,1-1.81.72,3.54,3.54,0,0,0-2.17,1.16L252,83.66a4,4,0,0,0-.91,2,1.81,1.81,0,0,0,.75,1.73l2.33,1.88a3.35,3.35,0,0,0,2.44.71,7.22,7.22,0,0,0,2.59-.67,13.88,13.88,0,0,1,2.34-.87,1.9,1.9,0,0,1,1.72.13l.49.39a1,1,0,0,1,.42.74,1,1,0,0,1-.38.74l-5.23,4.68a1.93,1.93,0,0,1-1.08.58,1.54,1.54,0,0,1-1-.41Z"/><path class="cls-1" d="M265.28,104.3a6.09,6.09,0,0,1-4.64-5.25,4.48,4.48,0,0,1,4.84-4.28,6.09,6.09,0,0,1,4.64,5.24,3.86,3.86,0,0,1-1.5,3.17A3.92,3.92,0,0,1,265.28,104.3Z"/><path class="cls-1" d="M268.23,108.41c-.36-.6-.3-1,.2-1.35l.14-.09a3.42,3.42,0,0,1,1.88-.16,3.81,3.81,0,0,0,2.39-.48L289.49,96A3.82,3.82,0,0,0,291,94.08a3.44,3.44,0,0,1,1-1.61l.14-.09c.5-.31.93-.17,1.3.42l10.24,16.52a1.54,1.54,0,0,1,.3,1.08,1.83,1.83,0,0,1-.66.95l-4.22,3.8a1.06,1.06,0,0,1-.93.28,1.2,1.2,0,0,1-.79-.59l-.13-.21a2.64,2.64,0,0,1-.25-1.91,10.28,10.28,0,0,1,.67-2.21,7.54,7.54,0,0,0,.6-2.31,3.23,3.23,0,0,0-.4-2.15l-1.23-2a1.88,1.88,0,0,0-2.94-.63l-6.45,4,1.87,3a2.1,2.1,0,0,0,1.24.94,3.78,3.78,0,0,0,1.54.15,6.88,6.88,0,0,1,1.43,0,1.14,1.14,0,0,1,.92.41l.22.36q.46.73-.42,1.29l-6.91,4.29c-.6.36-1,.3-1.35-.2l-.22-.35a1.13,1.13,0,0,1,0-1,5.87,5.87,0,0,1,.61-1.23,3.59,3.59,0,0,0,.5-1.41,2.27,2.27,0,0,0-.33-1.52l-1.87-3-5.81,3.6a4.17,4.17,0,0,0-1.64,1.78,2.31,2.31,0,0,0,.26,2.32l1.58,2.55a2.86,2.86,0,0,0,1.74,1.23,7.37,7.37,0,0,0,2.36.28,8.23,8.23,0,0,1,2.31.21,2.45,2.45,0,0,1,1.63,1l.22.35a.9.9,0,0,1,.06.92,1.33,1.33,0,0,1-.7.66l-5.37,2.25a2,2,0,0,1-1.2.2,1.5,1.5,0,0,1-.86-.74Z"/><path class="cls-1" d="M284.35,137.32a6.07,6.07,0,0,1-2.62-6.49,4.47,4.47,0,0,1,6-2.42,6.07,6.07,0,0,1,2.62,6.49,4.47,4.47,0,0,1-6,2.42Z"/><path class="cls-1" d="M286,142c-.13-.68.09-1.08.67-1.19l.16,0a3.5,3.5,0,0,1,1.82.53,3.77,3.77,0,0,0,2.39.42l19.26-3.63a3.78,3.78,0,0,0,2.07-1.26,3.46,3.46,0,0,1,1.51-1.15l.16,0c.57-.11.92.18,1.05.86l1.87,9.92q1.69,9-1.45,14.48a13.66,13.66,0,0,1-9.9,6.79,13.39,13.39,0,0,1-11.12-2.49q-4.81-3.67-6.22-11.17Zm5.64,12.39.23,1.23a4.88,4.88,0,0,0,2.49,3.52,8.2,8.2,0,0,0,5.52.49,24.39,24.39,0,0,0,10.47-4.48c2.88-2.21,4.09-4.51,3.65-6.88l0-.13a1.87,1.87,0,0,0-2.51-1.64l-15.86,3a5.31,5.31,0,0,0-3.29,1.71A3.74,3.74,0,0,0,291.68,154.34Z"/><path class="cls-1" d="M291.13,179.7a6.09,6.09,0,0,1,.12-7,4.48,4.48,0,0,1,6.46.11,5.44,5.44,0,0,1,1.05,3.52,5.39,5.39,0,0,1-1.17,3.48,4.47,4.47,0,0,1-6.46-.1Z"/><path class="cls-1" d="M290.65,184.84c.11-.68.46-1,1-.88l.17,0a3.57,3.57,0,0,1,1.52,1.13,3.83,3.83,0,0,0,2.1,1.22l19.32,3.28a3.88,3.88,0,0,0,2.39-.46,3.42,3.42,0,0,1,1.8-.56l.17,0c.57.1.8.49.69,1.18l-1.71,10.07c-.12.69-.46,1-1,.88l-.16,0c-.36-.06-.86-.47-1.51-1.22a3.6,3.6,0,0,0-2.08-1.33l-18.09-3.07a4,4,0,0,0-2.19.18,1.85,1.85,0,0,0-1.14,1.5l-.5,3a3.31,3.31,0,0,0,.57,2.46,7.36,7.36,0,0,0,1.85,2,13.76,13.76,0,0,1,1.91,1.61,1.93,1.93,0,0,1,.73,1.56l-.11.62a1,1,0,0,1-.44.73,1,1,0,0,1-.83,0l-6.64-2.26a2,2,0,0,1-1-.67,1.48,1.48,0,0,1-.15-1.1Z"/><path class="cls-1" d="M283.71,216.74a6.12,6.12,0,0,1,2.32-6.62,4.5,4.5,0,0,1,6.1,2.14,6.1,6.1,0,0,1-2.32,6.61,3.86,3.86,0,0,1-3.5.23A3.91,3.91,0,0,1,283.71,216.74Z"/><path class="cls-1" d="M275.29,231.68a14.49,14.49,0,0,1,8.77-6.86,14.28,14.28,0,0,1,11.59,1.6q6,3.47,7.66,9.09a14,14,0,0,1-1.65,11.37,14.33,14.33,0,0,1-9,6.85A14.9,14.9,0,0,1,280.9,252a14.35,14.35,0,0,1-5.61-20.32Zm1.78,3.91q-1.72,3,2.32,5.34a26.77,26.77,0,0,0,7.23,2.62,31.48,31.48,0,0,0,8.5.86q4-.18,5.05-1.95c1.12-2,.3-3.73-2.47-5.32a27.59,27.59,0,0,0-7.63-2.88,26.26,26.26,0,0,0-8.21-.74C279.35,233.72,277.76,234.41,277.07,235.59Z"/><path class="cls-1" d="M262,251.86a6.07,6.07,0,0,1,4.55-5.32,4.47,4.47,0,0,1,4.91,4.19,6.07,6.07,0,0,1-4.55,5.33,4.47,4.47,0,0,1-4.91-4.2Z"/><path class="cls-1" d="M260.27,292.59c-.53.45-1,.46-1.36,0l-.11-.13a2.81,2.81,0,0,1-.34-1.91,7.82,7.82,0,0,0-.33-2.75l-7.48-23a3.38,3.38,0,0,1,1-3.95,3.27,3.27,0,0,1,3.75-.38L278,270.66a8.77,8.77,0,0,0,2.58.65,3.15,3.15,0,0,1,1.94.68l.1.12c.39.44.31.89-.21,1.35l-9.46,8.18c-.52.46-1,.47-1.36,0l-.11-.12a1.63,1.63,0,0,1-.22-1.27,7.08,7.08,0,0,0,0-1.72,1.61,1.61,0,0,0-.93-1.26l-14.22-7.44,5.48,15a1.72,1.72,0,0,0,.83,1,2.45,2.45,0,0,0,1.15.27,8,8,0,0,1,1.18.06,1.37,1.37,0,0,1,.89.39l.11.12c.38.44.31.89-.22,1.35Z"/><path class="cls-1" d="M236.22,272.91a6.11,6.11,0,0,1,5.9-3.76,4.48,4.48,0,0,1,3.48,5.44,6.1,6.1,0,0,1-5.9,3.77,4.48,4.48,0,0,1-3.48-5.45Z"/><path class="cls-1" d="M231.7,275.19c.64-.27,1.07-.13,1.3.41l.06.15a3.49,3.49,0,0,1-.13,1.89,3.82,3.82,0,0,0,.09,2.43l7.58,18.07a3.79,3.79,0,0,0,1.67,1.76,3.5,3.5,0,0,1,1.44,1.23l.07.15c.22.54,0,.94-.62,1.21L225.24,310a1.56,1.56,0,0,1-1.12.14,1.87,1.87,0,0,1-.84-.81l-3.08-4.76a1.06,1.06,0,0,1-.14-1,1.21,1.21,0,0,1,.71-.69l.23-.09a2.64,2.64,0,0,1,1.93.05,9.93,9.93,0,0,1,2.07,1,7.76,7.76,0,0,0,2.19,1,3.25,3.25,0,0,0,2.19-.06l2.15-.9a1.88,1.88,0,0,0,1.08-2.81l-2.93-7-3.27,1.37a2.09,2.09,0,0,0-1.13,1.08,3.89,3.89,0,0,0-.39,1.5,6.66,6.66,0,0,1-.2,1.42,1.11,1.11,0,0,1-.55.84l-.38.16c-.54.23-.94,0-1.21-.62l-3.15-7.5c-.27-.64-.13-1.08.4-1.3l.39-.16a1.1,1.1,0,0,1,1,.16,5.56,5.56,0,0,1,1.12.79,3.49,3.49,0,0,0,1.32.71,2.24,2.24,0,0,0,1.55-.08l3.27-1.37-2.65-6.31a4.15,4.15,0,0,0-1.5-1.9,2.31,2.31,0,0,0-2.33-.11l-2.77,1.16a2.88,2.88,0,0,0-1.48,1.53,7.11,7.11,0,0,0-.65,2.28,8.07,8.07,0,0,1-.57,2.26,2.48,2.48,0,0,1-1.29,1.44l-.38.16a.89.89,0,0,1-.92-.09,1.3,1.3,0,0,1-.54-.79L212,285.06a2,2,0,0,1,0-1.21,1.46,1.46,0,0,1,.87-.73Z"/></svg>