<svg id="Layer_1" data-name="Layer 1" xmlns="http://www.w3.org/2000/svg" viewBox="0 0 442.2 296.7"><defs><style>.cls-1{fill:#95a799;}.cls-2{fill:#4d6051;}</style></defs><path class="cls-1" d="M284.18,142a6.68,6.68,0,0,1-.2-.86c-.12-1-1-1.33-1.53-2a2.79,2.79,0,0,0-2.63.31c-.9.63-1.42,1.62-2.29,2.25a1.08,1.08,0,0,0-.29.51,33.78,33.78,0,0,1-1.57,3.8c-.46.81-.79,1.7-1.3,2.46s-1,1.82-1.58,2.71-.88,1.83-2.07,2a.56.56,0,0,0-.31.19.65.65,0,0,1-.77,0,9,9,0,0,0-1.07-.45,2.42,2.42,0,0,0-2.68.39c-2.06,1.45-1.59,4.21-.25,5.56a7.71,7.71,0,0,0,.74.46,1.07,1.07,0,0,1,.35.44s-.19.19-.29.29-.16.19-.23.29c-.64.93-1.43,1.72-2.1,2.62a16.11,16.11,0,0,1-1.52,1.69,10,10,0,0,1-1.37,1.21c-.23.16-.34.16-.53,0a4,4,0,0,0-2.54-1.29,2.77,2.77,0,0,0-1.83.37,3.52,3.52,0,0,0-1.16,3.88c.21.51.21.51-.24.76a2.35,2.35,0,0,1-.4.18c-1.34.58-2.67,1.2-4,1.71a10.37,10.37,0,0,0-2,1.05c-.53.33-1,.8-1.52,1.14a6.65,6.65,0,0,0-1,.83,12.18,12.18,0,0,1-1.72,1.49c-.07,0-.13.07-.2,0s0-.14,0-.2a4.58,4.58,0,0,0,.74-1.18c.27-.72.64-1.38.94-2.08.56-1.28,1.28-2.48,1.83-3.77.66-1.52,1.5-3,2.07-4.55.23-.64.56-1.24.81-1.88.42-1.1,1.09-2.08,1.44-3.21.16-.49.18-.5.67-.29a4.88,4.88,0,0,0,2.13.41,2.22,2.22,0,0,0,1.59-.66,2.93,2.93,0,0,0,.72-2.38,2.84,2.84,0,0,0-1.7-2.38,3.7,3.7,0,0,0-.94-.4c-.15,0-.19-.12-.14-.27.31-.85.61-1.71.93-2.56.22-.6.26-.63.84-.48a3,3,0,0,0,1.93-.13,3.22,3.22,0,0,0,1.95-3.48,4.13,4.13,0,0,0-1.39-2.1c-.29-.28-.75-.29-1-.66a2.47,2.47,0,0,0,.38-1.23.84.84,0,0,1,.06-.14c.13-.47.22-.53.63-.29a3.79,3.79,0,0,0,2.34.34,2.26,2.26,0,0,0,1.64-1,3.26,3.26,0,0,0,.58-1.79,2.83,2.83,0,0,0-2.37-3.2c-.31-.06-.62-.17-.92-.26s-.22-.17-.12-.33a2.82,2.82,0,0,0,.45-1.39c0-.34.18-.36.43-.32l.35.08a3.47,3.47,0,0,0,3.17-1,3.65,3.65,0,0,0,.58-.93,2.59,2.59,0,0,0,.22-2.59.66.66,0,0,1-.09-.27,1.59,1.59,0,0,0-.59-1.05,3.27,3.27,0,0,0-2.67-1.14c-.51.06-.61-.11-.48-.61a29,29,0,0,0,.61-3.17c.19-1.27.26-2.54.43-3.81a7,7,0,0,0,.05-2.91.2.2,0,0,1,.18-.26,2.5,2.5,0,0,1,.65-.1,1.21,1.21,0,0,0,.91-.4,2.5,2.5,0,0,1,.39-.34,3.6,3.6,0,0,0,1.32-3.17,1.48,1.48,0,0,0-.19-.63c-.15-.3-.32-.6-.5-.9a3,3,0,0,0-3-1.19,4.51,4.51,0,0,0-2.69,2.43,1.65,1.65,0,0,0-.15,1.07,5.65,5.65,0,0,1-.05,2.13c0,.19-.14.37-.07.58s-.07.35-.33.37a3.58,3.58,0,0,0-2.78,1.66,3.39,3.39,0,0,0,.25,3.71,5.16,5.16,0,0,0,1.73,1.21.45.45,0,0,1,.28.51c-.07,1.11-.37,2.18-.46,3.29,0,.21-.17.27-.38.19s-.55-.2-.83-.29a2,2,0,0,0-1.71.18,3.6,3.6,0,0,0-1.89,3.08,3.56,3.56,0,0,0,3.28,3.63,1.39,1.39,0,0,1,.7.2.62.62,0,0,1,.33.86c-.59,1.72-1.12,3.46-1.54,5.22-.09.35-.27.4-.53.27a4.3,4.3,0,0,0-2.16-.24.73.73,0,0,0-.36.08,3.36,3.36,0,0,0-1.87,3.18,2.88,2.88,0,0,0,1.48,2.56,5,5,0,0,0,.94.49c.54.15.35.38.25.67-.49,1.39-1,2.78-1.52,4.15s-.18,1.29-1.71.95a4.17,4.17,0,0,0-2.19.32c-.45.13-.54.58-.83.85a2.29,2.29,0,0,0-.72,1.47,7.15,7.15,0,0,0,.06,1.31,3.14,3.14,0,0,0,1.71,2.48c.19.12.38.21.57.33s.22.19.06.33a1,1,0,0,0-.23.28c-.85,1.74-1.53,3.55-2.34,5.31-.54,1.17-1.07,2.35-1.63,3.51-.44.9-.94,1.78-1.34,2.69-.62,1.45-1.42,2.81-2.08,4.24-.41.91-.89,1.79-1.34,2.69-.05.08-.05.21-.17.2s-.2-.13-.23-.25a.93.93,0,0,1,0-.37,34.84,34.84,0,0,0,.39-4.32,1.33,1.33,0,0,1,.77-1.19,2.9,2.9,0,0,0,1.6-2.81,2.76,2.76,0,0,0-.91-2.09,3.27,3.27,0,0,0-.77-.55c-.42-.19-.74-.47-.58-1a2.16,2.16,0,0,0,0-.8c-.23-2.28-.45-4.55-.67-6.83a43.31,43.31,0,0,0-.55-4.38c-.1-.49,0-.65.43-.87a2.56,2.56,0,0,0,.92-3.76,3.47,3.47,0,0,0-2.35-1.45c-.61-.1-.62-.12-.7-.69-.05-.33-.3-.76-.12-.95s.64-.2,1-.2a3.14,3.14,0,0,0,2.46-1.38,3.5,3.5,0,0,0-1.19-5.29,3,3,0,0,0-2.89-.05,2.08,2.08,0,0,0-.91.92c-.25.55-.78.95-.69,1.66,0,.26-.23.27-.36.15a2.67,2.67,0,0,0-.91-.45,2.43,2.43,0,0,0-3,.74c-.15.16-.28.34-.44.49a2,2,0,0,0-.59,1.54,8.88,8.88,0,0,0,.14,1.24,3.44,3.44,0,0,0,4,2.5c.23-.09.45-.07.45.27a3.63,3.63,0,0,0,.29,1.21,32.17,32.17,0,0,1,1.34,5.56,3.2,3.2,0,0,0,.14.81c0,.17.05.32.08.47-.45,0-.74.4-1.13.55a2.84,2.84,0,0,0-1.67,2.18,3.29,3.29,0,0,0,.8,3,3.76,3.76,0,0,0,2.2,1.09c.54.14.54.13.57.67.06.78.09,1.56.17,2.34a2.22,2.22,0,0,1-.42,1.65,2.62,2.62,0,0,0-.42,2.11,4,4,0,0,0,.58,1.42,1.52,1.52,0,0,1,.27,1c-.19,2.13-.57,4.23-.92,6.33-.3,1.77-.78,3.49-1.2,5.23-.27,1.13-.71,2.19-1.08,3.28a16.59,16.59,0,0,1-1.06,2.5,10.11,10.11,0,0,0-.89,1.77,7.83,7.83,0,0,0-.64,2.33,1.32,1.32,0,0,1-.15.49c-.48,1.09-.95,2.2-1.35,3.33a2,2,0,0,0-.13,1.21.6.6,0,0,1-.06.57,5.35,5.35,0,0,0-.57,1.18,17,17,0,0,0-1.1,2.48c-.39,1.22-.7,2.45-1.15,3.65-.28.75-.43,1.56-.71,2.32a56,56,0,0,0-2,5.77c-.4,1.52-.69,3.07-1.08,4.59a53.36,53.36,0,0,0-1.08,5.41c-.42,2.87-1.08,5.69-1.61,8.54-.23,1.28-.5,2.55-.72,3.83-.15.82-.07,1.66-.23,2.49a15.12,15.12,0,0,0-.31,2.11c-.12,2.06-.19,4.12-.29,6.18,0,.11,0,.28-.13.27s-.17-.1-.2-.18a14.87,14.87,0,0,1-.51-1.69c-.58-2.54-1.21-5.06-2-7.55l-1.14-3.72a22.64,22.64,0,0,1-.55-2.44c-.15-.79-.35-1.58-.49-2.37-.26-1.5-.43-3-.78-4.5-.45-1.89-.88-3.78-1.24-5.69q-.48-2.57-.92-5.15c-.31-1.81-.57-3.64-.84-5.46s-.46-3.6-.67-5.4c-.15-1.34-.25-2.68-.36-4-.15-1.72-.27-3.45-.47-5.18s-.23-3.23-.34-4.85-.22-3-.32-4.48c-.07-1,0-2-.18-2.94-.25-1.86-.22-3.73-.37-5.59-.08-1,.07-2,.08-3,0-1.89,0-3.78.06-5.67,0-1.15.07-2.3.12-3.44s.05-2.55.17-3.82c.2-2.08.27-4.17.45-6.25.11-1.23.13-2.46.33-3.67.37-2.21.59-4.43,1-6.63.29-1.72.7-3.41,1.08-5.1a15.52,15.52,0,0,1,1.12-3c.29-.62.5-1.29.83-1.87.65-1.15,1.25-2.32,1.84-3.49s1.23-2.11,1.86-3.16c.39-.64.59-1.12,1.18-2,0,0,0,0,0,0a7.86,7.86,0,0,0,1-1.7c.51-1,1.15-1.88,1.73-2.82.73-1.2,1.63-2.31,2.44-3.48,1.09-1.59,2.23-3.15,3.22-4.82.33-.56.66-1.14,1-1.69.59-.91,1.2-1.8,1.78-2.7.28-.43.55-.87.8-1.33.35-.65.44-.67,1-.24a3.3,3.3,0,0,0,1.33.74,5,5,0,0,0,1.76,0,2.38,2.38,0,0,0,1.81-1.11c.15-.28.33-.55.46-.84a2.91,2.91,0,0,0-.19-2.95,3.47,3.47,0,0,0-2.23-1.64c-.23,0-.34-.22-.15-.43A9.82,9.82,0,0,0,233.6,99a33.29,33.29,0,0,0,2.17-3.57l.43-.93c.1-.23.16-.28.4-.07a3.23,3.23,0,0,0,5.07-1,3.51,3.51,0,0,0-2.13-5c-.31-.08-.3-.21-.16-.47.54-1,1.05-2,1.57-3,.12-.25.29-.26.47-.11a6.5,6.5,0,0,0,.94.69,3.12,3.12,0,0,0,3.13.22,3.76,3.76,0,0,0,1.84-1.87,3.6,3.6,0,0,0-1-3.8,2.85,2.85,0,0,0-1.43-.54c-.22,0-.54,0-.58-.24-.1-.56-.46-1.07-.16-1.7a24.18,24.18,0,0,0,1.42-3.46,2,2,0,0,1,.51-.8,5.15,5.15,0,0,0,.83-1.09c.23-.42.26-.4.67-.19a3.47,3.47,0,0,0,4.08-.79,3.6,3.6,0,0,0,.75-2.1,3.25,3.25,0,0,0-1-2.73c-.19-.19-.47-.28-.65-.47a2.13,2.13,0,0,0-1.21-.61c-.54-.12-.52-.14-.32-.7a19.62,19.62,0,0,0,.7-2.17c.26-1.07.59-2.12.88-3.19.07-.29.25-.3.42-.14a2.06,2.06,0,0,0,2.16.23A4.52,4.52,0,0,0,256.23,57a3.28,3.28,0,0,0,.13-2.85A3.76,3.76,0,0,0,252.31,52a.53.53,0,0,1-.55-.12,4.17,4.17,0,0,0-1.5-.86,2.93,2.93,0,0,0-3.8,1.08,6,6,0,0,0-.35.88,2.64,2.64,0,0,0,0,2.71c.11.2.13.39-.12.48a3.62,3.62,0,0,0-1.53,5.66,4.43,4.43,0,0,0,2,1.36c.4.1.3.19,0,.37-.12.07-.17.29-.23.45-.28.83-.55,1.67-.83,2.51-.21.64-.23.66-.89.61l-.3,0a2.37,2.37,0,0,0-2.51.72,3.38,3.38,0,0,0-1,3.21c.21,1,.45,1.95,1.53,2.38.31.12.38.31.12.61a2.06,2.06,0,0,0-.35.8,1.1,1.1,0,0,1-1.39.91,2.67,2.67,0,0,0-2.7,1.68,3.33,3.33,0,0,0,.82,4.44c.2.17.15.28,0,.49-.67,1.35-1.31,2.73-2,4.08-.46.89-.88,1.8-1.41,2.67a6.77,6.77,0,0,0-.89,1.9c-.09.41-.26.45-.65.25a5.39,5.39,0,0,0-1.76-.46,1.4,1.4,0,0,0-.73.06,4,4,0,0,0-2.42,3.69,1.53,1.53,0,0,0,0,.37,3.63,3.63,0,0,0,1.73,2.41c.22.13.41.3.2.5-.38.37-.43.94-.83,1.29-.2.18-.06.7-.48.62a2.75,2.75,0,0,1-.85-.18c-.13-.07-.29-.07-.39-.19a.52.52,0,0,0-.62-.13,7.31,7.31,0,0,0-1.44.53,3,3,0,0,0-1.17,1.17,3.68,3.68,0,0,0,.66,4.23l.15.16c.15.15.25.3.08.51s-.14.32-.24.46c-1,1.42-1.92,2.89-2.85,4.36-.76,1.2-1.47,2.43-2.32,3.57a8.69,8.69,0,0,0-1,1.36,20.13,20.13,0,0,1-1.8,2.67c-.69,1-1.42,2-2.06,3a12.86,12.86,0,0,0-.65,1.14c-.37.78-.92,1.44-1.27,2.23a12.77,12.77,0,0,1-1.35,2.35,2.63,2.63,0,0,0-.51.87,1.25,1.25,0,0,1-.47.65.23.23,0,0,1-.2,0,.12.12,0,0,1,0-.19,1.83,1.83,0,0,0,.25-.83,11.17,11.17,0,0,1,.24-1.15,5.25,5.25,0,0,0,.27-1.07,2.76,2.76,0,0,1,.2-1c.42-1,.53-2.12.9-3.16.67-1.87,1-3.85,1.59-5.74a30.5,30.5,0,0,0,1-3.3c.23-1.13.65-2.22.86-3.35.12-.66.24-1.31.39-2,.55-2.27,1.09-4.54,1.68-6.8.43-1.61.93-3.19,1.41-4.79.25-.85.53-1.69.75-2.54a3.4,3.4,0,0,1,.6-1.31,3.55,3.55,0,0,0,.76-2.63,4.49,4.49,0,0,1,.28-1.93c.27-.87.53-1.74.75-2.62a56.92,56.92,0,0,1,1.68-6.24c.27-.72.32-1.48.54-2.2s.47-1.56.7-2.33c.14-.48.18-.52.65-.34a3.54,3.54,0,0,0,2.58,0c.14,0,.33-.06.4-.16.43-.6,1.05-1,1.2-1.88a2.84,2.84,0,0,0-.68-2.84,3.42,3.42,0,0,0-2-1.17,2.42,2.42,0,0,1-.36-.1c-.15,0-.19-.12-.14-.26a16.28,16.28,0,0,0,.57-2.58,1.25,1.25,0,0,1,.35-.87,4,4,0,0,0,1-1.53c.14-.29,0-.75.27-.88a2.79,2.79,0,0,1,1,0H231a3.14,3.14,0,0,0,2.87-4.23,3.43,3.43,0,0,0-2.66-2.36c-.24-.06-.49-.07-.72-.13s-.35-.15-.29-.35c.2-.72.21-1.46.38-2.18a.87.87,0,0,1,.4-.5,3.11,3.11,0,0,0,1.45-2.18,2.72,2.72,0,0,0-.55-2.54,1.31,1.31,0,0,1-.31-1.21c.24-1.5.66-3,.75-4.48,0-.31.12-.38.47-.26.6.21,1.24.56,1.9.12a2.89,2.89,0,0,0,2.56-2.25,3.3,3.3,0,0,0-2.45-4.37,4.48,4.48,0,0,0-1.31-.16c-.21,0-.4,0-.32-.33a11.21,11.21,0,0,0,.39-2.69c0-.34.19-.36.44-.31.09,0,.18.08.27.11a3.22,3.22,0,0,0,4.3-2.48,2.9,2.9,0,0,0-.83-2.77,5.37,5.37,0,0,0-3.07-1.38c-.31-.05-.38-.14-.34-.41a56.35,56.35,0,0,0,.28-5.67c0-.4.09-.48.48-.41a2.72,2.72,0,0,0,1,.17,4,4,0,0,0,3.16-2.11,3.92,3.92,0,0,0-.4-3.43,3.49,3.49,0,0,0-1.44-.85,3.1,3.1,0,0,0-2.4-.36c-.23.09-.31-.15-.26-.32A10.13,10.13,0,0,0,235,9.3,6.85,6.85,0,0,0,235,7.61c0-.22,0-.44,0-.66a1.61,1.61,0,0,0,0-.22V6.35a2.33,2.33,0,0,1,.69.08,2.65,2.65,0,0,0,2.92-.79,2.06,2.06,0,0,1,.45-.38,1.46,1.46,0,0,0,.61-.81,3.83,3.83,0,0,0,.06-3.06A2,2,0,0,0,238.2.23c-.63-.08-1.26-.09-1.88-.2a1.09,1.09,0,0,0-.77.1,2.37,2.37,0,0,1-1.28.44c-.33,0-.52.27-.57.65-.06.61-.06.6-.63.42-.11,0-.24,0-.36-.06a17.26,17.26,0,0,0-2-.4,1.46,1.46,0,0,0-1.25.27c-.65.51-1.48.82-1.94,1.55a3.44,3.44,0,0,0-.3,1.74l0,0a1,1,0,0,1,0,.17.56.56,0,0,0,.21.53,2.11,2.11,0,0,1,.48.63,3.42,3.42,0,0,0,.91.91,3.8,3.8,0,0,0,2.81.82c.17,0,.26,0,.25.23-.09,1.28-.14,2.55-.22,3.82a4.74,4.74,0,0,1-.28,2.13c-.25.44-.18.52-.64.29a1.9,1.9,0,0,0-1.44-.08,6.44,6.44,0,0,0-1.78,1.25.42.42,0,0,0-.16.32,2.31,2.31,0,0,1-.21.78,4,4,0,0,0-.11,1.6,3.89,3.89,0,0,0,1.22,2.11l.06.05c.88.32,1.69.92,2.72.54.24-.09.41,0,.38.36-.13,1.19-.23,2.39-.35,3.59l-.72,6.67c0,.34,0,.8-.15,1s-.67,0-1-.11a1.79,1.79,0,0,0-1.47.3c-.39.3-.79.58-1.19.87a1.11,1.11,0,0,0-.42.49,5.9,5.9,0,0,0-.41,2.66c.12,1.42,1.81,2.6,2.88,2.88a3.79,3.79,0,0,0,.59,0c.16,0,.26.07.22.28-.12.62-.22,1.25-.32,1.88a16.66,16.66,0,0,0-.35,2.32.88.88,0,0,1-.62.91,4.34,4.34,0,0,0-1.47.92,3.53,3.53,0,0,0-.7,2,2.52,2.52,0,0,0,.63,2.25,4.71,4.71,0,0,0,.67.67c.29.21.51.4.24.77a.78.78,0,0,0,0,.22c-.17,1.51-.49,3-.79,4.5,0,.26,0,.59-.14.77s-.51,0-.78.06a4.33,4.33,0,0,1-.5.08c-.58,0-.84.58-1.29.8a1.53,1.53,0,0,0-.7.82c-.08.18-.13.37-.22.54a2.74,2.74,0,0,0-.25,1.9,3.54,3.54,0,0,0,2,2.51.51.51,0,0,1,.32.69c-.2.81-.39,1.63-.59,2.44-.29,1.21-.59,2.43-.88,3.64-.18.74-.36,1.48-.51,2.23s-.15.66-.76.52a2.08,2.08,0,0,0-1.37.06A3.14,3.14,0,0,0,219.24,75a3,3,0,0,0,.89,3.76,4.45,4.45,0,0,0,.66.32c.25.12.48.37.34.65a6.47,6.47,0,0,0-.42,1.55c-.33,1.28-.71,2.55-1.08,3.82,0,.12-.09.23,0,.34s.29,0,.33.17h-2.43a1,1,0,0,0-.57.12,3.55,3.55,0,0,0-1.87,2.9c0,.39,0,.78,0,1.18a2.64,2.64,0,0,0,.73,1.8,2.72,2.72,0,0,0,1,.76c.73.3.79.53.49,1.25a4.38,4.38,0,0,0-.23.54c-.31,1-.61,2.11-.94,3.16-.53,1.74-1,3.47-1.44,5.25-.2.88-.35,1.77-.57,2.65-.34,1.35-.63,2.71-1,4.06-.39,1.52-.77,3-1.16,4.55-.26,1-.69,2-.92,3.11s-.56,2.08-.86,3.11-.57,1.94-.76,2.93a14.35,14.35,0,0,0-.38,1.57.23.23,0,0,1-.11.17c-.12,0-.16-.07-.18-.18a.61.61,0,0,1,0-.14c-.13-1.5-.45-3-.7-4.43a46.22,46.22,0,0,0-1.12-4.79c-.45-1.55-.94-3.09-1.36-4.65-.25-.9-.56-1.78-.85-2.66-.38-1.16-.65-2.37-1-3.53a19.39,19.39,0,0,1-.52-2,9.53,9.53,0,0,0-.72-2.23,13.43,13.43,0,0,1-.78-1.89c-.3-.88-.51-1.79-.88-2.64-.44-1-.85-2.08-1.21-3.15-.14-.42-.31-.82-.44-1.24s-.21-.49.29-.52a2.64,2.64,0,0,0,.29,0,3.07,3.07,0,0,0,1.38-.42,3.76,3.76,0,0,0,1-1.21,3,3,0,0,0-.85-3.9,4.11,4.11,0,0,0-1.63-.85,2.31,2.31,0,0,0-1.91.16,2.92,2.92,0,0,1-.52.28c-.21.08-.41,0-.45-.22a10.79,10.79,0,0,0-.45-1.24c-.62-2.14-1.21-4.3-1.8-6.45-.06-.21-.05-.43.22-.44.77,0,1.18-.71,1.81-1a2.08,2.08,0,0,0,.82-1.43,3.38,3.38,0,0,0-1.68-3.81,6.33,6.33,0,0,0-2.13-.44c-.57-.12-.58-.07-.76-.67,0-.12-.07-.24-.09-.36-.23-1.2-.47-2.4-.67-3.62a4.86,4.86,0,0,1-.19-1.89,5.58,5.58,0,0,0,.23-2.26c0-.21.06-.32.28-.33a3.26,3.26,0,0,0,2.92-2.42,3,3,0,0,0-.33-2.47,3.74,3.74,0,0,0-1.41-1.25,4.42,4.42,0,0,0-2.4-.55c-.47,0-.46,0-.5-.51a19.12,19.12,0,0,0-.26-2.71c-.07-.31.18-.32.36-.23a3.13,3.13,0,0,0,2.07,0A3.29,3.29,0,0,0,195,47.81a3.68,3.68,0,0,0-.24-1.79,2.74,2.74,0,0,0-1.39-1.43c-.19-.1-.44-.12-.59-.27a1.4,1.4,0,0,0-1-.33c-.32,0-.64,0-1,0s-.47,0-.35-.47a22.75,22.75,0,0,0,.2-3.59c0-.16-.25-.34,0-.45s.32.08.47.16.18.17.28.23a3.43,3.43,0,0,0,2.63.62,3.15,3.15,0,0,0,2.18-1.5,3.92,3.92,0,0,0,.63-2.36,4.45,4.45,0,0,1,.08-1.09,2,2,0,0,0-.38-1.67,2.64,2.64,0,0,0-2.45-.58,1.49,1.49,0,0,1-.63.18c-.3,0-.34,0-.21-.32a3.58,3.58,0,0,0,.59-1.72,3.39,3.39,0,0,0-1.72-3,5.87,5.87,0,0,0-1.46-.45,2,2,0,0,0-2.08.44c-.28.29-.65.48-.86.86a3.61,3.61,0,0,0-.33,3.05c.1.29,0,.37-.24.47a3.26,3.26,0,0,0-1.18.55,4.35,4.35,0,0,0-1.32,2.33,3.74,3.74,0,0,0,2.08,4.18,7.94,7.94,0,0,0,1,.35c.13,0,.26.12.19.33a5.88,5.88,0,0,0-.12,2c0,.22-.07.25-.24.23a1.06,1.06,0,0,1-.35-.09,2.51,2.51,0,0,0-2.49.36,2.55,2.55,0,0,0-1,1,3.78,3.78,0,0,0-.13,3.33,3,3,0,0,0,1.24,1.48,3.52,3.52,0,0,0,1.89.62c.26,0,.55-.17.78,0s0,.55.06.83c.12,1.35.14,2.7.24,4,.08,1.13.18,2.25.35,3.37.06.39.05.54-.35.7a3.46,3.46,0,0,0-1.8,2,3.88,3.88,0,0,0,0,2.24,1.24,1.24,0,0,0,.46.81,4.76,4.76,0,0,0,2.24,1.31.51.51,0,0,1,.44.58,11.6,11.6,0,0,0,0,1.77c0,.34,0,.48-.33.59a3.39,3.39,0,0,0-2.21,2.44,3.32,3.32,0,0,0,.23,2.69,4.64,4.64,0,0,0,1.26,1.42,2.17,2.17,0,0,0,1.41.52c.32,0,.64,0,1,0s.4.06.41.36a2.72,2.72,0,0,0,.24,1.22c.18.32,0,.42-.26.44s-.64,0-1,0-.73.13-.79.59a.62.62,0,0,1-.23.37,2.29,2.29,0,0,0-.84,1.87,3.66,3.66,0,0,0,.42,2.06c.22.35.78.46.74,1,0,0,.11.08.18.11a3.73,3.73,0,0,0,1.47.39,5.43,5.43,0,0,0,1.51-.26c.4-.12.49,0,.61.36.18.59.38,1.17.58,1.75.45,1.32.94,2.63,1.36,4s.9,2.89,1.5,4.28c.07.14.06.28-.06.3-.57.07-.71.61-1.06.92-1.24,1.07-.83,3.9.71,4.47a.56.56,0,0,1,.25.14,1.92,1.92,0,0,0,1.5.47c.22,0,.44,0,.66,0a.37.37,0,0,1,.41.33,12.89,12.89,0,0,0,.53,1.47,18.62,18.62,0,0,1,.89,2.64,9.9,9.9,0,0,0,.5,2,32.76,32.76,0,0,1,1,3.16c.15.47.37.91.48,1.39.2.86.43,1.72.66,2.56.45,1.61,1,3.18,1.42,4.8.28,1.08.51,2.18.69,3.29a23,23,0,0,0,.42,2.46,8.16,8.16,0,0,1,.33,2.17c0,1.35.1,2.7.19,4,.06.9.05,1.81.18,2.71.18,1.29.32,2.58.48,3.87a5.81,5.81,0,0,1,0,.59,16.51,16.51,0,0,1-.27,2.63c-.16,1.15-.3,2.29-.43,3.44-.11.95-.22,1.9-.34,2.85-.16,1.24-.2,2.49-.31,3.74-.19,2.2-.39,4.4-.58,6.6-.07.9-.11,1.81-.18,2.71-.16,2-.34,3.92-.37,5.89,0,1.62,0,3.23-.08,4.85-.05,2.9-.2,5.79-.12,8.7,0,1.91.2,3.82.41,5.73,0,.09.06.21-.06.23s-.15-.1-.18-.2c-.28-.93-.54-1.87-.84-2.8-.67-2.08-1.52-4.08-2.29-6.12s-1.52-4-2.42-5.92c-.64-1.37-1.15-2.8-1.85-4.15-.49-1-.91-2-1.4-2.91-.72-1.37-1.47-2.71-2.21-4.07-.52-1-.95-2-1.56-2.91-.13-.21-.38-.43-.36-.62s.37-.34.57-.49a3.11,3.11,0,0,0,1.32-2.72,2.72,2.72,0,0,0-.54-1.5,2.6,2.6,0,0,0-1.45-1.25,3.48,3.48,0,0,0-2.23,0c-.58.22-.65.18-1-.38a12.62,12.62,0,0,0-1-1.63,9.68,9.68,0,0,1-1.48-2.33,2.61,2.61,0,0,0-.63-.81,3.4,3.4,0,0,1-.88-1,3.63,3.63,0,0,0-.76-1c-.25-.23-.24-.42.09-.48a3.37,3.37,0,0,0,1-.56,3,3,0,0,0,.86-4.1,3.36,3.36,0,0,0-1.78-1.44,3,3,0,0,0-3.29.49,3.8,3.8,0,0,0-.86,1.34c-.11.3-.28.38-.54.24a3.9,3.9,0,0,1-.4-.31,14.63,14.63,0,0,1-2.38-2.47,6.69,6.69,0,0,0-1.21-1.17,14.13,14.13,0,0,1-1.58-1.61,1.63,1.63,0,0,1-.32-.89c0-.15,0-.23.17-.24h.52A3,3,0,0,0,176,129.1a3,3,0,0,0-1-4.31,3.93,3.93,0,0,0-1.81-.78c-.14,0-.21-.09-.2-.24.11-1.45.22-2.89.31-4.34,0-.28.14-.38.4-.4a4.85,4.85,0,0,0,1.51-.27,2.58,2.58,0,0,0,1.59-1.63,2.89,2.89,0,0,0-.15-2.68,3.39,3.39,0,0,0-2.14-1.52c-.68-.16-.77-.29-.76-1a2.17,2.17,0,0,0,0-.36c-.05-.34.1-.43.42-.41s.6.22.93.14c2-.43,3.11-1.47,3.06-3.66a2.94,2.94,0,0,0-1-2.2,3.66,3.66,0,0,0-2.16-1c-.23,0-.29-.14-.21-.35a6.88,6.88,0,0,0,.31-2.25c0-.91.22-1.81.17-2.72,0-.25.09-.39.36-.3a7.34,7.34,0,0,0,.94.14,3.1,3.1,0,0,0,2.95-1.1,3.37,3.37,0,0,0,.83-1.69,3.16,3.16,0,0,0-.63-2.63,8.18,8.18,0,0,0-1.5-1.19.81.81,0,0,0-.48-.15,15.52,15.52,0,0,0-1.67,0c-.07,0-.15,0-.17-.07a.21.21,0,0,1,.08-.11,3.38,3.38,0,0,0,1.36-2.85c0-.2,0-.39,0-.59a2.52,2.52,0,0,0-.53-1.57,3.62,3.62,0,0,0-2.62-1.56,2.41,2.41,0,0,0-2.52.94,2.34,2.34,0,0,1-.37.45,1.83,1.83,0,0,0-.62,1.29,3.82,3.82,0,0,0,0,2,3.62,3.62,0,0,0,2.13,2.15c.25.08.4.22.28.55a6.43,6.43,0,0,0-.39,1.41c-.28,2.44-.52,4.88-.79,7.32,0,.26,0,.59-.19.76s-.4-.13-.63-.1a2.1,2.1,0,0,1-.43-.05,2.87,2.87,0,0,0-2.71.94l-.36.46a3,3,0,0,0-.62,2.94,2.79,2.79,0,0,1,.14.57c.09.84.94,1.38,1.71,1.71a15.16,15.16,0,0,0,1.73.56c.17,0,.25.1.22.29a30.39,30.39,0,0,0-.29,5.13c0,.29-.09.42-.36.44a4.34,4.34,0,0,1-.51,0,2.93,2.93,0,0,0-2.68,1.95,3.17,3.17,0,0,0,.08,2.52,1.12,1.12,0,0,0,.24.37,5.45,5.45,0,0,0,2.12,1.38c.14,0,.29.07.42.12s.23.12.2.32a23.91,23.91,0,0,0-.24,3.38c0,1.08-.1,2.15-.1,3.23,0,.36-.16.34-.4.32a.76.76,0,0,1-.26-.11c-1.51-.7-2.79-1.77-4.25-2.57-.72-.4-1.36-.94-2.12-1.3a.36.36,0,0,1-.2-.49,1.72,1.72,0,0,1,.17-.48,2.94,2.94,0,0,0,.08-2.29,2.5,2.5,0,0,0-.87-1.42,6.75,6.75,0,0,0-2.13-.92,1.22,1.22,0,0,0-.73,0,3.77,3.77,0,0,0-2,1.09c-.18.25-.38.23-.63.07a8.63,8.63,0,0,0-2-.94c-.11,0-.2-.14-.31-.19-.34-.15-.24-.31,0-.47a1.22,1.22,0,0,0,.19-.12c1-1.21,1.59-2,.92-3.64a3.47,3.47,0,0,0-5.37-1.48.38.38,0,0,1-.52.06,4,4,0,0,0-.47-.21,3,3,0,0,0-2.88.14,3.57,3.57,0,0,0-1,1,3.4,3.4,0,0,0,1.29,5c.32.18.25.28.06.47a2.47,2.47,0,0,0-.76,1.14,4.6,4.6,0,0,0,.29,3,3.47,3.47,0,0,0,4.58,1.36,2.9,2.9,0,0,0,1.28-1.29,4.84,4.84,0,0,0,.37-2c0-.26,0-.28.29-.19.65.23,1.13.74,1.76,1,.21.09.11.29,0,.45a2.81,2.81,0,0,0-.37,1,3.35,3.35,0,0,0,2.28,3.61,1.86,1.86,0,0,0,.57.11,3.12,3.12,0,0,0,2.52-1.11c.53-.54.51-.53,1.16-.08a24.33,24.33,0,0,0,2.19,1.58,4.64,4.64,0,0,1,1.21.69,4.64,4.64,0,0,0,1.54,1c1.32.58,2.52,1.39,3.79,2.06a.73.73,0,0,1,.45.76c0,.15,0,.3,0,.44a46.57,46.57,0,0,0,.13,7c0,.36-.09.46-.44.51a2.63,2.63,0,0,0-1.51.46,3.45,3.45,0,0,0-1.39,2.48,3,3,0,0,0,1.75,3.15,2.9,2.9,0,0,0,1.76.31c.26,0,.43,0,.43.34a21.65,21.65,0,0,0,.35,4.25.27.27,0,0,1-.15.35,3.47,3.47,0,0,0-.67,5.88,3.08,3.08,0,0,0,2,.68c.27,0,.56.05.46.46a.42.42,0,0,0,0,.22c.43,1.17.68,2.4,1,3.6.51,1.73,1.18,3.42,1.74,5.15.38,1.16.88,2.28,1.33,3.42a5.63,5.63,0,0,0,.84,1.87c.21.24,0,.29-.17.29a1.46,1.46,0,0,0-1,.3c-1.13,1-2,2.2-1.45,4a3,3,0,0,0,.88,1.51,3.57,3.57,0,0,0,3.77.59c.5-.21.71-.13.87.38.43,1.46,1.09,2.84,1.59,4.27a6.65,6.65,0,0,0,.73,1.52c.64,1,1.23,1.94,1.82,2.92.2.34.14.43-.14.61a2.46,2.46,0,0,0-1,.93,4,4,0,0,0-.45,1.84,3.07,3.07,0,0,0,1.19,2.84c.29.21.6.4.91.59a2.3,2.3,0,0,0,1.4.34,3,3,0,0,0,.93-.21c.53-.22.62-.15.9.35a12.12,12.12,0,0,0,1.2,2.1.8.8,0,0,1-.06,1.06,2.69,2.69,0,0,0-.69,1.35,3.5,3.5,0,0,0,.82,2.51,2,2,0,0,0,1.7.82,2.35,2.35,0,0,0,1.13-.24.34.34,0,0,1,.53.19,18.84,18.84,0,0,0,1.47,2.28c.55.9,1.21,1.73,1.71,2.65.73,1.34,1.63,2.56,2.45,3.83.58.91,1.13,1.84,1.73,2.74.86,1.3,1.61,2.68,2.44,4,.57.91,1.23,1.77,1.76,2.71s1,2,1.63,2.95a12.12,12.12,0,0,1,1.07,2A30.05,30.05,0,0,0,208,230.6c.93,1.75,1.85,3.52,2.67,5.33.18.38.41.74.57,1.14a29.79,29.79,0,0,0,1.58,4.09,12.34,12.34,0,0,1,.91,3.09c.32,1.08.52,2.19.82,3.28.26.93.64,1.8.92,2.71.38,1.28.81,2.53,1.22,3.79s1,2.84,1.54,4.5c.38,1,.74,2,1.18,3a30,30,0,0,1,1.1,3c3.22,7.91,8.16,17.38,16.37,25.35a19.33,19.33,0,0,0,2.29,1.69,12.23,12.23,0,0,1,2.21,1.65,2.35,2.35,0,0,0,.37.24c.61.44,1.31.73,1.91,1.21a5,5,0,0,0,2.26,1.13,5.45,5.45,0,0,1,1.63.62,2.71,2.71,0,0,0,1.5.24,1.27,1.27,0,0,0,1.07-1.65,1.75,1.75,0,0,0-1.1-1,5,5,0,0,1-1.14-.66,5.86,5.86,0,0,0-1.13-.81,9.19,9.19,0,0,1-2.58-1.64l-1-.91a11.35,11.35,0,0,1-2.17-2,.94.94,0,0,0-.29-.33,25.24,25.24,0,0,1-2.55-2.29,2,2,0,0,1-.51-.53,12,12,0,0,0-1.92-2.29c-.69-.83-1.32-1.7-1.95-2.57s-1.29-1.76-1.92-2.64a26.89,26.89,0,0,1-1.82-2.84,28.23,28.23,0,0,1-1.41-2.66c-.4-.95-1.21-1.66-1.45-2.67a.17.17,0,0,0-.11-.09c-.32-.12-.38-.43-.53-.68a16.88,16.88,0,0,0-1.11-1.81,3,3,0,0,1-.56-1.19,6.8,6.8,0,0,0-.64-2,1.64,1.64,0,0,1-.09-.58,6.6,6.6,0,0,0-.72-2.45,2.44,2.44,0,0,1-.34-1,12.57,12.57,0,0,0-.49-1.92,12.38,12.38,0,0,1-.64-2.93,42.57,42.57,0,0,1-.33-5.29c0-1.7-.05-3.4,0-5.09.13-2.35.39-4.7.73-7,.14-1,.18-2,.42-3.06.4-1.74.86-3.47,1.12-5.24.15-1,.37-2.08.53-3.12.45-3,1.13-5.88,1.79-8.8.13-.59.3-1.18.44-1.78a26.68,26.68,0,0,1,.87-3.18c.31-.83.64-1.64.9-2.49.36-1.18.78-2.33,1.2-3.49.16-.46.46-.86.59-1.34.17-.66.35-1.32.56-2a16.3,16.3,0,0,1,.68-1.85c.18-.41.47-.8.63-1.23a12.08,12.08,0,0,1,1-2.05c.58-.92.82-2,1.34-2.93.37-.67.66-1.42,1-2.13a28.63,28.63,0,0,1,1.73-3.23,44,44,0,0,1,2.61-4c.34-.45.65-.93,1-1.34a16.29,16.29,0,0,1,2.46-2.38.46.46,0,0,0,.16-.15,11.06,11.06,0,0,1,2.47-2.26,29.42,29.42,0,0,1,3.16-2.35,8.73,8.73,0,0,1,1.66-1.17c.24-.09.42-.47.68-.31s0,.46.05.7a3.56,3.56,0,0,0,1,2.59,9.61,9.61,0,0,0,1.32.74,2.16,2.16,0,0,0,1.39.27c.29,0,.48-.23.75-.3,1.78-.48,2.43-2.88,1.71-4.44a3.19,3.19,0,0,0-1.49-1.54c-.08,0-.19-.13-.2-.2s.18-.12.26-.19a13.61,13.61,0,0,1,2-1.09c.74-.45,1.52-.88,2.29-1.3a6.25,6.25,0,0,0,1.84-1.17.42.42,0,0,1,.65,0,2.4,2.4,0,0,0,1.45.66,3,3,0,0,0,2.26-.41,2.86,2.86,0,0,0,1-3.34,2.73,2.73,0,0,0-.7-1.18c-.09-.1-.24-.23-.14-.38a11.32,11.32,0,0,1,1.15-1.42c.13-.12.3-.14.35.05.1.39.44.58.65.87A3.25,3.25,0,0,0,274,164a3.77,3.77,0,0,0,.19-4c-.31-.49-.31-.56.2-.82a1.9,1.9,0,0,0,1.07-1.32c.07-.29.18-.57.23-.86a2.69,2.69,0,0,0-.43-2.36,3.52,3.52,0,0,1-.31-.5.38.38,0,0,1,0-.41c.23-.46.42-1,.68-1.38s.39-.57.88-.19a4.35,4.35,0,0,0,.63.35c1.32.66,2.23.79,3.39-.34,0,0,.08-.06.11-.09a3,3,0,0,0,.94-3.13,3.18,3.18,0,0,0-2.09-2.46c-.25-.09-.34-.14-.19-.39a1.4,1.4,0,0,0,.13-.34c.16-.47.16-.45.66-.35a4.9,4.9,0,0,0,1.75.17A3.35,3.35,0,0,0,284.18,142Zm-75,83.15A.23.23,0,0,1,209,225c-.25-.45-.48-.91-.73-1.36-.51-.94-1-1.9-1.56-2.83a27.37,27.37,0,0,0-1.52-2.33c-.38-.51-.59-1.12-1-1.63s-.55-1-.93-1.47a3.16,3.16,0,0,1-.65-1.14,1.61,1.61,0,0,0-.31-.5,8.36,8.36,0,0,1-.72-1.19,24,24,0,0,0-1.3-2.12c-.63-.93-1.2-1.9-1.76-2.87a2.36,2.36,0,0,0-.26-.36,30.13,30.13,0,0,1-2.79-4c-.59-.95-1.13-1.94-1.76-2.87-.38-.56-.75-1.13-1.19-1.66a17.84,17.84,0,0,1-1.32-2c-.74-1.19-1.25-2.49-2-3.67a.44.44,0,0,1-.07-.27,3.77,3.77,0,0,0-1-2.38c-.28-.4-.3-.42.09-.67s.42-.48.73-.59c0,0,.1,0,.11-.09.26-1,.91-1.86.61-2.95a3.8,3.8,0,0,0-.27-.76,1.28,1.28,0,0,1-.28-.8c0-.3-.21-.42-.43-.55a3.17,3.17,0,0,0-2.17-.56,3.23,3.23,0,0,0-1.71.26c-.19.12-.35,0-.41-.23a13.8,13.8,0,0,0-1.06-2.76c-.12-.26-.11-.36.11-.53a3.09,3.09,0,0,0,.8-4.2,3.63,3.63,0,0,0-3-1.75c-.61-.05-.65,0-.75-.63a9.83,9.83,0,0,0-.69-1.69c-.27-.78-.63-1.54-.95-2.3l-.06-.13c-.08-.18-.45-.16-.35-.4s.36-.09.55-.13a3.6,3.6,0,0,0,2.17-1.49,2.84,2.84,0,0,0,.44-1,3.18,3.18,0,0,0-.94-3.2,4.07,4.07,0,0,0-1.83-1,5,5,0,0,0-2,.13c-.6.13-.61.15-.76-.43-.44-1.56-.85-3.12-1.29-4.68a5.86,5.86,0,0,1,0-1.51c0-.28.27-.41.51-.46a2.54,2.54,0,0,0,1.73-1.83,2.94,2.94,0,0,0,0-2.29,2.28,2.28,0,0,0-.91-1.12c-.62-.38-1.19-1-2-.89h-.07c-.73-.12-.71-.12-.76-.85-.14-1.84-.29-3.68-.45-5.51s-.21-3.73-.28-5.59c0-.34,0-.69-.05-1a.27.27,0,0,1,.1-.18c.07-.06.14,0,.19.07a31.6,31.6,0,0,1,2.31,2.32,11.38,11.38,0,0,0,1.8,1.59,12.88,12.88,0,0,1,3.16,3.09c.2.31.21.45,0,.67a3,3,0,0,0-.92,1.87,3.18,3.18,0,0,0,1.73,3.28,4.84,4.84,0,0,0,2.88.27c.57-.07.6-.12.83.41a4.93,4.93,0,0,0,.4.61,69.13,69.13,0,0,1,3.73,6.39,2,2,0,0,0,.21.3c.25.35.25.44-.13.57a1.05,1.05,0,0,0-.55.46c-.29.4-.55.81-.82,1.22a.5.5,0,0,0-.08.2c-.18,1.16.31,2.91,1.4,3.31a.56.56,0,0,1,.34.26c0,.09.09.21.19.2.55,0,1.13.17,1.65-.14a1.05,1.05,0,0,1,.26-.13c.52-.14.38-.24.63.25.44.88.93,1.72,1.37,2.6,1.25,2.52,2.33,5.13,3.42,7.73.81,1.94,1.52,3.92,2.34,5.86a56.53,56.53,0,0,1,2.15,6.48c.41,1.44.87,2.86,1.28,4.3s.83,3.08,1.13,4.65.63,3,1,4.52c.12.5.2,1,.29,1.52.7,3.74,1.53,7.46,2,11.23q.55,4.13,1.37,8.21c.31,1.56.56,3.14,1,4.68,0,.05,0,.1,0,.15S209.27,225.09,209.19,225.11Z"/><path class="cls-2" d="M50.2,229C9.5,229,0,207.15,0,191.45v-2.8c0-16,8.8-36.91,52.7-36.91h3.9c45.61,0,51.81,18.3,52.21,28.71v.09H79.21c-.5-1.9-3.11-9.4-24.11-9.4-20,0-25.7,8.61-25.7,18.41v1.1c0,9.5,7.1,18.8,25.5,18.8,19.2,0,25.41-6.9,25.41-9.3H54.2v-14.5h55.11v41.9H91.41a52.26,52.26,0,0,0-3.5-10.3C85,220.45,75.71,229,52.5,229Z"/><path class="cls-2" d="M148.7,227.55H120.4V153.14h28.3Z"/><path class="cls-2" d="M239,153.14v18.2H186.4v9.3h51.51V199H186.4v28.6H158.3V153.14Z"/><path class="cls-2" d="M277.1,173.44H245v-20.3h92.61v20.3H305.5v54.11H277.1Z"/><path class="cls-2" d="M387,229c-41.1,0-45.4-16.7-45.4-26.4v-1h31.2c.3,4,2.4,10.5,18.6,10.5h.9c15.9,0,18.2-3.4,18.2-7V205c0-3.8-1.9-6.2-17.5-6.7l-13.8-.4c-28.8-.8-36.5-10.9-36.5-22.41v-.9c0-12.1,8.1-22.7,42.8-22.7h8.9c36.8,0,45.2,11.7,45.2,23.5v.8H408.7c-.3-2.7-1.9-7.9-18-7.9h-1c-14.9,0-16.4,2.6-16.4,5.5v.1c0,3,2.2,5.41,16.2,5.7l13.4.3c28.3.8,39.3,7.41,39.3,22.41v1.4c0,12.5-7,25.3-46.1,25.3Z"/></svg>