<svg id="Layer_1" data-name="Layer 1" xmlns="http://www.w3.org/2000/svg" viewBox="0 0 1018.56 268.81"><defs><style>.cls-1{fill:#6f8577;}</style></defs><path class="cls-1" d="M195.75,257.54c-.81,0-1.21-.33-1.21-1v-.21a3.69,3.69,0,0,1,1.13-1.91,4,4,0,0,0,1.13-2.6V224.23H194a3,3,0,0,0-2.18,1,8,8,0,0,0-1.52,2.18,10.92,10.92,0,0,1-1.34,2.17,2.11,2.11,0,0,1-1.57,1h-.89c-1,0-1.42-.51-1.31-1.52l1-7.13A1.61,1.61,0,0,1,188,220.3h27a1.64,1.64,0,0,1,1.79,1.63l1.1,7.18a1.25,1.25,0,0,1-.26,1.08,1.39,1.39,0,0,1-1.05.39h-.89a2.13,2.13,0,0,1-1.58-1,12,12,0,0,1-1.36-2.17,8.37,8.37,0,0,0-1.57-2.18,3.09,3.09,0,0,0-2.21-1h-2.72v27.59a4,4,0,0,0,1.12,2.6,3.62,3.62,0,0,1,1.13,1.91v.21c0,.67-.42,1-1.26,1Z"/><path class="cls-1" d="M247.62,251.77a5.19,5.19,0,0,0,1,2.59,4,4,0,0,1,.89,2v.21c0,.67-.42,1-1.26,1H237.81c-.84,0-1.26-.33-1.26-1v-.21a4,4,0,0,1,1-1.94,4.11,4.11,0,0,0,.92-2.62l-.53-9.76a13.16,13.16,0,0,0-1-5.16,3,3,0,0,0-5.16-.19,6.89,6.89,0,0,0-.87,3.73v11.43a3.89,3.89,0,0,0,1.18,2.6,3.61,3.61,0,0,1,1.18,1.91v.21c0,.67-.42,1-1.26,1H220.55c-.8,0-1.2-.33-1.2-1v-.21a3.63,3.63,0,0,1,1.15-1.91,3.89,3.89,0,0,0,1.15-2.6V227.49a3.21,3.21,0,0,0-1.28-2.47c-.86-.73-1.29-1.31-1.29-1.73v-.16c0-.63.41-1.12,1.21-1.46l8.29-3.68a1.53,1.53,0,0,1,1.44-.1,1.26,1.26,0,0,1,.55,1.2V234.3a8.45,8.45,0,0,1,6.4-2.46,9.82,9.82,0,0,1,6.71,2.49q2.83,2.49,3.25,8Z"/><path class="cls-1" d="M278.29,251.77a5.24,5.24,0,0,0,.35,2.15c.22.49.49.76.78.81a1.59,1.59,0,0,1,.79.39,1.3,1.3,0,0,1,.34,1c0,.67-.45,1.12-1.34,1.36a16.23,16.23,0,0,1-4.06.37,7.22,7.22,0,0,1-3.59-.68,3,3,0,0,1-1.34-2.36q-2.1,3.26-7.4,3.25a9.62,9.62,0,0,1-7-2.75,10.14,10.14,0,0,1-2.8-7.58V239a4,4,0,0,0-1.05-2.62,3.78,3.78,0,0,1-1.05-1.78v-.21c0-.7.4-1.11,1.2-1.21l7.82-1.05q2.46-.32,2.46,1.05l-.15,15.52a9,9,0,0,0,.76,4.54,2.76,2.76,0,0,0,2.59,1.39,2.94,2.94,0,0,0,2.47-1.44,6.59,6.59,0,0,0,1-3.8V239a4.09,4.09,0,0,0-1-2.62,3.78,3.78,0,0,1-1-1.78v-.21c0-.7.4-1.11,1.2-1.21L276,232.1c1.54-.21,2.3.14,2.3,1.05Z"/><path class="cls-1" d="M300.32,231.84a4.62,4.62,0,0,1,3.59,1.47,5.28,5.28,0,0,1,1.34,3.72q0,4.93-4,4.93a3.54,3.54,0,0,1-2.46-.76,2.79,2.79,0,0,1-1-1.7,5,5,0,0,0-.55-1.71A1.37,1.37,0,0,0,296,237c-1.3,0-1.94,1.68-1.94,5v9.75a3.61,3.61,0,0,0,1.39,2.6c.92.85,1.39,1.49,1.39,1.91v.21c0,.67-.42,1-1.26,1H284.27c-.84,0-1.26-.33-1.26-1v-.21a3.75,3.75,0,0,1,1.05-1.91,4.1,4.1,0,0,0,1.05-2.6V241.38a2.64,2.64,0,0,0-.63-1.78,10.69,10.69,0,0,0-1.26-1.26,1.49,1.49,0,0,1-.63-1.15V237c0-.59.41-1.1,1.21-1.52l7.4-3.46c.7-.25,1.18-.26,1.46-.05a1.42,1.42,0,0,1,.42,1.2V237A7,7,0,0,1,300.32,231.84Z"/><path class="cls-1" d="M317.79,258a17.74,17.74,0,0,1-8.29-1.71q-3.25-1.7-3.25-4.43a3.05,3.05,0,0,1,1-2.51,4.11,4.11,0,0,1,2.7-.84,3.68,3.68,0,0,1,2.83,1.12,6,6,0,0,1,1.42,2.47,6.7,6.7,0,0,0,1.26,2.46,2.78,2.78,0,0,0,2.31,1.13c1.88,0,2.83-1,2.83-2.88a3.56,3.56,0,0,0-1.44-3,10.21,10.21,0,0,0-3.49-1.68c-1.37-.39-2.72-.82-4.07-1.31a8,8,0,0,1-3.46-2.47,6.88,6.88,0,0,1-1.44-4.56,6.79,6.79,0,0,1,3.09-5.74,13.31,13.31,0,0,1,8-2.23,15.32,15.32,0,0,1,7.94,1.83c2,1.23,3.07,2.71,3.07,4.46a2.94,2.94,0,0,1-1,2.28,3.59,3.59,0,0,1-2.49.92,3.5,3.5,0,0,1-2.73-1.1,5.67,5.67,0,0,1-1.34-2.44,8.46,8.46,0,0,0-1.05-2.44,2.18,2.18,0,0,0-1.91-1.1,2.12,2.12,0,0,0-1.81.89,3.46,3.46,0,0,0-.66,2.1,4,4,0,0,0,1.39,3.15,9.55,9.55,0,0,0,3.36,1.83c1.31.42,2.62.88,3.93,1.37a8,8,0,0,1,3.36,2.38,6.86,6.86,0,0,1-1.68,9.86Q323.09,258,317.79,258Z"/><path class="cls-1" d="M358.33,251.82a4.08,4.08,0,0,0,1,2.6,3.75,3.75,0,0,1,1.05,1.91v.21c0,.67-.4,1-1.2,1h-7.5c-.91,0-1.37-.44-1.37-1.31v-.48a9,9,0,0,1-6.39,2.31,12.17,12.17,0,0,1-8.74-3.49q-3.64-3.48-3.64-9.62a12.77,12.77,0,0,1,3.67-9.41,11.91,11.91,0,0,1,8.76-3.7,9.52,9.52,0,0,1,5.4,1.47v-7a2.64,2.64,0,0,0-.68-1.81,12,12,0,0,0-1.39-1.31,1.54,1.54,0,0,1-.71-1.18v-.16c0-.66.4-1.11,1.21-1.36l8.18-2.46c1.54-.49,2.31-.07,2.31,1.25Zm-12.28,3.67a2.81,2.81,0,0,0,2.39-1.15,5,5,0,0,0,1-3.25V241a7.61,7.61,0,0,0-1.44-4.53,4.06,4.06,0,0,0-3.28-2q-3.88,0-4.14,6.45a28.19,28.19,0,0,0,.44,5.72,23.08,23.08,0,0,0,1.89,6C343.77,254.5,344.83,255.46,346.05,255.49Z"/><path class="cls-1" d="M387.59,251.82a5.37,5.37,0,0,0,.6,2,2.37,2.37,0,0,0,.89,1,3.67,3.67,0,0,1,.82.52,1,1,0,0,1,.36.79q0,1.72-5.92,1.73a8.41,8.41,0,0,1-3.59-.58,2.71,2.71,0,0,1-1.5-1.94q-2,2.73-6.66,2.73a11.73,11.73,0,0,1-7.16-2,7,7,0,0,1-2.75-5.93,7.06,7.06,0,0,1,2.73-5.9,10.54,10.54,0,0,1,6.71-2.12,10.14,10.14,0,0,1,5.3,1.31v-.16a35.9,35.9,0,0,0-1.18-7,2.51,2.51,0,0,0-2.55-1.83,2.23,2.23,0,0,0-1.94,1.1,7.69,7.69,0,0,0-1.07,2.41,6,6,0,0,1-1.29,2.41,3.14,3.14,0,0,1-2.52,1.1,3.73,3.73,0,0,1-2.64-.94,3.18,3.18,0,0,1-1-2.47,4.93,4.93,0,0,1,3-4.58,16.32,16.32,0,0,1,7.45-1.55,13.08,13.08,0,0,1,8.68,2.86,11.56,11.56,0,0,1,4.07,7.73Zm-12.12,3.57a2.29,2.29,0,0,0,2-1.16,4.63,4.63,0,0,0,.76-2.62L378,249.2q-.53-4.35-3.25-4.35a2.31,2.31,0,0,0-1.94,1,4.17,4.17,0,0,0-.73,2.59,12,12,0,0,0,.91,5C373.59,254.71,374.43,255.39,375.47,255.39Z"/><path class="cls-1" d="M417.17,232.36c.8,0,1.2.34,1.2,1v.21a3.88,3.88,0,0,1-1.18,2.15,10.32,10.32,0,0,0-1.65,2.46l-9.91,21.35a30.42,30.42,0,0,1-1.44,2.91,31.06,31.06,0,0,1-1.94,2.89,9,9,0,0,1-2.91,2.56,7.36,7.36,0,0,1-3.62.92,9.46,9.46,0,0,1-6-1.83,5.35,5.35,0,0,1-2.33-4.25,3.61,3.61,0,0,1,1-2.68,3.68,3.68,0,0,1,2.72-1,3.37,3.37,0,0,1,2.7,1.1,4.91,4.91,0,0,1,1.21,2.39,11,11,0,0,0,.71,2.38c.31.74.73,1.1,1.26,1.1q2,0,4.93-6.81l-10.65-21a12.54,12.54,0,0,0-1.76-2.43,3.85,3.85,0,0,1-1.18-2.18v-.21c0-.66.4-1,1.21-1h11.28c.76,0,1.15.35,1.15,1v.21a2.27,2.27,0,0,1-.47,1.21,3.9,3.9,0,0,0-.63,1.26,4.74,4.74,0,0,0,.36,2.2l5.35,12.59,4.83-11.7q.57-1.94,0-2.7a8.53,8.53,0,0,0-1.53-1.55c-.64-.52-1-1-1-1.31v-.21c0-.7.41-1,1.21-1Z"/><path class="cls-1" d="M454,220.3a1.41,1.41,0,0,1,1,.34,1.13,1.13,0,0,1,.37.87v.73a12.23,12.23,0,0,1-.79,2.89L443,256a2.24,2.24,0,0,1-2.3,1.52h-5.83a1.52,1.52,0,0,1-1.46-.79,1.58,1.58,0,0,1-.06-1.52l14.53-27.64H435.26a2.53,2.53,0,0,0-1.76.71,5.23,5.23,0,0,0-1.18,1.6,6.22,6.22,0,0,1-1.07,1.6,2,2,0,0,1-1.44.71H429c-1,0-1.42-.49-1.31-1.47l1.05-8.81a1.66,1.66,0,0,1,1.83-1.63Z"/><path class="cls-1" d="M467.78,258.06a8,8,0,0,1-6.27-2.52c-1.52-1.67-2.28-4.07-2.28-7.18V235.93h-2a1.16,1.16,0,0,1-1.21-1.21v-1.15a1.07,1.07,0,0,1,1.21-1.21h1a6.3,6.3,0,0,0,4.15-1.44,6.73,6.73,0,0,0,2.25-3.85c.18-.91.65-1.37,1.42-1.37h1.2c.95,0,1.42.46,1.42,1.37v5.29h5.4a1.16,1.16,0,0,1,1.21,1.21v1.15a1.22,1.22,0,0,1-.34.87,1.18,1.18,0,0,1-.87.34h-5.4v12.59a3,3,0,0,0,.68,2.07,2.14,2.14,0,0,0,1.68.76,3.85,3.85,0,0,0,3.46-1.94,1.29,1.29,0,0,1,.84-.55,1,1,0,0,1,.81.18.88.88,0,0,1,.34.74,8.23,8.23,0,0,1-2.33,5.79A8.32,8.32,0,0,1,467.78,258.06Z"/><path class="cls-1" d="M506,251.77a5.28,5.28,0,0,0,1,2.59,4,4,0,0,1,.9,2v.21c0,.67-.42,1-1.26,1H496.15c-.84,0-1.26-.33-1.26-1v-.21a4,4,0,0,1,1-1.94,4.11,4.11,0,0,0,.92-2.62l-.52-9.76a13.16,13.16,0,0,0-1.05-5.16,3,3,0,0,0-5.17-.19,6.89,6.89,0,0,0-.86,3.73v11.43a3.85,3.85,0,0,0,1.18,2.6c.78.85,1.18,1.49,1.18,1.91v.21c0,.67-.42,1-1.26,1H478.9c-.81,0-1.21-.33-1.21-1v-.21a3.63,3.63,0,0,1,1.15-1.91,3.91,3.91,0,0,0,1.16-2.6V227.49a3.22,3.22,0,0,0-1.29-2.47c-.85-.73-1.28-1.31-1.28-1.73v-.16c0-.63.4-1.12,1.2-1.46l8.29-3.68a1.53,1.53,0,0,1,1.44-.1,1.26,1.26,0,0,1,.55,1.2V234.3a8.47,8.47,0,0,1,6.4-2.46,9.81,9.81,0,0,1,6.71,2.49q2.84,2.49,3.26,8Z"/><path class="cls-1" d="M551.53,251.82a7.7,7.7,0,0,0,1.81,2.6c.82.78,1.23,1.42,1.23,1.91v.21c0,.67-.42,1-1.26,1H539.73c-.8,0-1.2-.33-1.2-1v-.21a1.76,1.76,0,0,1,.76-1.23,8.45,8.45,0,0,0,1.31-1.44,2,2,0,0,0,.18-1.84l-1.15-3.25H526.31l-1.16,3.25a1.94,1.94,0,0,0,.19,1.84,7.69,7.69,0,0,0,1.31,1.44,1.8,1.8,0,0,1,.76,1.23v.21c0,.67-.42,1-1.26,1h-7.76c-.84,0-1.26-.33-1.26-1v-.21q0-.67,1.23-1.89a7.87,7.87,0,0,0,1.81-2.62L530,226.44a2.11,2.11,0,0,0-.13-1.84,12.36,12.36,0,0,0-1.16-1.78,2.46,2.46,0,0,1-.65-1.31v-.21c0-.67.4-1,1.2-1H536a3.67,3.67,0,0,1,3.61,2.52Zm-23.81-7.18h10.49L533,230Z"/><path class="cls-1" d="M581.11,251.77a5.26,5.26,0,0,0,.34,2.15c.23.49.49.76.79.81a1.59,1.59,0,0,1,.79.39,1.34,1.34,0,0,1,.34,1c0,.67-.45,1.12-1.34,1.36a16.32,16.32,0,0,1-4.07.37,7.25,7.25,0,0,1-3.59-.68,3,3,0,0,1-1.34-2.36c-1.39,2.17-3.86,3.25-7.39,3.25a9.61,9.61,0,0,1-7-2.75,10.14,10.14,0,0,1-2.81-7.58V239a4,4,0,0,0-1.05-2.62,3.78,3.78,0,0,1-1-1.78v-.21c0-.7.41-1.11,1.21-1.21l7.82-1.05q2.46-.32,2.46,1.05l-.16,15.52a9.22,9.22,0,0,0,.76,4.54,2.79,2.79,0,0,0,2.6,1.39,2.91,2.91,0,0,0,2.46-1.44,6.52,6.52,0,0,0,1-3.8V239a4,4,0,0,0-1-2.62,3.78,3.78,0,0,1-1.05-1.78v-.21c0-.7.4-1.11,1.21-1.21l7.81-1.05q2.31-.32,2.31,1.05Z"/><path class="cls-1" d="M608.59,232.36a7.94,7.94,0,0,1,3.2.4,1.21,1.21,0,0,1,.63,1.33,1.73,1.73,0,0,1-.5,1.18,2.1,2.1,0,0,1-.89.58c-.3.09-.73.19-1.31.32s-1,.21-1.23.28a9.68,9.68,0,0,1,2.57,6.51,9.5,9.5,0,0,1-5.67,9,9.92,9.92,0,0,1,4.78,2.12,4.7,4.7,0,0,1,1.41,3.49q0,3.09-3.93,5.06a21.73,21.73,0,0,1-9.76,2,19.24,19.24,0,0,1-9-1.79,5.54,5.54,0,0,1-3.33-5.08,3.51,3.51,0,0,1,.94-2.42,3.44,3.44,0,0,1,2.68-1,3.6,3.6,0,0,1,2.7,1.2,8,8,0,0,1,1.67,2.68,8.46,8.46,0,0,0,1.68,2.7A3.6,3.6,0,0,0,598,262.1a4,4,0,0,0,3.19-1.18,4.54,4.54,0,0,0,1.16-3.23c0-2.41-.74-3.82-2.2-4.24-.77.07-1.4.1-1.89.1a14,14,0,0,1-9.15-2.94,9.34,9.34,0,0,1-3.6-7.6,10.16,10.16,0,0,1,3.6-8.08,13.68,13.68,0,0,1,9.25-3.09c1,0,2.52.09,4.62.26S606.91,232.36,608.59,232.36Zm-14.37,6.45a21.18,21.18,0,0,0,1.63,8.13c1.08,2.66,2.31,4,3.67,4a2.35,2.35,0,0,0,2.07-1.18,5.89,5.89,0,0,0,.76-3.23,22.05,22.05,0,0,0-1.62-7.92q-1.63-4.18-3.78-4.19a2.25,2.25,0,0,0-2,1.15A6.06,6.06,0,0,0,594.22,238.81Z"/><path class="cls-1" d="M641.47,251.77a5.24,5.24,0,0,0,.35,2.15q.33.74.78.81a1.59,1.59,0,0,1,.79.39,1.3,1.3,0,0,1,.34,1c0,.67-.45,1.12-1.34,1.36a16.23,16.23,0,0,1-4.06.37,7.22,7.22,0,0,1-3.59-.68,3,3,0,0,1-1.34-2.36q-2.1,3.26-7.4,3.25a9.62,9.62,0,0,1-7-2.75,10.14,10.14,0,0,1-2.8-7.58V239a4,4,0,0,0-1.05-2.62,3.78,3.78,0,0,1-1-1.78v-.21c0-.7.4-1.11,1.2-1.21l7.82-1.05q2.46-.32,2.46,1.05l-.15,15.52a9,9,0,0,0,.76,4.54,2.76,2.76,0,0,0,2.59,1.39,2.94,2.94,0,0,0,2.47-1.44,6.59,6.59,0,0,0,1-3.8V239a4.09,4.09,0,0,0-1-2.62,3.78,3.78,0,0,1-1.05-1.78v-.21c0-.7.4-1.11,1.2-1.21l7.82-1.05c1.54-.21,2.3.14,2.3,1.05Z"/><path class="cls-1" d="M657.37,258a17.74,17.74,0,0,1-8.29-1.71q-3.26-1.7-3.25-4.43a3.05,3.05,0,0,1,1-2.51,4.11,4.11,0,0,1,2.7-.84,3.68,3.68,0,0,1,2.83,1.12,6,6,0,0,1,1.42,2.47,6.7,6.7,0,0,0,1.26,2.46,2.78,2.78,0,0,0,2.31,1.13c1.88,0,2.83-1,2.83-2.88a3.56,3.56,0,0,0-1.44-3,10.21,10.21,0,0,0-3.49-1.68c-1.37-.39-2.72-.82-4.07-1.31a8,8,0,0,1-3.46-2.47,6.88,6.88,0,0,1-1.44-4.56,6.79,6.79,0,0,1,3.09-5.74,13.31,13.31,0,0,1,8-2.23,15.32,15.32,0,0,1,7.94,1.83c2.05,1.23,3.07,2.71,3.07,4.46a2.94,2.94,0,0,1-1,2.28,3.59,3.59,0,0,1-2.49.92,3.5,3.5,0,0,1-2.73-1.1,5.67,5.67,0,0,1-1.34-2.44,8.46,8.46,0,0,0-1-2.44,2.18,2.18,0,0,0-1.91-1.1,2.12,2.12,0,0,0-1.81.89,3.46,3.46,0,0,0-.66,2.1,4,4,0,0,0,1.39,3.15,9.55,9.55,0,0,0,3.36,1.83c1.31.42,2.62.88,3.93,1.37a8,8,0,0,1,3.36,2.38,6.86,6.86,0,0,1-1.68,9.86C663.68,257.28,660.9,258,657.37,258Z"/><path class="cls-1" d="M682.17,258.06a8,8,0,0,1-6.27-2.52c-1.52-1.67-2.28-4.07-2.28-7.18V235.93h-2a1.14,1.14,0,0,1-.86-.34,1.18,1.18,0,0,1-.35-.87v-1.15a1.07,1.07,0,0,1,1.21-1.21h1a6.27,6.27,0,0,0,4.14-1.44,6.74,6.74,0,0,0,2.26-3.85c.17-.91.64-1.37,1.41-1.37h1.21a1.23,1.23,0,0,1,1.41,1.37v5.29h5.41a1.21,1.21,0,0,1,.86.34,1.18,1.18,0,0,1,.34.87v1.15a1.16,1.16,0,0,1-1.2,1.21h-5.41v12.59a3,3,0,0,0,.69,2.07,2.14,2.14,0,0,0,1.67.76,3.84,3.84,0,0,0,3.46-1.94,1.34,1.34,0,0,1,.84-.55,1,1,0,0,1,.82.18.9.9,0,0,1,.34.74,8.19,8.19,0,0,1-2.34,5.79A8.3,8.3,0,0,1,682.17,258.06Z"/><path class="cls-1" d="M731.63,246.84a1,1,0,0,1,.86.37,1,1,0,0,1,.19.89L731,256.28c-.21.84-.65,1.26-1.31,1.26H704.3a1.43,1.43,0,0,1-1-.37,1.13,1.13,0,0,1-.42-.89v-.68a11.51,11.51,0,0,1,1.86-6.11,26.18,26.18,0,0,1,4.51-5.48q2.64-2.47,5.27-4.8a30.15,30.15,0,0,0,4.48-4.93,8.67,8.67,0,0,0,1.87-5.06,7,7,0,0,0-1.16-4.22,3.35,3.35,0,0,0-2.78-1.6,2.37,2.37,0,0,0-1.94,1,9.64,9.64,0,0,0-1.31,2.52c-.35,1-.73,2-1.15,2.94a6.85,6.85,0,0,1-1.84,2.52,4.3,4.3,0,0,1-2.94,1,4.78,4.78,0,0,1-3.3-1.17,4.15,4.15,0,0,1-1.31-3.23q0-3.88,4.06-6.58a17.48,17.48,0,0,1,9.89-2.7q6.45,0,10.2,2.51t3.75,7.82a9.59,9.59,0,0,1-1.73,5.48A17.16,17.16,0,0,1,725,240c-1.73,1.22-3.49,2.38-5.29,3.46a38.28,38.28,0,0,0-5,3.57,9.79,9.79,0,0,0-3,3.88h13.47a4.47,4.47,0,0,0,3.81-2,9.53,9.53,0,0,1,1-1.39,1.43,1.43,0,0,1,1.05-.63Z"/><path class="cls-1" d="M752.61,258.06a15.85,15.85,0,0,1-12.07-5.22q-4.87-5.22-4.87-13.76,0-8.76,4.58-14t12.3-5.27a15.66,15.66,0,0,1,12.12,5.4q4.88,5.4,4.88,13.95t-4.93,13.74A15.94,15.94,0,0,1,752.61,258.06Zm-2.89-6.34c1.26,1.88,2.69,2.83,4.3,2.83s2.88-.94,3.8-2.81,1.39-4.64,1.39-8.31a46.1,46.1,0,0,0-.91-9.18,25,25,0,0,0-2.78-7.66c-1.25-2.09-2.67-3.14-4.28-3.14s-3,1-3.91,3.07-1.39,5.06-1.39,9a41.85,41.85,0,0,0,.95,9A20.86,20.86,0,0,0,749.72,251.72Z"/><path class="cls-1" d="M801.43,246.84a1,1,0,0,1,.87.37,1,1,0,0,1,.18.89l-1.68,8.18c-.21.84-.65,1.26-1.31,1.26H774.11a1.44,1.44,0,0,1-1-.37,1.13,1.13,0,0,1-.42-.89v-.68a11.51,11.51,0,0,1,1.86-6.11,26.49,26.49,0,0,1,4.51-5.48q2.66-2.47,5.27-4.8a30.23,30.23,0,0,0,4.49-4.93,8.72,8.72,0,0,0,1.86-5.06,7,7,0,0,0-1.15-4.22,3.36,3.36,0,0,0-2.78-1.6,2.36,2.36,0,0,0-1.94,1A9.07,9.07,0,0,0,783.5,227c-.35,1-.74,2-1.16,2.94a6.94,6.94,0,0,1-1.83,2.52,4.34,4.34,0,0,1-2.94,1,4.8,4.8,0,0,1-3.31-1.17,4.15,4.15,0,0,1-1.31-3.23q0-3.88,4.07-6.58a17.45,17.45,0,0,1,9.88-2.7q6.45,0,10.2,2.51t3.75,7.82a9.51,9.51,0,0,1-1.73,5.48A17.12,17.12,0,0,1,794.8,240c-1.73,1.22-3.5,2.38-5.3,3.46a38.28,38.28,0,0,0-5,3.57,9.79,9.79,0,0,0-3,3.88h13.48a4.43,4.43,0,0,0,3.8-2,10.37,10.37,0,0,1,1-1.39,1.43,1.43,0,0,1,1-.63Z"/><path class="cls-1" d="M820.52,233.94a14.22,14.22,0,0,1,9,3,9.93,9.93,0,0,1,3.88,8.31,11.66,11.66,0,0,1-4.12,9.21,15.65,15.65,0,0,1-10.67,3.59q-6.29,0-9.86-2.15t-3.57-5.72a4,4,0,0,1,1.34-3.33,5,5,0,0,1,3.23-1.07,3.34,3.34,0,0,1,2.33.89,6.73,6.73,0,0,1,1.55,2.15c.38.84.78,1.68,1.18,2.52a6.94,6.94,0,0,0,1.57,2.15,3.29,3.29,0,0,0,2.28.89,4.26,4.26,0,0,0,3.6-1.94c.92-1.29,1.39-3.27,1.39-5.93q0-8.91-6.09-8.91a9,9,0,0,0-5.56,2.25,3,3,0,0,1-3.22.47,2.05,2.05,0,0,1-1.6-2.3l1.94-16.57a1.25,1.25,0,0,1,1.41-1.16h20.2a1.16,1.16,0,0,1,1.31,1.31v4.88a1.16,1.16,0,0,1-1.31,1.31H812.86L811.61,237A13.88,13.88,0,0,1,820.52,233.94Z"/><path class="cls-1" d="M1.69,3.06H30.91a1.68,1.68,0,0,1,1.67,1.46L42.79,78.78a1.69,1.69,0,0,0,3.34,0L56.52,4.52a1.69,1.69,0,0,1,1.67-1.46h27a1.69,1.69,0,0,1,1.68,1.69V167.53a1.69,1.69,0,0,1-1.68,1.69H64.89a1.69,1.69,0,0,1-1.69-1.69V85.78a1.68,1.68,0,0,0-3.35-.24L48.22,167.77a1.69,1.69,0,0,1-1.67,1.45H39.43a1.69,1.69,0,0,1-1.67-1.45L25.91,85.19a1.68,1.68,0,0,0-3.35.24v82.1a1.69,1.69,0,0,1-1.69,1.69H1.69A1.69,1.69,0,0,1,0,167.53V4.75A1.69,1.69,0,0,1,1.69,3.06Z"/><path class="cls-1" d="M126.28,169.22H104.42a1.69,1.69,0,0,1-1.69-1.69V4.75a1.69,1.69,0,0,1,1.69-1.69H143.6c17,0,25.23,6.93,25.23,25.69V58.22c0,11.25-4.26,17-8.26,19.78a1.68,1.68,0,0,0,.06,2.84c4.47,2.66,8.2,7.19,8.2,16.69v58.29c0,6.62,1.23,9.56,2.31,12a1.69,1.69,0,0,1,.15.7v.75h-24a1.68,1.68,0,0,1-1.5-.9c-1-1.9-1.94-5.14-1.94-12.72v-50c0-7.37-1.34-10.5-9.38-10.5h-4.79A1.69,1.69,0,0,0,128,96.76v70.77A1.69,1.69,0,0,1,126.28,169.22ZM128,69.71a1.69,1.69,0,0,0,1.69,1.69h5c6.93,0,9.16-4.47,9.16-11.84V36.34c0-7.15-1.34-10.72-9.16-10.72h-5A1.69,1.69,0,0,0,128,27.31Z"/><path class="cls-1" d="M294,174.49a3,3,0,0,1-.59-.05c-5.49-1-11.88-2.6-18.22-8.41a.17.17,0,0,0-.23,0c-5.09,4.44-12,6.69-20.42,6.69h-4c-26.65,0-41.93-17.07-41.93-46.84v-8.26c0-17.29,6.55-31.89,19.45-43.41a.18.18,0,0,0,0-.22c-5.8-13-9.67-24.61-9.67-38.55V29.64C218.47,11.08,229.05,0,246.77,0h4.47C274.93,0,278,16.44,278,30.76v2.45c0,15.52-3.08,25.84-20.59,42.48a.21.21,0,0,0-.05.22l16.61,38.14a.17.17,0,0,0,.21.11c.14,0,.15-.11.15-.17,1-12,1-25.41.91-37.22,0-1.94,0-3.84,0-5.69a3.11,3.11,0,0,1,.92-2.25,3.17,3.17,0,0,1,2.26-.94h18.7a3.14,3.14,0,0,1,2.27,1,3.21,3.21,0,0,1,.92,2.31c-.63,27.58-1.81,52.11-9.93,73a.2.2,0,0,0,.07.22,18.44,18.44,0,0,0,9.76,4.75,3.17,3.17,0,0,1,2.1,1.46,3.22,3.22,0,0,1,.35,2.57l-5.52,19A3.18,3.18,0,0,1,294,174.49ZM275.12,163a3.18,3.18,0,0,1,2.14.83c5.75,5.27,11.42,6.68,16.74,7.67a.19.19,0,0,0,.21-.13l5.53-19.05a.25.25,0,0,0,0-.16.15.15,0,0,0-.11-.08,21.5,21.5,0,0,1-11.23-5.48,3.19,3.19,0,0,1-.83-3.53c7.94-20.43,9.1-44.68,9.72-72a.18.18,0,0,0-.06-.14.18.18,0,0,0-.13-.06h-18.7a.16.16,0,0,0-.13.06.13.13,0,0,0-.05.12c0,1.86,0,3.75,0,5.68.05,11.88.11,25.35-.92,37.49a3.19,3.19,0,0,1-6.1,1L254.58,77.1a3.18,3.18,0,0,1,.73-3.58C272.13,57.53,275,48.16,275,33.21V30.76C275,16.34,272.1,3,251.24,3h-4.47c-7.61,0-25.3,2.6-25.3,26.64v5.81c0,13.42,3.76,24.63,9.41,37.33a3.18,3.18,0,0,1-.79,3.68c-12.24,10.92-18.45,24.77-18.45,41.17v8.26c0,28.27,13.83,43.84,38.93,43.84h4c7.72,0,13.92-2,18.44-5.95A3.18,3.18,0,0,1,275.12,163Zm-20.31-11.7c-19,0-21.82-21.65-21.82-34.55v-3.35a60.29,60.29,0,0,1,2.45-17.56,3.18,3.18,0,0,1,5.92-.4L264.61,145c.05.12.1.23.14.35h0a3.19,3.19,0,0,1-1.44,3.78A17.12,17.12,0,0,1,254.81,151.29ZM238.48,96.6h0a.16.16,0,0,0-.15.11A57.77,57.77,0,0,0,236,113.39v3.35c0,20.64,6.5,31.55,18.82,31.55a14.18,14.18,0,0,0,7-1.73.19.19,0,0,0,.07-.22v0L238.65,96.71A.18.18,0,0,0,238.48,96.6Zm10.18-37.72h-.25a3.2,3.2,0,0,1-2.72-2c-3.24-8-5.11-14.24-5.11-22.56V31.2c0-9.54,4.46-11.55,8.2-11.55,7,0,8,5.73,8,11.33v3.57c0,9.34-.8,15.13-5.36,22.78A3.17,3.17,0,0,1,248.66,58.88Zm.12-36.23c-1.42,0-5.2,0-5.2,8.55v3.13c0,7.87,1.72,13.6,4.89,21.43a.18.18,0,0,0,.17.12.14.14,0,0,0,.17-.09c4.23-7.09,4.94-12.28,4.94-21.24V31C253.75,23.94,252.08,22.65,248.78,22.65Z"/><path class="cls-1" d="M342.92,3.06h29.22a1.68,1.68,0,0,1,1.67,1.46L384,78.78a1.69,1.69,0,0,0,3.34,0L397.75,4.52a1.69,1.69,0,0,1,1.67-1.46h27a1.69,1.69,0,0,1,1.68,1.69V167.53a1.69,1.69,0,0,1-1.68,1.69h-20.3a1.69,1.69,0,0,1-1.69-1.69V85.78a1.69,1.69,0,0,0-3.36-.24l-11.62,82.23a1.69,1.69,0,0,1-1.67,1.45h-7.12a1.69,1.69,0,0,1-1.67-1.45L367.14,85.19a1.69,1.69,0,0,0-3.36.24v82.1a1.69,1.69,0,0,1-1.68,1.69H342.92a1.69,1.69,0,0,1-1.69-1.69V4.75A1.69,1.69,0,0,1,342.92,3.06Z"/><path class="cls-1" d="M467.51,169.22H445.64a1.69,1.69,0,0,1-1.68-1.69V4.75a1.69,1.69,0,0,1,1.68-1.69h39.19c17,0,25.23,6.93,25.23,25.69V58.22c0,11.25-4.27,17-8.26,19.78a1.68,1.68,0,0,0,.06,2.84c4.47,2.66,8.2,7.19,8.2,16.69v58.29c0,6.62,1.23,9.56,2.31,12a1.69,1.69,0,0,1,.15.7v.75h-24a1.68,1.68,0,0,1-1.5-.9c-1-1.9-1.94-5.14-1.94-12.72v-50c0-7.37-1.34-10.5-9.38-10.5h-4.79a1.69,1.69,0,0,0-1.69,1.69v70.77A1.69,1.69,0,0,1,467.51,169.22Zm1.68-99.51a1.69,1.69,0,0,0,1.69,1.69h5c6.93,0,9.16-4.47,9.16-11.84V36.34c0-7.15-1.34-10.72-9.16-10.72h-5a1.69,1.69,0,0,0-1.69,1.69Z"/><path class="cls-1" d="M560.31,1.5c20.77,0,28.81,9.16,28.81,28.81V55.87a1.69,1.69,0,0,1-1.69,1.68h-21a1.69,1.69,0,0,1-1.69-1.68V33.66c0-5.58-1.11-9.83-7.14-9.83s-7.37,3.8-7.37,11.62v3.12C550.26,48,552,53.09,560.53,64L576.61,84.8c11.39,14.74,15,23,15,42v5.36c0,24.34-10.27,38.86-32.6,38.86h-4.92c-20.32,0-30.81-10.95-30.81-31.49V107.93a1.69,1.69,0,0,1,1.68-1.69h21.64a1.69,1.69,0,0,1,1.69,1.69v27.34c0,7.82,2.68,11.62,8.26,11.62,6,0,8.26-3.8,8.26-14.3V128.8c0-12.06-1.11-15.86-10.27-27.92L538.42,80.33c-10.72-13.84-13.85-24.56-13.85-41.09V33.88c0-22.33,11.17-32.38,31-32.38Z"/><path class="cls-1" d="M668.62,1.5c20.77,0,28.8,9.16,28.8,28.81V55.87a1.68,1.68,0,0,1-1.68,1.68h-21a1.69,1.69,0,0,1-1.69-1.68V33.66c0-5.58-1.11-9.83-7.14-9.83s-7.37,3.8-7.37,11.62v3.12c0,9.38,1.78,14.52,10.27,25.46L684.92,84.8c11.39,14.74,15,23,15,42v5.36c0,24.34-10.27,38.86-32.6,38.86h-4.92c-20.32,0-30.82-10.95-30.82-31.49V107.93a1.69,1.69,0,0,1,1.69-1.69h21.64a1.69,1.69,0,0,1,1.69,1.69v27.34c0,7.82,2.68,11.62,8.26,11.62,6,0,8.26-3.8,8.26-14.3V128.8c0-12.06-1.11-15.86-10.27-27.92L646.73,80.33C636,66.49,632.88,55.77,632.88,39.24V33.88c0-22.33,11.17-32.38,31-32.38Z"/><path class="cls-1" d="M756.5,96.86h21.42a1.69,1.69,0,0,1,1.69,1.69v36.72c0,17.87-6,36-30.15,36h-5.59c-25.68,0-31-18.31-31-35.06V34.78c0-17,7.37-33.28,30.15-33.28h5.81c27.69,0,30.82,18.31,30.82,34.62v28a1.69,1.69,0,0,1-1.69,1.69H756.5a1.69,1.69,0,0,1-1.68-1.69V36.56c0-7.14-2.24-10.94-8.49-10.94s-7.82,3.57-7.82,10.94v98.71q0,11.4,8,11.39c6,0,8.27-4.24,8.27-11.16V98.55A1.69,1.69,0,0,1,756.5,96.86Z"/><path class="cls-1" d="M862.46,132.15c0,23.22-7.82,39.08-32.16,39.08h-4.24c-24.12,0-32.61-15.86-32.61-39.08V39.69c0-23.23,8.49-38.19,32.38-38.19h4.25c24.56,0,32.38,15.19,32.38,38Zm-25.68-93.8q0-12.74-8.71-12.73c-6.48,0-8.94,4-8.94,12.73v105a1.7,1.7,0,0,0,1.14,1.59c13.83,5,16.51-1.68,16.51-11Z"/><path class="cls-1" d="M940.85,4.75V25.5a1.69,1.69,0,0,1-1.69,1.68H921.32a1.69,1.69,0,0,0-1.69,1.69V167.53a1.69,1.69,0,0,1-1.68,1.69H896.31a1.69,1.69,0,0,1-1.69-1.69V28.87a1.69,1.69,0,0,0-1.69-1.69H875.09a1.69,1.69,0,0,1-1.69-1.68V4.75a1.69,1.69,0,0,1,1.69-1.69h64.07A1.69,1.69,0,0,1,940.85,4.75Z"/><path class="cls-1" d="M1018.56,4.75V25.5a1.68,1.68,0,0,1-1.69,1.68H999a1.69,1.69,0,0,0-1.69,1.69V167.53a1.69,1.69,0,0,1-1.68,1.69H974a1.69,1.69,0,0,1-1.69-1.69V28.87a1.69,1.69,0,0,0-1.68-1.69H952.8a1.68,1.68,0,0,1-1.68-1.68V4.75a1.69,1.69,0,0,1,1.68-1.69h64.07A1.69,1.69,0,0,1,1018.56,4.75Z"/></svg>