<svg id="Layer_1" data-name="Layer 1" xmlns="http://www.w3.org/2000/svg" viewBox="0 0 1018.56 268.81"><defs><style>.cls-1{fill:#6f8577;}</style></defs><path class="cls-1" d="M195,258.1c-.8,0-1.2-.31-1.2-.94V257a3.63,3.63,0,0,1,1-1.82,3.92,3.92,0,0,0,1-2.47v-24.5a3.94,3.94,0,0,0-1-2.47,3.63,3.63,0,0,1-1-1.82v-.19c0-.63.39-.95,1.15-.95H218.4a1.6,1.6,0,0,1,1.17.37,2.27,2.27,0,0,1,.52,1.22l1.2,6.28a1.16,1.16,0,0,1-1.25,1.44h-.25a2.78,2.78,0,0,1-1.91-.92,11.79,11.79,0,0,1-1.7-2,9.24,9.24,0,0,0-1.84-2,3.59,3.59,0,0,0-2.32-.92h-4.78c-1.53,0-2.29.79-2.29,2.39v11.15h5.58a2.1,2.1,0,0,0,1.47-.62,5.07,5.07,0,0,0,1.07-1.39,7.7,7.7,0,0,1,.92-1.4,1.41,1.41,0,0,1,1-.62h.45c.63,0,1,.38,1,1.14v9c0,.77-.32,1.15-1,1.15H215c-.4,0-.8-.31-1.22-.92a20.53,20.53,0,0,0-1.42-1.87,2.32,2.32,0,0,0-1.79-1H205v9.41a3.65,3.65,0,0,0,1.12,2.47,3.44,3.44,0,0,1,1.12,1.82v.2c0,.63-.4.94-1.19.94Z"/><path class="cls-1" d="M237,233.7a4.38,4.38,0,0,1,3.41,1.39,5,5,0,0,1,1.27,3.54q0,4.68-3.84,4.68a3.4,3.4,0,0,1-2.34-.72,2.65,2.65,0,0,1-.92-1.62,4.67,4.67,0,0,0-.52-1.62,1.3,1.3,0,0,0-1.2-.72c-1.22,0-1.84,1.59-1.84,4.78v9.26a3.44,3.44,0,0,0,1.32,2.47c.88.81,1.32,1.42,1.32,1.82v.2c0,.63-.4.94-1.19.94H221.74c-.8,0-1.2-.31-1.2-.94V257a3.55,3.55,0,0,1,1-1.82,3.91,3.91,0,0,0,1-2.47v-9.91a2.54,2.54,0,0,0-.59-1.69,10.44,10.44,0,0,0-1.2-1.2,1.41,1.41,0,0,1-.6-1.09v-.15c0-.57.38-1,1.15-1.45l7-3.28c.67-.23,1.13-.25,1.4-.05a1.37,1.37,0,0,1,.39,1.14v3.64A6.68,6.68,0,0,1,237,233.7Z"/><path class="cls-1" d="M244.25,258.1c-.8,0-1.2-.31-1.2-.94V257a3.74,3.74,0,0,1,1-1.84,4,4,0,0,0,1-2.5v-9.46a4,4,0,0,0-1-2.51,3.9,3.9,0,0,1-1-1.67v-.2c0-.4.39-.78,1.15-1.15l7.52-3.68a1.82,1.82,0,0,1,1.64-.1A1.21,1.21,0,0,1,254,235v17.63a3.79,3.79,0,0,0,1.12,2.5A3.54,3.54,0,0,1,256.2,257v.2c0,.63-.41.94-1.24.94Zm5.33-26.84a6,6,0,0,1-4.13-1.42,4.77,4.77,0,0,1,0-7.13,6,6,0,0,1,4.13-1.42,5.93,5.93,0,0,1,4.08,1.42,4.77,4.77,0,0,1,0,7.13A5.93,5.93,0,0,1,249.58,231.26Z"/><path class="cls-1" d="M283.6,252.67a3.91,3.91,0,0,0,1,2.47,3.55,3.55,0,0,1,1,1.82v.2c0,.63-.38.94-1.14.94h-7.13c-.86,0-1.29-.41-1.29-1.24v-.45A8.54,8.54,0,0,1,270,258.6a11.56,11.56,0,0,1-8.29-3.31q-3.46-3.31-3.46-9.14a12.17,12.17,0,0,1,3.48-8.94A11.33,11.33,0,0,1,270,233.7a9,9,0,0,1,5.13,1.39v-6.62a2.49,2.49,0,0,0-.65-1.72,10.2,10.2,0,0,0-1.32-1.25,1.45,1.45,0,0,1-.67-1.12v-.15c0-.63.38-1.06,1.15-1.29l7.77-2.34c1.46-.47,2.19-.07,2.19,1.19Zm-11.66,3.49a2.69,2.69,0,0,0,2.27-1.09,4.84,4.84,0,0,0,.92-3.09v-9.62a7.22,7.22,0,0,0-1.37-4.3,3.85,3.85,0,0,0-3.11-1.92q-3.69,0-3.94,6.12a26.66,26.66,0,0,0,.43,5.43,21.73,21.73,0,0,0,1.79,5.76C269.78,255.22,270.78,256.13,271.94,256.16Z"/><path class="cls-1" d="M311.39,252.67a5.08,5.08,0,0,0,.57,1.92,2.26,2.26,0,0,0,.85.92,3.64,3.64,0,0,1,.77.5.93.93,0,0,1,.35.75c0,1.09-1.87,1.64-5.63,1.64a8.06,8.06,0,0,1-3.41-.55,2.55,2.55,0,0,1-1.42-1.84q-1.89,2.6-6.32,2.59a11.14,11.14,0,0,1-6.8-1.94,6.57,6.57,0,0,1-2.62-5.63,6.71,6.71,0,0,1,2.59-5.6,10,10,0,0,1,6.38-2,9.67,9.67,0,0,1,5,1.25v-.15a33.67,33.67,0,0,0-1.12-6.68,2.38,2.38,0,0,0-2.42-1.74,2.13,2.13,0,0,0-1.84,1,7.37,7.37,0,0,0-1,2.29,5.7,5.7,0,0,1-1.22,2.3,3,3,0,0,1-2.39,1,3.61,3.61,0,0,1-2.52-.89,3,3,0,0,1-1-2.35,4.67,4.67,0,0,1,2.89-4.35,15.44,15.44,0,0,1,7.07-1.47,12.48,12.48,0,0,1,8.25,2.71,11,11,0,0,1,3.86,7.35Zm-11.5,3.39a2.15,2.15,0,0,0,1.86-1.09,4.44,4.44,0,0,0,.73-2.49l-.2-2.3q-.51-4.12-3.09-4.13a2.19,2.19,0,0,0-1.84.92,4,4,0,0,0-.7,2.47,11.3,11.3,0,0,0,.87,4.7Q298.39,256.06,299.89,256.06Z"/><path class="cls-1" d="M339.48,234.2c.77,0,1.15.31,1.15.94v.2a3.65,3.65,0,0,1-1.12,2,9.62,9.62,0,0,0-1.57,2.34L328.53,260c-.47,1.06-.93,2-1.37,2.76a29.53,29.53,0,0,1-1.85,2.74,8.51,8.51,0,0,1-2.76,2.44,7.06,7.06,0,0,1-3.44.87,9,9,0,0,1-5.7-1.74,5.06,5.06,0,0,1-2.22-4,3.44,3.44,0,0,1,.95-2.54,3.49,3.49,0,0,1,2.59-.94,3.25,3.25,0,0,1,2.56,1,4.69,4.69,0,0,1,1.15,2.27,10.7,10.7,0,0,0,.67,2.27c.3.69.7,1,1.2,1q1.94,0,4.68-6.47l-10.11-20a12.25,12.25,0,0,0-1.67-2.31,3.59,3.59,0,0,1-1.12-2.07v-.2c0-.63.38-.94,1.14-.94h10.71c.73,0,1.1.33,1.1,1v.2a2.11,2.11,0,0,1-.45,1.15,4,4,0,0,0-.6,1.19,4.51,4.51,0,0,0,.35,2.09l5.08,12L334,240.67c.37-1.23.38-2.08,0-2.56a7.6,7.6,0,0,0-1.44-1.47c-.62-.5-.93-.92-.93-1.25v-.2c0-.66.38-1,1.15-1Z"/><path class="cls-1" d="M364.84,235.69a13.45,13.45,0,0,1,8.51,2.86,9.44,9.44,0,0,1,3.69,7.9,11.06,11.06,0,0,1-3.91,8.74A14.9,14.9,0,0,1,363,258.6q-6,0-9.36-2a6.14,6.14,0,0,1-3.39-5.43,3.83,3.83,0,0,1,1.27-3.16,4.75,4.75,0,0,1,3.07-1,3.16,3.16,0,0,1,2.21.84,6.27,6.27,0,0,1,1.47,2c.37.8.74,1.6,1.12,2.4a6.66,6.66,0,0,0,1.5,2,3.1,3.1,0,0,0,2.16.85,4.05,4.05,0,0,0,3.42-1.85,9.78,9.78,0,0,0,1.32-5.63q0-8.46-5.78-8.46a8.5,8.5,0,0,0-5.28,2.14,2.93,2.93,0,0,1-3.07.45,2,2,0,0,1-1.51-2.2L354,223.83a1.19,1.19,0,0,1,1.34-1.09H374.5a1.1,1.1,0,0,1,1.24,1.24v4.64a1.09,1.09,0,0,1-1.24,1.24H357.56l-1.19,8.77A13.21,13.21,0,0,1,364.84,235.69Z"/><path class="cls-1" d="M389.94,258.6a7.63,7.63,0,0,1-5.95-2.39c-1.45-1.59-2.17-3.87-2.17-6.82V237.58h-1.89a1.12,1.12,0,0,1-.82-.32,1.11,1.11,0,0,1-.33-.82v-1.1a1,1,0,0,1,1.15-1.14h.94a6,6,0,0,0,3.94-1.37,6.37,6.37,0,0,0,2.14-3.66c.17-.87.62-1.3,1.35-1.3h1.14c.9,0,1.35.43,1.35,1.3v5h5.13a1.1,1.1,0,0,1,.82.32,1.14,1.14,0,0,1,.32.82v1.1a1.1,1.1,0,0,1-1.14,1.14h-5.13v12a2.82,2.82,0,0,0,.64,2,2.06,2.06,0,0,0,1.6.73,3.66,3.66,0,0,0,3.29-1.85,1.25,1.25,0,0,1,.79-.52,1,1,0,0,1,.77.17.83.83,0,0,1,.33.7,7.82,7.82,0,0,1-2.22,5.51A7.91,7.91,0,0,1,389.94,258.6Z"/><path class="cls-1" d="M426.2,252.62a5,5,0,0,0,.95,2.47A3.84,3.84,0,0,1,428,257v.2c0,.63-.4.94-1.19.94h-9.91c-.8,0-1.2-.31-1.2-.94V257a3.84,3.84,0,0,1,.92-1.84,3.83,3.83,0,0,0,.87-2.5l-.49-9.26a12.71,12.71,0,0,0-1-4.91A2.64,2.64,0,0,0,413.5,237a2.71,2.71,0,0,0-2.42,1.3,6.62,6.62,0,0,0-.82,3.54v10.85a3.7,3.7,0,0,0,1.12,2.47A3.44,3.44,0,0,1,412.5,257v.2c0,.63-.4.94-1.19.94H400.5c-.77,0-1.15-.31-1.15-.94V257a3.5,3.5,0,0,1,1.1-1.82,3.72,3.72,0,0,0,1.1-2.47V229.56a3,3,0,0,0-1.23-2.34c-.81-.7-1.22-1.24-1.22-1.64v-.15c0-.6.39-1.06,1.15-1.4l7.87-3.48a1.45,1.45,0,0,1,1.37-.1,1.19,1.19,0,0,1,.52,1.14V236a8,8,0,0,1,6.08-2.34,9.34,9.34,0,0,1,6.37,2.36q2.7,2.37,3.09,7.6Z"/><path class="cls-1" d="M454.84,258.6A19.44,19.44,0,0,1,444,255.81q-4.27-2.79-4.28-6.27t3.58-3.54a3.69,3.69,0,0,1,2.54,1,8.74,8.74,0,0,1,1.85,2.34c.5.92,1,1.83,1.59,2.74a7.31,7.31,0,0,0,2.34,2.32,6.5,6.5,0,0,0,3.54.94,5.13,5.13,0,0,0,3.46-1.09,3.79,3.79,0,0,0,1.27-3,5,5,0,0,0-1.07-3.26,6.94,6.94,0,0,0-2.79-2,29.74,29.74,0,0,0-3.81-1.3c-1.39-.38-2.79-.83-4.18-1.34a18.82,18.82,0,0,1-3.81-1.9,8.22,8.22,0,0,1-2.82-3.23,10.92,10.92,0,0,1-1.09-5.06,9.52,9.52,0,0,1,3.68-7.77q3.69-3,9.81-3A18.24,18.24,0,0,1,464,225c2.77,1.81,4.14,3.87,4.11,6.2a3.58,3.58,0,0,1-1,2.66,3.82,3.82,0,0,1-2.82,1,4.18,4.18,0,0,1-2.79-1,7.25,7.25,0,0,1-1.81-2.31l-1.35-2.72a7.11,7.11,0,0,0-1.84-2.34,4.34,4.34,0,0,0-2.87-1,4.59,4.59,0,0,0-3.43,1.22,4.31,4.31,0,0,0-1.2,3.16,6,6,0,0,0,1.07,3.61,7.14,7.14,0,0,0,2.79,2.27,29.49,29.49,0,0,0,3.81,1.42c1.4.41,2.78.87,4.16,1.37a19.83,19.83,0,0,1,3.79,1.82,8,8,0,0,1,2.79,3.06,10.14,10.14,0,0,1,1.07,4.83,8.74,8.74,0,0,1-4,7.52A16.49,16.49,0,0,1,454.84,258.6Z"/><path class="cls-1" d="M491.65,250.23a1.12,1.12,0,0,1,1.22-.32.89.89,0,0,1,.62,1c-.07,1.66-1,3.36-2.89,5.08a10.18,10.18,0,0,1-7.22,2.59,11.93,11.93,0,0,1-8.87-3.48,12.45,12.45,0,0,1-3.43-9.12,11.7,11.7,0,0,1,3.61-8.84,12,12,0,0,1,8.64-3.46c3,0,5.36.69,7,2.09a6.09,6.09,0,0,1,2.49,4.73,3.25,3.25,0,0,1-1.94,3.09L481,249.19a6.37,6.37,0,0,0,5.68,3.24,6.86,6.86,0,0,0,2.91-.63A5.08,5.08,0,0,0,491.65,250.23Zm-9.22-14.09a2.76,2.76,0,0,0-2.41,1.49,7,7,0,0,0-.92,3.74,16.84,16.84,0,0,0,.74,5.23l4.64-2.79a2.92,2.92,0,0,0,1.29-2.54,7.88,7.88,0,0,0-.82-3.39A2.67,2.67,0,0,0,482.43,236.14Z"/><path class="cls-1" d="M511.07,233.7a12,12,0,0,1,8.2,3.16q3.56,3.16,3.56,8.89a12.79,12.79,0,0,1-3.46,9.29,11.16,11.16,0,0,1-8.3,3.56,8.61,8.61,0,0,1-5.08-1.44v6a3.7,3.7,0,0,0,1.12,2.47,3.44,3.44,0,0,1,1.12,1.82v.2c0,.63-.39.94-1.19.94H496.48c-.8,0-1.2-.31-1.2-.94v-.2a3.63,3.63,0,0,1,1-1.82,3.92,3.92,0,0,0,1-2.47V242.76a2.87,2.87,0,0,0-1.2-2.16c-.8-.68-1.19-1.24-1.19-1.67v-.25c0-.53.38-1,1.14-1.45l6.58-3.23a1.86,1.86,0,0,1,1.59-.15,1.23,1.23,0,0,1,.5,1.14v1.45C506,234.61,508.12,233.7,511.07,233.7Zm-.79,22.46q3.78,0,3.78-6.28a38.74,38.74,0,0,0-.47-6,17.86,17.86,0,0,0-1.7-5.38c-.81-1.6-1.78-2.39-2.91-2.39a2.58,2.58,0,0,0-2.17,1.09,4.66,4.66,0,0,0-.82,2.84v9a9.1,9.1,0,0,0,1.3,5.08A3.62,3.62,0,0,0,510.28,256.16Z"/><path class="cls-1" d="M535.53,258.6a7.63,7.63,0,0,1-5.95-2.39c-1.45-1.59-2.17-3.87-2.17-6.82V237.58h-1.89a1.12,1.12,0,0,1-.82-.32,1.11,1.11,0,0,1-.33-.82v-1.1a1,1,0,0,1,1.15-1.14h.94a6,6,0,0,0,3.94-1.37,6.42,6.42,0,0,0,2.14-3.66c.17-.87.61-1.3,1.35-1.3H535c.9,0,1.35.43,1.35,1.3v5h5.13a1.1,1.1,0,0,1,.82.32,1.14,1.14,0,0,1,.32.82v1.1a1.1,1.1,0,0,1-1.14,1.14h-5.13v12a2.82,2.82,0,0,0,.64,2,2,2,0,0,0,1.6.73,3.65,3.65,0,0,0,3.28-1.85,1.29,1.29,0,0,1,.8-.52,1,1,0,0,1,.77.17.83.83,0,0,1,.33.7,7.82,7.82,0,0,1-2.22,5.51A7.91,7.91,0,0,1,535.53,258.6Z"/><path class="cls-1" d="M565.46,250.23a1.13,1.13,0,0,1,1.22-.32.9.9,0,0,1,.63,1c-.07,1.66-1,3.36-2.89,5.08a10.18,10.18,0,0,1-7.22,2.59,11.93,11.93,0,0,1-8.87-3.48,12.46,12.46,0,0,1-3.44-9.12,11.73,11.73,0,0,1,3.61-8.84,12.05,12.05,0,0,1,8.65-3.46c3,0,5.36.69,7,2.09a6.09,6.09,0,0,1,2.49,4.73,3.26,3.26,0,0,1-1.94,3.09l-9.91,5.58a6.37,6.37,0,0,0,5.67,3.24,6.94,6.94,0,0,0,2.92-.63A5,5,0,0,0,565.46,250.23Zm-9.21-14.09a2.77,2.77,0,0,0-2.42,1.49,7.05,7.05,0,0,0-.92,3.74,16.53,16.53,0,0,0,.75,5.23l4.63-2.79a2.93,2.93,0,0,0,1.3-2.54,7.89,7.89,0,0,0-.83-3.39A2.65,2.65,0,0,0,556.25,236.14Z"/><path class="cls-1" d="M611.59,252.67a5.19,5.19,0,0,0,.94,2.5,3.91,3.91,0,0,1,.85,1.84v.2c0,.63-.4.94-1.2.94h-10c-.79,0-1.19-.31-1.19-.94V257a3.79,3.79,0,0,1,.94-1.8,3.65,3.65,0,0,0,.85-2.54l-.5-8.81a14.42,14.42,0,0,0-1-5.31,2.61,2.61,0,0,0-2.44-1.57,2.57,2.57,0,0,0-2.3,1.3,6.51,6.51,0,0,0-.79,3.44,14.59,14.59,0,0,1,.15,2.09v8.86a4.34,4.34,0,0,0,.89,2.5,3.84,3.84,0,0,1,.9,1.84v.2c0,.63-.4.94-1.2.94h-9.91c-.79,0-1.19-.31-1.19-.94V257a3.9,3.9,0,0,1,.87-1.84,4.38,4.38,0,0,0,.87-2.5v-9.46q0-6.22-3.39-6.23a2.81,2.81,0,0,0-2.49,1.3,6.23,6.23,0,0,0-.84,3.44v10.95a3.83,3.83,0,0,0,1.09,2.5,3.61,3.61,0,0,1,1.1,1.84v.2c0,.63-.4.94-1.2.94H570.69c-.79,0-1.19-.31-1.19-.94V257a3.56,3.56,0,0,1,1.09-1.84,3.84,3.84,0,0,0,1.1-2.5v-9.81a2.43,2.43,0,0,0-.67-1.72,17.09,17.09,0,0,0-1.32-1.27,1.52,1.52,0,0,1-.65-1.14v-.15c0-.43.4-.85,1.2-1.25l7.47-3.43a1.27,1.27,0,0,1,1.39,0,1.43,1.43,0,0,1,.5,1.19v1.79a7.67,7.67,0,0,1,6.62-3.18q5.53,0,8.17,4.08a7.11,7.11,0,0,1,2.94-3,9,9,0,0,1,4.43-1.07,8.67,8.67,0,0,1,6.21,2.44c1.71,1.63,2.69,4.3,3,8Z"/><path class="cls-1" d="M631,233.7a12,12,0,0,1,8.2,3.16q3.55,3.16,3.56,8.84a12.91,12.91,0,0,1-3.46,9.32,11.14,11.14,0,0,1-8.3,3.58,8.45,8.45,0,0,1-6-2.19v.45a1.15,1.15,0,0,1-1.3,1.29l-7.52,0c-.76,0-1.15-.31-1.15-.94V257a3.63,3.63,0,0,1,1-1.82,4,4,0,0,0,1-2.52V230a3.26,3.26,0,0,0-1.22-2.41c-.82-.75-1.22-1.32-1.22-1.72v-.2c0-.53.44-1,1.34-1.4l7.67-3.53a1.88,1.88,0,0,1,1.64-.2,1.29,1.29,0,0,1,.7,1.34v13.35A8.15,8.15,0,0,1,631,233.7Zm-.79,22.46q3.78,0,3.78-6.28a38.74,38.74,0,0,0-.47-6,17.86,17.86,0,0,0-1.7-5.38c-.81-1.6-1.78-2.39-2.91-2.39a2.54,2.54,0,0,0-2.17,1.17,5.56,5.56,0,0,0-.82,3.21v9.66a7,7,0,0,0,1.32,4.14A3.69,3.69,0,0,0,630.17,256.16Z"/><path class="cls-1" d="M665.43,250.23a1.12,1.12,0,0,1,1.22-.32.89.89,0,0,1,.62,1c-.06,1.66-1,3.36-2.89,5.08a10.16,10.16,0,0,1-7.22,2.59,11.9,11.9,0,0,1-8.86-3.48,12.42,12.42,0,0,1-3.44-9.12,11.7,11.7,0,0,1,3.61-8.84,12,12,0,0,1,8.64-3.46c3,0,5.36.69,7,2.09a6.09,6.09,0,0,1,2.49,4.73,3.25,3.25,0,0,1-1.94,3.09l-9.91,5.58a6.37,6.37,0,0,0,5.68,3.24,6.86,6.86,0,0,0,2.91-.63A5,5,0,0,0,665.43,250.23Zm-9.22-14.09a2.76,2.76,0,0,0-2.41,1.49,7,7,0,0,0-.92,3.74,16.84,16.84,0,0,0,.74,5.23l4.64-2.79a2.92,2.92,0,0,0,1.29-2.54,7.88,7.88,0,0,0-.82-3.39A2.67,2.67,0,0,0,656.21,236.14Z"/><path class="cls-1" d="M686.05,233.7a4.37,4.37,0,0,1,3.41,1.39,5,5,0,0,1,1.27,3.54q0,4.68-3.83,4.68a3.38,3.38,0,0,1-2.34-.72,2.66,2.66,0,0,1-.93-1.62,4.47,4.47,0,0,0-.52-1.62,1.27,1.27,0,0,0-1.19-.72q-1.84,0-1.85,4.78v9.26a3.44,3.44,0,0,0,1.32,2.47c.88.81,1.32,1.42,1.32,1.82v.2c0,.63-.4.94-1.19.94H670.81c-.8,0-1.2-.31-1.2-.94V257a3.63,3.63,0,0,1,1-1.82,3.92,3.92,0,0,0,1-2.47v-9.91a2.5,2.5,0,0,0-.6-1.69,10.44,10.44,0,0,0-1.2-1.2,1.39,1.39,0,0,1-.59-1.09v-.15c0-.57.38-1,1.14-1.45l7-3.28c.67-.23,1.13-.25,1.4-.05a1.37,1.37,0,0,1,.4,1.14v3.64A6.68,6.68,0,0,1,686.05,233.7Z"/><path class="cls-1" d="M728.09,247.94a.94.94,0,0,1,1,1.2l-1.59,7.77c-.2.8-.61,1.19-1.24,1.19H702.14a1.36,1.36,0,0,1-.95-.35,1.09,1.09,0,0,1-.4-.84v-.65a10.92,10.92,0,0,1,1.77-5.8,25.07,25.07,0,0,1,4.29-5.21q2.5-2.34,5-4.55a28.57,28.57,0,0,0,4.26-4.69,8.25,8.25,0,0,0,1.77-4.8,6.71,6.71,0,0,0-1.1-4,3.18,3.18,0,0,0-2.64-1.52,2.23,2.23,0,0,0-1.84,1,9.35,9.35,0,0,0-1.25,2.4c-.33.93-.69,1.85-1.09,2.78a6.68,6.68,0,0,1-1.74,2.4,4.14,4.14,0,0,1-2.79,1,4.49,4.49,0,0,1-3.14-1.12,3.92,3.92,0,0,1-1.25-3.06q0-3.69,3.86-6.25a16.62,16.62,0,0,1,9.39-2.57q6.13,0,9.69,2.39t3.56,7.42a9.13,9.13,0,0,1-1.64,5.21,16.41,16.41,0,0,1-4.11,4.16c-1.65,1.16-3.32,2.26-5,3.29a36,36,0,0,0-4.76,3.38,9.45,9.45,0,0,0-2.89,3.69h12.8a4.22,4.22,0,0,0,3.61-1.92,10,10,0,0,1,.93-1.32,1.35,1.35,0,0,1,1-.6Z"/><path class="cls-1" d="M748,258.6a15,15,0,0,1-11.45-5q-4.63-5-4.64-13.08c0-5.54,1.46-10,4.36-13.32a14.71,14.71,0,0,1,11.68-5,14.89,14.89,0,0,1,11.51,5.13q4.63,5.13,4.63,13.25t-4.68,13A15.13,15.13,0,0,1,748,258.6Zm-2.74-6q1.8,2.68,4.09,2.68c1.52,0,2.73-.88,3.61-2.66s1.32-4.41,1.32-7.89a43.64,43.64,0,0,0-.87-8.72,23.75,23.75,0,0,0-2.64-7.27c-1.18-2-2.54-3-4.06-3s-2.83,1-3.71,2.91-1.32,4.81-1.32,8.59a40.36,40.36,0,0,0,.89,8.57A20.06,20.06,0,0,0,745.27,252.58Z"/><path class="cls-1" d="M794.38,247.94a1,1,0,0,1,.83.35,1,1,0,0,1,.17.85l-1.59,7.77c-.2.8-.62,1.19-1.25,1.19H768.43a1.34,1.34,0,0,1-.94-.35,1.06,1.06,0,0,1-.4-.84v-.65a10.92,10.92,0,0,1,1.77-5.8,25,25,0,0,1,4.28-5.21q2.52-2.34,5-4.55A28.05,28.05,0,0,0,782.4,236a8.25,8.25,0,0,0,1.77-4.8,6.7,6.7,0,0,0-1.09-4,3.18,3.18,0,0,0-2.64-1.52,2.25,2.25,0,0,0-1.85,1,9.33,9.33,0,0,0-1.24,2.4c-.33.93-.7,1.85-1.1,2.78a6.68,6.68,0,0,1-1.74,2.4,4.11,4.11,0,0,1-2.79,1,4.51,4.51,0,0,1-3.14-1.12,3.91,3.91,0,0,1-1.24-3.06c0-2.46,1.28-4.54,3.86-6.25a16.57,16.57,0,0,1,9.39-2.57q6.12,0,9.68,2.39t3.57,7.42a9.07,9.07,0,0,1-1.65,5.21,16.08,16.08,0,0,1-4.11,4.16q-2.46,1.74-5,3.29a35.9,35.9,0,0,0-4.75,3.38,9.27,9.27,0,0,0-2.89,3.69h12.8a4.1,4.1,0,0,0,2.24-.6,4,4,0,0,0,1.37-1.32,10,10,0,0,1,.92-1.32,1.35,1.35,0,0,1,1-.6Z"/><path class="cls-1" d="M812.51,235.69a13.5,13.5,0,0,1,8.52,2.86,9.44,9.44,0,0,1,3.69,7.9,11.09,11.09,0,0,1-3.91,8.74,14.9,14.9,0,0,1-10.14,3.41c-4,0-7.11-.68-9.36-2a6.14,6.14,0,0,1-3.39-5.43,3.8,3.8,0,0,1,1.27-3.16,4.75,4.75,0,0,1,3.06-1,3.18,3.18,0,0,1,2.22.84,6.58,6.58,0,0,1,1.47,2c.36.8.74,1.6,1.12,2.4a6.8,6.8,0,0,0,1.49,2,3.14,3.14,0,0,0,2.17.85,4,4,0,0,0,3.41-1.85,9.7,9.7,0,0,0,1.32-5.63q0-8.46-5.78-8.46a8.55,8.55,0,0,0-5.28,2.14,2.91,2.91,0,0,1-3.06.45,2,2,0,0,1-1.52-2.2l1.85-15.74a1.18,1.18,0,0,1,1.34-1.09h19.18a1.1,1.1,0,0,1,1.24,1.24v4.64a1.09,1.09,0,0,1-1.24,1.24H805.24l-1.19,8.77A13.18,13.18,0,0,1,812.51,235.69Z"/><path class="cls-1" d="M1.69,3.06H30.91a1.68,1.68,0,0,1,1.67,1.46L42.79,78.78a1.69,1.69,0,0,0,3.34,0L56.52,4.52a1.69,1.69,0,0,1,1.67-1.46h27a1.69,1.69,0,0,1,1.68,1.69V167.53a1.69,1.69,0,0,1-1.68,1.69H64.89a1.69,1.69,0,0,1-1.69-1.69V85.78a1.68,1.68,0,0,0-3.35-.24L48.22,167.77a1.69,1.69,0,0,1-1.67,1.45H39.43a1.69,1.69,0,0,1-1.67-1.45L25.91,85.19a1.68,1.68,0,0,0-3.35.24v82.1a1.69,1.69,0,0,1-1.69,1.69H1.69A1.69,1.69,0,0,1,0,167.53V4.75A1.69,1.69,0,0,1,1.69,3.06Z"/><path class="cls-1" d="M126.28,169.22H104.42a1.69,1.69,0,0,1-1.69-1.69V4.75a1.69,1.69,0,0,1,1.69-1.69H143.6c17,0,25.23,6.93,25.23,25.69V58.22c0,11.25-4.26,17-8.26,19.78a1.68,1.68,0,0,0,.06,2.84c4.47,2.66,8.2,7.19,8.2,16.69v58.29c0,6.62,1.23,9.56,2.31,12a1.69,1.69,0,0,1,.15.7v.75h-24a1.68,1.68,0,0,1-1.5-.9c-1-1.9-1.94-5.14-1.94-12.72v-50c0-7.37-1.34-10.5-9.38-10.5h-4.79A1.69,1.69,0,0,0,128,96.76v70.77A1.69,1.69,0,0,1,126.28,169.22ZM128,69.71a1.69,1.69,0,0,0,1.69,1.69h5c6.93,0,9.16-4.47,9.16-11.84V36.34c0-7.15-1.34-10.72-9.16-10.72h-5A1.69,1.69,0,0,0,128,27.31Z"/><path class="cls-1" d="M294,174.49a3,3,0,0,1-.59-.05c-5.49-1-11.88-2.6-18.22-8.41a.17.17,0,0,0-.23,0c-5.09,4.44-12,6.69-20.42,6.69h-4c-26.65,0-41.93-17.07-41.93-46.84v-8.26c0-17.29,6.55-31.89,19.45-43.41a.18.18,0,0,0,0-.22c-5.8-13-9.67-24.61-9.67-38.55V29.64C218.47,11.08,229.05,0,246.77,0h4.47C274.93,0,278,16.44,278,30.76v2.45c0,15.52-3.08,25.84-20.59,42.48a.21.21,0,0,0-.05.22l16.61,38.14a.17.17,0,0,0,.21.11c.14,0,.15-.11.15-.17,1-12,1-25.41.91-37.22,0-1.94,0-3.84,0-5.69a3.11,3.11,0,0,1,.92-2.25,3.17,3.17,0,0,1,2.26-.94h18.7a3.14,3.14,0,0,1,2.27,1,3.21,3.21,0,0,1,.92,2.31c-.63,27.58-1.81,52.11-9.93,73a.2.2,0,0,0,.07.22,18.44,18.44,0,0,0,9.76,4.75,3.17,3.17,0,0,1,2.1,1.46,3.22,3.22,0,0,1,.35,2.57l-5.52,19A3.18,3.18,0,0,1,294,174.49ZM275.12,163a3.18,3.18,0,0,1,2.14.83c5.75,5.27,11.42,6.68,16.74,7.67a.19.19,0,0,0,.21-.13l5.53-19.05a.25.25,0,0,0,0-.16.15.15,0,0,0-.11-.08,21.5,21.5,0,0,1-11.23-5.48,3.19,3.19,0,0,1-.83-3.53c7.94-20.43,9.1-44.68,9.72-72a.18.18,0,0,0-.06-.14.18.18,0,0,0-.13-.06h-18.7a.16.16,0,0,0-.13.06.13.13,0,0,0-.05.12c0,1.86,0,3.75,0,5.68.05,11.88.11,25.35-.92,37.49a3.19,3.19,0,0,1-6.1,1L254.58,77.1a3.18,3.18,0,0,1,.73-3.58C272.13,57.53,275,48.16,275,33.21V30.76C275,16.34,272.1,3,251.24,3h-4.47c-7.61,0-25.3,2.6-25.3,26.64v5.81c0,13.42,3.76,24.63,9.41,37.33a3.18,3.18,0,0,1-.79,3.68c-12.24,10.92-18.45,24.77-18.45,41.17v8.26c0,28.27,13.83,43.84,38.93,43.84h4c7.72,0,13.92-2,18.44-5.95A3.18,3.18,0,0,1,275.12,163Zm-20.31-11.7c-19,0-21.82-21.65-21.82-34.55v-3.35a60.29,60.29,0,0,1,2.45-17.56,3.18,3.18,0,0,1,5.92-.4L264.61,145c.05.12.1.23.14.35h0a3.19,3.19,0,0,1-1.44,3.78A17.12,17.12,0,0,1,254.81,151.29ZM238.48,96.6h0a.16.16,0,0,0-.15.11A57.77,57.77,0,0,0,236,113.39v3.35c0,20.64,6.5,31.55,18.82,31.55a14.18,14.18,0,0,0,7-1.73.19.19,0,0,0,.07-.22v0L238.65,96.71A.18.18,0,0,0,238.48,96.6Zm10.18-37.72h-.25a3.2,3.2,0,0,1-2.72-2c-3.24-8-5.11-14.24-5.11-22.56V31.2c0-9.54,4.46-11.55,8.2-11.55,7,0,8,5.73,8,11.33v3.57c0,9.34-.8,15.13-5.36,22.78A3.17,3.17,0,0,1,248.66,58.88Zm.12-36.23c-1.42,0-5.2,0-5.2,8.55v3.13c0,7.87,1.72,13.6,4.89,21.43a.18.18,0,0,0,.17.12.14.14,0,0,0,.17-.09c4.23-7.09,4.94-12.28,4.94-21.24V31C253.75,23.94,252.08,22.65,248.78,22.65Z"/><path class="cls-1" d="M342.92,3.06h29.22a1.68,1.68,0,0,1,1.67,1.46L384,78.78a1.69,1.69,0,0,0,3.34,0L397.75,4.52a1.69,1.69,0,0,1,1.67-1.46h27a1.69,1.69,0,0,1,1.68,1.69V167.53a1.69,1.69,0,0,1-1.68,1.69h-20.3a1.69,1.69,0,0,1-1.69-1.69V85.78a1.69,1.69,0,0,0-3.36-.24l-11.62,82.23a1.69,1.69,0,0,1-1.67,1.45h-7.12a1.69,1.69,0,0,1-1.67-1.45L367.14,85.19a1.69,1.69,0,0,0-3.36.24v82.1a1.69,1.69,0,0,1-1.68,1.69H342.92a1.69,1.69,0,0,1-1.69-1.69V4.75A1.69,1.69,0,0,1,342.92,3.06Z"/><path class="cls-1" d="M467.51,169.22H445.64a1.69,1.69,0,0,1-1.68-1.69V4.75a1.69,1.69,0,0,1,1.68-1.69h39.19c17,0,25.23,6.93,25.23,25.69V58.22c0,11.25-4.27,17-8.26,19.78a1.68,1.68,0,0,0,.06,2.84c4.47,2.66,8.2,7.19,8.2,16.69v58.29c0,6.62,1.23,9.56,2.31,12a1.69,1.69,0,0,1,.15.7v.75h-24a1.68,1.68,0,0,1-1.5-.9c-1-1.9-1.94-5.14-1.94-12.72v-50c0-7.37-1.34-10.5-9.38-10.5h-4.79a1.69,1.69,0,0,0-1.69,1.69v70.77A1.69,1.69,0,0,1,467.51,169.22Zm1.68-99.51a1.69,1.69,0,0,0,1.69,1.69h5c6.93,0,9.16-4.47,9.16-11.84V36.34c0-7.15-1.34-10.72-9.16-10.72h-5a1.69,1.69,0,0,0-1.69,1.69Z"/><path class="cls-1" d="M560.31,1.5c20.77,0,28.81,9.16,28.81,28.81V55.87a1.69,1.69,0,0,1-1.69,1.68h-21a1.69,1.69,0,0,1-1.69-1.68V33.66c0-5.58-1.11-9.83-7.14-9.83s-7.37,3.8-7.37,11.62v3.12C550.26,48,552,53.09,560.53,64L576.61,84.8c11.39,14.74,15,23,15,42v5.36c0,24.34-10.27,38.86-32.6,38.86h-4.92c-20.32,0-30.81-10.95-30.81-31.49V107.93a1.69,1.69,0,0,1,1.68-1.69h21.64a1.69,1.69,0,0,1,1.69,1.69v27.34c0,7.82,2.68,11.62,8.26,11.62,6,0,8.26-3.8,8.26-14.3V128.8c0-12.06-1.11-15.86-10.27-27.92L538.42,80.33c-10.72-13.84-13.85-24.56-13.85-41.09V33.88c0-22.33,11.17-32.38,31-32.38Z"/><path class="cls-1" d="M668.62,1.5c20.77,0,28.8,9.16,28.8,28.81V55.87a1.68,1.68,0,0,1-1.68,1.68h-21a1.69,1.69,0,0,1-1.69-1.68V33.66c0-5.58-1.11-9.83-7.14-9.83s-7.37,3.8-7.37,11.62v3.12c0,9.38,1.78,14.52,10.27,25.46L684.92,84.8c11.39,14.74,15,23,15,42v5.36c0,24.34-10.27,38.86-32.6,38.86h-4.92c-20.32,0-30.82-10.95-30.82-31.49V107.93a1.69,1.69,0,0,1,1.69-1.69h21.64a1.69,1.69,0,0,1,1.69,1.69v27.34c0,7.82,2.68,11.62,8.26,11.62,6,0,8.26-3.8,8.26-14.3V128.8c0-12.06-1.11-15.86-10.27-27.92L646.73,80.33C636,66.49,632.88,55.77,632.88,39.24V33.88c0-22.33,11.17-32.38,31-32.38Z"/><path class="cls-1" d="M756.5,96.86h21.42a1.69,1.69,0,0,1,1.69,1.69v36.72c0,17.87-6,36-30.15,36h-5.59c-25.68,0-31-18.31-31-35.06V34.78c0-17,7.37-33.28,30.15-33.28h5.81c27.69,0,30.82,18.31,30.82,34.62v28a1.69,1.69,0,0,1-1.69,1.69H756.5a1.69,1.69,0,0,1-1.68-1.69V36.56c0-7.14-2.24-10.94-8.49-10.94s-7.82,3.57-7.82,10.94v98.71q0,11.4,8,11.39c6,0,8.27-4.24,8.27-11.16V98.55A1.69,1.69,0,0,1,756.5,96.86Z"/><path class="cls-1" d="M862.46,132.15c0,23.22-7.82,39.08-32.16,39.08h-4.24c-24.12,0-32.61-15.86-32.61-39.08V39.69c0-23.23,8.49-38.19,32.38-38.19h4.25c24.56,0,32.38,15.19,32.38,38Zm-25.68-93.8q0-12.74-8.71-12.73c-6.48,0-8.94,4-8.94,12.73v105a1.7,1.7,0,0,0,1.14,1.59c13.83,5,16.51-1.68,16.51-11Z"/><path class="cls-1" d="M940.85,4.75V25.5a1.69,1.69,0,0,1-1.69,1.68H921.32a1.69,1.69,0,0,0-1.69,1.69V167.53a1.69,1.69,0,0,1-1.68,1.69H896.31a1.69,1.69,0,0,1-1.69-1.69V28.87a1.69,1.69,0,0,0-1.69-1.69H875.09a1.69,1.69,0,0,1-1.69-1.68V4.75a1.69,1.69,0,0,1,1.69-1.69h64.07A1.69,1.69,0,0,1,940.85,4.75Z"/><path class="cls-1" d="M1018.56,4.75V25.5a1.68,1.68,0,0,1-1.69,1.68H999a1.69,1.69,0,0,0-1.69,1.69V167.53a1.69,1.69,0,0,1-1.68,1.69H974a1.69,1.69,0,0,1-1.69-1.69V28.87a1.69,1.69,0,0,0-1.68-1.69H952.8a1.68,1.68,0,0,1-1.68-1.68V4.75a1.69,1.69,0,0,1,1.68-1.69h64.07A1.69,1.69,0,0,1,1018.56,4.75Z"/></svg>