<svg id="Layer_1" data-name="Layer 1" xmlns="http://www.w3.org/2000/svg" viewBox="0 0 740 931.27"><defs><style>.cls-1{fill:#899d8e;}.cls-2{fill:#6a7b6c;}.cls-3{fill:#4d6051;}</style></defs><path class="cls-1" d="M491.65,416.38a11.67,11.67,0,0,1-.35-1.53c-.21-1.73-1.79-2.37-2.73-3.52a4.94,4.94,0,0,0-4.69.55c-1.6,1.12-2.53,2.87-4.08,4a1.86,1.86,0,0,0-.5.9,59.66,59.66,0,0,1-2.82,6.77c-.82,1.44-1.39,3-2.31,4.39-1.06,1.55-1.83,3.24-2.82,4.82s-1.56,3.26-3.69,3.47c-.23,0-.37.21-.54.35a1.18,1.18,0,0,1-1.37.08,18.61,18.61,0,0,0-1.91-.82c-1.77-.92-3.36-.31-4.78.69-3.66,2.6-2.82,7.52-.45,9.91a11,11,0,0,0,1.33.82,2.08,2.08,0,0,1,.62.79c0,.08-.34.34-.51.53a5.17,5.17,0,0,0-.42.51c-1.13,1.65-2.55,3.06-3.74,4.67a28.24,28.24,0,0,1-2.7,3,18.65,18.65,0,0,1-2.44,2.16c-.42.29-.61.28-.94-.06a7.14,7.14,0,0,0-4.54-2.29,5,5,0,0,0-3.26.66,6.29,6.29,0,0,0-2.07,6.91c.38.91.38.91-.42,1.37-.23.12-.48.21-.71.31-2.4,1-4.77,2.13-7.21,3.05a19,19,0,0,0-3.58,1.86c-.94.59-1.74,1.43-2.7,2a14.18,14.18,0,0,0-1.81,1.49,22.13,22.13,0,0,1-3.06,2.65c-.11.07-.23.13-.35,0s-.08-.24,0-.34a8.48,8.48,0,0,0,1.32-2.11c.47-1.28,1.13-2.46,1.67-3.7,1-2.28,2.28-4.43,3.26-6.72,1.18-2.72,2.68-5.3,3.69-8.11.42-1.14,1-2.22,1.44-3.35.74-2,1.94-3.71,2.57-5.72.28-.88.31-.9,1.19-.52a8.73,8.73,0,0,0,3.8.72,3.88,3.88,0,0,0,2.82-1.17,5.16,5.16,0,0,0,1.29-4.24,5.06,5.06,0,0,0-3-4.24,6.61,6.61,0,0,0-1.68-.72c-.27,0-.34-.2-.24-.47.56-1.52,1.08-3.05,1.65-4.56.4-1.07.47-1.12,1.51-.85a5.27,5.27,0,0,0,3.43-.24,5.69,5.69,0,0,0,3.47-6.2,7.36,7.36,0,0,0-2.47-3.74c-.52-.5-1.34-.51-1.7-1.18a4.49,4.49,0,0,0,.67-2.19c0-.08.08-.16.1-.24.23-.84.39-1,1.13-.53a6.65,6.65,0,0,0,4.16.61,4.08,4.08,0,0,0,2.93-1.76,5.88,5.88,0,0,0,1-3.2,5,5,0,0,0-4.23-5.69c-.55-.12-1.09-.32-1.63-.48-.35-.1-.38-.29-.21-.58a5.27,5.27,0,0,0,.8-2.48c0-.6.32-.64.76-.57.21,0,.42.11.63.15a6.21,6.21,0,0,0,5.64-1.71,7,7,0,0,0,1-1.65c.8-1.48,1.24-3,.38-4.62a1.17,1.17,0,0,1-.15-.49,2.82,2.82,0,0,0-1.05-1.87c-1.31-1.21-2.75-2.28-4.76-2-.91.12-1.08-.19-.85-1.09a54.15,54.15,0,0,0,1.09-5.65c.33-2.25.46-4.52.75-6.78.23-1.72.62-3.44.1-5.19-.08-.27.09-.42.32-.46a4.23,4.23,0,0,1,1.16-.17,2.09,2.09,0,0,0,1.62-.72,4.86,4.86,0,0,1,.69-.6c1.93-1.4,2.34-3.46,2.36-5.65a2.9,2.9,0,0,0-.34-1.12c-.27-.55-.58-1.08-.9-1.6A5.23,5.23,0,0,0,452,359a8,8,0,0,0-4.79,4.32,3,3,0,0,0-.27,1.92,10.07,10.07,0,0,1-.08,3.79c-.06.34-.25.67-.12,1,.2.58-.13.62-.6.67a6.37,6.37,0,0,0-4.95,3,6,6,0,0,0,.44,6.6,9.29,9.29,0,0,0,3.09,2.16.8.8,0,0,1,.49.92c-.12,2-.66,3.88-.82,5.84,0,.38-.29.49-.67.34s-1-.34-1.48-.51a3.53,3.53,0,0,0-3,.32,6.43,6.43,0,0,0-3.37,5.5,6.27,6.27,0,0,0,.62,2.88,6.16,6.16,0,0,0,5.23,3.58,2.55,2.55,0,0,1,1.24.36,1.09,1.09,0,0,1,.58,1.53c-1.05,3.06-2,6.16-2.75,9.31-.15.62-.48.71-.93.46-1.24-.66-2.56-.43-3.86-.42a1.35,1.35,0,0,0-.63.14,5.94,5.94,0,0,0-3.33,5.66,5.14,5.14,0,0,0,2.63,4.57,9.67,9.67,0,0,0,1.67.88c1,.27.63.67.45,1.19-.86,2.48-1.74,4.95-2.7,7.39s-.32,2.3-3.05,1.7a7.55,7.55,0,0,0-3.9.56c-.81.23-1,1-1.48,1.52a4.16,4.16,0,0,0-1.29,2.62,13.84,13.84,0,0,0,.11,2.33c.1,2.12,1.43,3.36,3.05,4.42.33.21.68.39,1,.58s.38.34.1.6a1.81,1.81,0,0,0-.42.5c-1.51,3.1-2.72,6.32-4.17,9.45-1,2.09-1.89,4.19-2.89,6.26-.78,1.61-1.69,3.18-2.38,4.79-1.12,2.59-2.54,5-3.71,7.56-.74,1.62-1.6,3.2-2.4,4.79-.08.15-.08.37-.3.36s-.36-.24-.41-.45a1.59,1.59,0,0,1,0-.65,66.29,66.29,0,0,0,.68-7.71,2.37,2.37,0,0,1,1.37-2.11,5.16,5.16,0,0,0,2.86-5,5,5,0,0,0-1.63-3.73,5.76,5.76,0,0,0-1.37-1c-.75-.34-1.32-.84-1-1.83a3.89,3.89,0,0,0,0-1.44c-.41-4-.8-8.11-1.2-12.16a70.88,70.88,0,0,0-1-7.81c-.18-.87,0-1.16.77-1.55a4.56,4.56,0,0,0,1.63-6.7,6.13,6.13,0,0,0-4.17-2.58c-1.1-.18-1.12-.22-1.27-1.24-.08-.58-.52-1.34-.2-1.69s1.15-.35,1.75-.35a5.57,5.57,0,0,0,4.37-2.47c2.12-2.55,1.85-7.68-2.11-9.42-1.69-.74-3.43-1.08-5.15-.09a3.65,3.65,0,0,0-1.62,1.65c-.45,1-1.4,1.7-1.24,2.95.07.46-.41.48-.63.28a5,5,0,0,0-1.62-.82,4.36,4.36,0,0,0-5.3,1.32,11.15,11.15,0,0,1-.79.89,3.52,3.52,0,0,0-1,2.73,13.83,13.83,0,0,0,.24,2.21,5,5,0,0,0,2.57,3.56c1.38.8,2.8,1.59,4.51.9.41-.16.8-.12.8.49a6.83,6.83,0,0,0,.51,2.14,57.15,57.15,0,0,1,2.4,9.92,6,6,0,0,0,.24,1.44c0,.3.1.57.16.84-.81,0-1.33.7-2,1a5,5,0,0,0-3,3.9,5.86,5.86,0,0,0,1.43,5.34c1,1.24,2.48,1.58,3.92,1.94.95.24.95.23,1,1.19.09,1.39.14,2.78.3,4.16a4.05,4.05,0,0,1-.75,3,4.59,4.59,0,0,0-.75,3.76,7.25,7.25,0,0,0,1,2.53,2.63,2.63,0,0,1,.49,1.85c-.33,3.79-1,7.53-1.64,11.28-.53,3.15-1.39,6.22-2.13,9.32-.48,2-1.27,3.9-1.93,5.84a30.59,30.59,0,0,1-1.89,4.46,19,19,0,0,0-1.59,3.15c-.42,1.37-1.14,2.66-1.14,4.15a2.22,2.22,0,0,1-.26.88c-.87,1.95-1.7,3.91-2.41,5.93a3.37,3.37,0,0,0-.23,2.16,1.09,1.09,0,0,1-.1,1,9.37,9.37,0,0,0-1,2.11,31.63,31.63,0,0,0-2,4.42c-.69,2.16-1.24,4.36-2,6.49-.51,1.35-.76,2.79-1.27,4.14a100.37,100.37,0,0,0-3.51,10.28c-.71,2.72-1.23,5.47-1.92,8.19-.8,3.18-1.46,6.4-1.94,9.63-.74,5.12-1.91,10.14-2.85,15.22-.42,2.28-.89,4.54-1.3,6.82-.25,1.46-.12,3-.4,4.44a28.16,28.16,0,0,0-.55,3.76c-.21,3.67-.35,7.34-.52,11,0,.2.09.5-.24.49-.12,0-.3-.2-.35-.34a26.09,26.09,0,0,1-.91-3c-1-4.51-2.14-9-3.49-13.45-.67-2.21-1.36-4.41-2-6.62a40.81,40.81,0,0,1-1-4.35c-.26-1.41-.63-2.81-.87-4.23-.46-2.67-.77-5.37-1.4-8-.8-3.37-1.56-6.74-2.2-10.14q-.85-4.58-1.64-9.17c-.55-3.23-1-6.49-1.5-9.73s-.81-6.42-1.18-9.63c-.28-2.39-.46-4.78-.66-7.17-.26-3.08-.48-6.16-.84-9.23-.33-2.87-.4-5.76-.6-8.64-.18-2.67-.39-5.33-.56-8-.12-1.74-.1-3.51-.33-5.24-.44-3.3-.38-6.63-.66-9.94-.14-1.8.14-3.58.15-5.37,0-3.38,0-6.75.1-10.11,0-2,.13-4.09.22-6.13.09-2.27.1-4.55.31-6.81.35-3.71.47-7.43.8-11.13.19-2.19.23-4.39.59-6.54.65-3.93,1-7.89,1.7-11.82.51-3.06,1.25-6.06,1.93-9.08a26.82,26.82,0,0,1,2-5.39c.51-1.11.89-2.3,1.48-3.35,1.15-2,2.22-4.12,3.27-6.21s2.19-3.76,3.31-5.63c.69-1.14,1.06-2,2.11-3.56,0,0,0-.06.06-.09a15,15,0,0,0,1.75-3c.92-1.75,2.06-3.35,3.08-5,1.32-2.15,2.92-4.12,4.35-6.21,1.95-2.83,4-5.61,5.74-8.58.6-1,1.18-2,1.82-3,1-1.62,2.13-3.2,3.18-4.82.5-.76,1-1.55,1.41-2.35.63-1.16.79-1.2,1.85-.43a6,6,0,0,0,2.38,1.31,8.44,8.44,0,0,0,3.13,0,4.17,4.17,0,0,0,3.22-2c.27-.5.6-1,.83-1.49a5.2,5.2,0,0,0-.34-5.25,6.18,6.18,0,0,0-4-2.92c-.41-.08-.61-.4-.28-.77a16.35,16.35,0,0,0,1.4-2.2,56.26,56.26,0,0,0,3.86-6.35c.26-.55.52-1.11.77-1.66s.28-.5.72-.13a5.72,5.72,0,0,0,9-1.73c1.83-2.67,1-6.21-2.12-8.2a5.63,5.63,0,0,0-1.66-.75c-.55-.14-.54-.38-.29-.85,1-1.75,1.88-3.53,2.79-5.31.23-.44.52-.45.84-.2a10.65,10.65,0,0,0,1.68,1.23c1.8,1,3.54,1.44,5.57.4a6.65,6.65,0,0,0,3.28-3.33c1-2.23-.22-5.58-1.82-6.78a5.26,5.26,0,0,0-2.54-1c-.4-.05-1-.05-1-.43-.18-1-.82-1.89-.3-3a40.92,40.92,0,0,0,2.54-6.16,3.48,3.48,0,0,1,.91-1.41,9.71,9.71,0,0,0,1.48-2c.41-.74.45-.7,1.2-.34a6.14,6.14,0,0,0,7.26-1.41,6.3,6.3,0,0,0,1.33-3.74,5.77,5.77,0,0,0-1.7-4.86c-.34-.33-.85-.49-1.16-.83a3.85,3.85,0,0,0-2.15-1.08c-1-.22-.93-.27-.57-1.25a36.38,36.38,0,0,0,1.25-3.87c.46-1.91,1.05-3.78,1.55-5.68.14-.52.44-.54.75-.26a3.69,3.69,0,0,0,3.85.42,8,8,0,0,0,5-4.31,5.84,5.84,0,0,0,.23-5.09c-1.17-2.44-4.17-4.51-7.22-3.77a.92.92,0,0,1-1-.22,7.67,7.67,0,0,0-2.69-1.53c-2.53-1.25-5.1-.38-6.76,1.92a11,11,0,0,0-.63,1.57,4.7,4.7,0,0,0-.07,4.83c.19.35.24.7-.21.86A6.19,6.19,0,0,0,420,266.8c-1,2.06-.93,5.12.81,6.84a7.78,7.78,0,0,0,3.49,2.42c.72.18.53.34,0,.66-.22.14-.31.51-.41.8-.5,1.49-1,3-1.48,4.48-.38,1.15-.42,1.18-1.59,1.08a4,4,0,0,1-.52-.08,4.27,4.27,0,0,0-4.49,1.3,6,6,0,0,0-1.73,5.72c.38,1.7.81,3.46,2.73,4.23.55.22.67.56.22,1.1a3.77,3.77,0,0,0-.63,1.43c-.34,1.33-1.1,1.75-2.48,1.6-2.3-.24-3.88,1.18-4.8,3-1.16,2.29-1.66,5.29,1.45,7.91.36.3.27.5.09.87-1.21,2.42-2.34,4.87-3.57,7.28-.81,1.59-1.56,3.21-2.5,4.75a11.64,11.64,0,0,0-1.58,3.4c-.17.73-.46.79-1.16.43a9.85,9.85,0,0,0-3.14-.82,2.49,2.49,0,0,0-1.29.12,7.1,7.1,0,0,0-4.33,6.57,2.42,2.42,0,0,0,0,.66,6.49,6.49,0,0,0,3.07,4.3c.41.22.73.53.37.88-.68.67-.77,1.68-1.48,2.3-.37.32-.11,1.25-.86,1.11a4.71,4.71,0,0,1-1.52-.33c-.23-.13-.51-.12-.7-.34a.91.91,0,0,0-1.09-.22,12.61,12.61,0,0,0-2.57.95,5.17,5.17,0,0,0-2.09,2.08,6.55,6.55,0,0,0,1.19,7.54l.27.28c.25.27.44.52.12.9s-.25.57-.42.82c-1.78,2.53-3.41,5.16-5.07,7.77-1.35,2.14-2.62,4.34-4.13,6.37a15.1,15.1,0,0,0-1.75,2.41,37.53,37.53,0,0,1-3.21,4.77c-1.22,1.8-2.54,3.54-3.67,5.39-.41.67-.82,1.34-1.16,2-.66,1.38-1.64,2.56-2.27,4a22.37,22.37,0,0,1-2.4,4.19,4.79,4.79,0,0,0-.91,1.54,2.27,2.27,0,0,1-.83,1.16.41.41,0,0,1-.36,0,.22.22,0,0,1-.08-.33,3.38,3.38,0,0,0,.46-1.49,20.69,20.69,0,0,1,.42-2,9.55,9.55,0,0,0,.48-1.91,4.71,4.71,0,0,1,.36-1.81c.74-1.81.94-3.78,1.6-5.63,1.2-3.33,1.71-6.86,2.83-10.23a55.85,55.85,0,0,0,1.71-5.88c.42-2,1.17-3.95,1.53-6,.21-1.16.43-2.32.71-3.47,1-4,1.93-8.09,3-12.1.75-2.87,1.66-5.7,2.5-8.54.45-1.51.94-3,1.34-4.53a6.33,6.33,0,0,1,1.08-2.34A6.37,6.37,0,0,0,381,321.5a8.16,8.16,0,0,1,.49-3.44c.49-1.54.94-3.09,1.34-4.66a99.67,99.67,0,0,1,3-11.12c.48-1.28.57-2.65,1-3.93s.82-2.77,1.23-4.15c.26-.86.33-.93,1.16-.61a6.3,6.3,0,0,0,4.6,0c.24-.09.58-.11.71-.29.77-1.07,1.87-1.86,2.14-3.35.36-1.93.28-3.66-1.2-5.06a6.07,6.07,0,0,0-3.67-2.08,3.73,3.73,0,0,1-.63-.18c-.27-.07-.34-.22-.25-.48a29.82,29.82,0,0,0,1-4.59,2.26,2.26,0,0,1,.63-1.55,7.13,7.13,0,0,0,1.74-2.73c.26-.52,0-1.32.48-1.56a4.69,4.69,0,0,1,1.81-.09c.13,0,.26,0,.39,0a5.59,5.59,0,0,0,5.11-7.53,6.1,6.1,0,0,0-4.75-4.21c-.43-.1-.86-.13-1.28-.23s-.62-.27-.51-.63c.36-1.27.37-2.6.68-3.87a1.44,1.44,0,0,1,.71-.9,5.56,5.56,0,0,0,2.59-3.89c.23-1.59.34-3.2-1-4.53a2.3,2.3,0,0,1-.55-2.15,79.52,79.52,0,0,0,1.33-8c0-.56.22-.68.84-.47,1.08.38,2.21,1,3.39.22,2.56-.14,3.84-2,4.55-4,1.17-3.33-.49-6.67-4.36-7.8a8,8,0,0,0-2.33-.28c-.37,0-.72-.05-.58-.6a19.88,19.88,0,0,0,.71-4.79c0-.59.34-.64.78-.54.16,0,.32.14.48.19a5.76,5.76,0,0,0,7.67-4.42,5.17,5.17,0,0,0-1.48-4.92,9.65,9.65,0,0,0-5.48-2.48c-.54-.08-.66-.24-.61-.72a97.45,97.45,0,0,0,.51-10.1c0-.72.16-.85.86-.73a4.75,4.75,0,0,0,1.79.3c2.42-.44,4.43-1.43,5.62-3.77.73-1.41.48-4.9-.69-6.11a6.58,6.58,0,0,0-2.58-1.51c-1.36-.49-2.7-1.3-4.27-.64-.41.17-.56-.27-.46-.56a19.06,19.06,0,0,0,.31-1.94,12.57,12.57,0,0,0,.1-3l0-1.18a2.52,2.52,0,0,0,0-.39v-.69a5.17,5.17,0,0,1,1.23.15,4.71,4.71,0,0,0,5.21-1.41,3.42,3.42,0,0,1,.79-.67,2.59,2.59,0,0,0,1.1-1.44c.54-1.8,1.06-3.65.09-5.46a3.45,3.45,0,0,0-2.76-2.07c-1.11-.13-2.25-.16-3.35-.36a1.9,1.9,0,0,0-1.36.19,4.26,4.26,0,0,1-2.29.79c-.58,0-.93.48-1,1.15-.12,1.08-.12,1.07-1.13.75-.21-.06-.44-.05-.64-.12a29,29,0,0,0-3.58-.7,2.58,2.58,0,0,0-2.22.47c-1.16.92-2.63,1.47-3.46,2.78a6.08,6.08,0,0,0-.53,3.09l0,0c0,.1,0,.2,0,.3a1,1,0,0,0,.37.94,3.65,3.65,0,0,1,.86,1.13,6.13,6.13,0,0,0,1.63,1.62,6.7,6.7,0,0,0,5,1.45c.28,0,.45,0,.43.43-.15,2.26-.24,4.54-.39,6.8-.08,1.27.18,2.55-.5,3.78-.43.79-.32.94-1.14.53a3.36,3.36,0,0,0-2.56-.15c-1.27.39-2.14,1.46-3.18,2.24a.76.76,0,0,0-.28.56,4.15,4.15,0,0,1-.37,1.39,6.92,6.92,0,0,0-.21,2.85,7.12,7.12,0,0,0,2.19,3.77.18.18,0,0,0,.1.07c1.57.58,3,1.66,4.86,1,.42-.16.72,0,.66.63-.24,2.13-.4,4.27-.62,6.4-.42,4-.86,7.92-1.28,11.88-.07.61.07,1.43-.26,1.77s-1.2-.08-1.81-.19a3.15,3.15,0,0,0-2.61.53c-.7.53-1.41,1-2.12,1.54a2.09,2.09,0,0,0-.76.88,10.36,10.36,0,0,0-.72,4.74c.2,2.53,3.22,4.64,5.12,5.13a6.07,6.07,0,0,0,1.05,0c.29,0,.48.12.4.49-.21,1.11-.4,2.23-.58,3.35a30.88,30.88,0,0,0-.62,4.14,1.56,1.56,0,0,1-1.1,1.62,7.89,7.89,0,0,0-2.63,1.65,6.44,6.44,0,0,0-1.24,3.52,4.54,4.54,0,0,0,1.12,4,8.43,8.43,0,0,0,1.2,1.19c.52.38.91.72.43,1.38a.78.78,0,0,0-.07.38c-.32,2.71-.88,5.36-1.41,8-.09.47,0,1.06-.25,1.38s-.91,0-1.38.11c-.31,0-.6.13-.91.14-1,.06-1.49,1-2.3,1.43a2.64,2.64,0,0,0-1.24,1.45,8.09,8.09,0,0,1-.4,1,4.89,4.89,0,0,0-.43,3.39,6.32,6.32,0,0,0,3.47,4.48.91.91,0,0,1,.57,1.23c-.36,1.44-.7,2.89-1.05,4.34-.52,2.16-1,4.33-1.57,6.49-.32,1.32-.63,2.64-.9,4-.23,1.11-.27,1.17-1.37.93a3.69,3.69,0,0,0-2.43.1,5.6,5.6,0,0,0-3,2.92,5.38,5.38,0,0,0,1.6,6.7,7.39,7.39,0,0,0,1.16.58c.46.22.87.65.61,1.15a12.28,12.28,0,0,0-.75,2.76c-.59,2.29-1.27,4.55-1.92,6.81-.07.22-.16.41,0,.62s.52-.06.59.29l-.78,0h-1.71v0h-1.84a1.69,1.69,0,0,0-1,.2c-1.89,1.23-3.26,2.79-3.34,5.17,0,.7,0,1.4,0,2.11a5.47,5.47,0,0,0,3,4.56c1.31.53,1.42,1,.89,2.23a8.06,8.06,0,0,0-.42.95q-.81,2.83-1.66,5.64c-1,3.09-1.87,6.19-2.57,9.35-.36,1.58-.64,3.17-1,4.73-.6,2.4-1.12,4.83-1.74,7.24-.7,2.7-1.38,5.4-2.06,8.11-.47,1.87-1.24,3.64-1.64,5.53s-1,3.71-1.54,5.55-1,3.44-1.35,5.21a24.27,24.27,0,0,0-.67,2.8.37.37,0,0,1-.2.29c-.21.06-.29-.12-.32-.3a1.1,1.1,0,0,1,0-.26c-.23-2.66-.8-5.27-1.25-7.9a82.32,82.32,0,0,0-2-8.52c-.79-2.77-1.68-5.51-2.42-8.29-.44-1.61-1-3.17-1.51-4.74-.69-2.07-1.16-4.21-1.87-6.28-.39-1.17-.66-2.36-.93-3.55a16.1,16.1,0,0,0-1.28-4,23.49,23.49,0,0,1-1.4-3.37c-.53-1.56-.91-3.19-1.55-4.7-.79-1.85-1.53-3.71-2.16-5.61-.25-.74-.55-1.46-.79-2.21s-.38-.87.51-.93a4.55,4.55,0,0,0,.53,0,5.59,5.59,0,0,0,2.45-.74,6.61,6.61,0,0,0,1.8-2.16,5.3,5.3,0,0,0-1.5-6.95A7.63,7.63,0,0,0,341,313.6a4.12,4.12,0,0,0-3.4.3,6.34,6.34,0,0,1-.93.49c-.38.15-.73.05-.81-.39a22.17,22.17,0,0,0-.78-2.21c-1.11-3.82-2.16-7.66-3.22-11.49-.11-.38-.08-.77.4-.79,1.36-.07,2.1-1.26,3.21-1.8a3.63,3.63,0,0,0,1.47-2.55,6,6,0,0,0-3-6.78c-1.21-.7-2.53-.54-3.8-.79-1-.21-1-.12-1.35-1.19-.06-.21-.12-.42-.16-.64-.41-2.14-.84-4.29-1.2-6.45a8.58,8.58,0,0,1-.33-3.37,10,10,0,0,0,.41-4c-.06-.38.1-.57.5-.59,2.8-.15,4.29-2,5.2-4.32a5.22,5.22,0,0,0-.6-4.4,6.71,6.71,0,0,0-2.5-2.23,7.94,7.94,0,0,0-4.28-1c-.84,0-.82,0-.89-.9a32.63,32.63,0,0,0-.46-4.83c-.13-.55.31-.57.64-.41a5.62,5.62,0,0,0,3.69,0c2-.39,3.8-2.79,4-4.67a6.47,6.47,0,0,0-.43-3.18,4.85,4.85,0,0,0-2.47-2.55c-.33-.18-.78-.21-1-.48a2.51,2.51,0,0,0-1.81-.59c-.56,0-1.13,0-1.7,0-.78,0-.84,0-.63-.84.55-2.11.14-4.27.36-6.39,0-.28-.44-.6-.07-.79.19-.1.57.13.84.27s.32.3.5.42a6,6,0,0,0,4.68,1.09,5.62,5.62,0,0,0,3.89-2.67,7,7,0,0,0,1.11-4.19,8,8,0,0,1,.15-1.95,3.45,3.45,0,0,0-.68-3,4.62,4.62,0,0,0-4.35-1,2.89,2.89,0,0,1-1.13.32c-.54,0-.61-.1-.38-.57a6.34,6.34,0,0,0,1.05-3.07c-.2-2.21-.83-4.25-3.05-5.38a10.12,10.12,0,0,0-2.61-.81c-1.35-.28-2.6-.36-3.71.78-.5.52-1.15.86-1.54,1.54a6.47,6.47,0,0,0-.58,5.44c.18.52.05.65-.43.83a5.91,5.91,0,0,0-2.1,1,7.7,7.7,0,0,0-2.35,4.15c-.78,3,.83,5.8,3.71,7.45a13.44,13.44,0,0,0,1.85.63c.23.09.46.22.34.59a10.13,10.13,0,0,0-.21,3.64c0,.4-.13.46-.43.42a2,2,0,0,1-.63-.17,4.45,4.45,0,0,0-4.43.65,4.56,4.56,0,0,0-1.83,1.84,6.72,6.72,0,0,0-.25,5.92,5.18,5.18,0,0,0,2.22,2.63A6.05,6.05,0,0,0,318,251.7c.47,0,1-.3,1.4,0s.06,1,.11,1.49c.2,2.39.24,4.8.41,7.19.15,2,.33,4,.64,6,.1.7.08,1-.62,1.26a6.08,6.08,0,0,0-3.22,3.59,7,7,0,0,0-.05,4,2.22,2.22,0,0,0,.82,1.45c1.21,1,2.34,2.09,4,2.34a.89.89,0,0,1,.78,1,19.48,19.48,0,0,0,.06,3.15c.08.61,0,.85-.6,1.05a6,6,0,0,0-3.93,4.35,5.92,5.92,0,0,0,.41,4.79,8.18,8.18,0,0,0,2.25,2.54,3.92,3.92,0,0,0,2.51.92c.57,0,1.14,0,1.71-.05s.71.1.74.64a4.78,4.78,0,0,0,.42,2.17c.31.57-.07.74-.47.79a16.21,16.21,0,0,1-1.71,0c-.72,0-1.29.24-1.41,1.06a1,1,0,0,1-.41.65,4.1,4.1,0,0,0-1.49,3.34,6.53,6.53,0,0,0,.75,3.66c.4.64,1.39.84,1.31,1.81,0,.06.21.14.33.19a6.43,6.43,0,0,0,2.62.7,9.38,9.38,0,0,0,2.69-.47c.72-.21.87-.06,1.09.65.32,1,.67,2.08,1,3.11.81,2.36,1.68,4.69,2.43,7.07a78.92,78.92,0,0,0,2.68,7.61c.11.25.11.5-.11.53-1,.15-1.26,1.11-1.89,1.65-2.21,1.91-1.48,7,1.27,8a1.26,1.26,0,0,1,.45.26,3.36,3.36,0,0,0,2.66.83c.4,0,.79,0,1.18,0a.63.63,0,0,1,.72.57,21.71,21.71,0,0,0,1,2.63,33.57,33.57,0,0,1,1.58,4.69,18.81,18.81,0,0,0,.88,3.55,56.89,56.89,0,0,1,1.71,5.63,25.77,25.77,0,0,1,.87,2.47c.35,1.53.75,3.06,1.17,4.57.8,2.85,1.8,5.65,2.54,8.53.5,1.94.89,3.9,1.21,5.87a43.3,43.3,0,0,0,.76,4.39,14.82,14.82,0,0,1,.59,3.86c0,2.41.17,4.81.33,7.2.1,1.61.1,3.23.32,4.83.32,2.3.57,4.6.85,6.9a9.2,9.2,0,0,1,0,1.05,30.81,30.81,0,0,1-.48,4.69q-.42,3.06-.76,6.12c-.2,1.7-.39,3.39-.61,5.08-.29,2.21-.36,4.44-.55,6.66-.34,3.92-.7,7.84-1,11.76-.14,1.61-.21,3.23-.33,4.84-.28,3.49-.6,7-.66,10.48-.05,2.89-.08,5.77-.13,8.66-.1,5.16-.37,10.32-.23,15.48.09,3.42.37,6.82.73,10.22,0,.17.12.37-.11.41s-.26-.18-.31-.35c-.5-1.66-1-3.34-1.5-5-1.19-3.7-2.7-7.28-4.07-10.91s-2.72-7.1-4.33-10.54c-1.14-2.45-2-5-3.28-7.4-.87-1.71-1.62-3.48-2.51-5.19-1.27-2.43-2.61-4.83-3.92-7.25-.94-1.73-1.7-3.54-2.79-5.19-.24-.36-.68-.76-.64-1.1s.65-.6,1-.87a5.54,5.54,0,0,0,2.35-4.85,5,5,0,0,0-1-2.68,4.63,4.63,0,0,0-2.58-2.21,6.23,6.23,0,0,0-4,0c-1,.41-1.17.33-1.78-.67a20.58,20.58,0,0,0-1.77-2.9,17.29,17.29,0,0,1-2.63-4.16,4.87,4.87,0,0,0-1.12-1.43,6.37,6.37,0,0,1-1.58-1.73,5.94,5.94,0,0,0-1.36-1.75c-.44-.42-.42-.75.17-.86a6.21,6.21,0,0,0,1.81-1c2.8-1.6,2.87-5.35,1.53-7.32a5.94,5.94,0,0,0-3.17-2.56c-2.1-.66-4.13-.79-5.86.88a6.73,6.73,0,0,0-1.52,2.39c-.21.52-.51.67-1,.42a7.34,7.34,0,0,1-.73-.55,27.15,27.15,0,0,1-4.24-4.4,12.14,12.14,0,0,0-2.14-2.1,25.39,25.39,0,0,1-2.82-2.86,2.74,2.74,0,0,1-.57-1.58c-.05-.28,0-.42.3-.43s.62,0,.92,0a5.28,5.28,0,0,0,4.66-2.58,5.42,5.42,0,0,0-1.84-7.69,7.06,7.06,0,0,0-3.21-1.38.35.35,0,0,1-.36-.43c.18-2.58.38-5.15.54-7.72,0-.51.25-.7.72-.72a8.94,8.94,0,0,0,2.68-.48,4.65,4.65,0,0,0,2.84-2.9c.53-1.61.77-3.23-.26-4.79a6.12,6.12,0,0,0-3.82-2.71c-1.2-.28-1.38-.51-1.35-1.72a3.49,3.49,0,0,0,0-.65c-.09-.61.17-.76.74-.73s1.08.39,1.67.26c3.57-.78,5.54-2.63,5.44-6.52a5.24,5.24,0,0,0-1.84-3.93,6.57,6.57,0,0,0-3.85-1.71c-.42,0-.52-.24-.39-.62a11.88,11.88,0,0,0,.57-4c0-1.62.38-3.22.29-4.85,0-.43.16-.69.64-.54a13.66,13.66,0,0,0,1.68.27,5.54,5.54,0,0,0,5.26-2,6.07,6.07,0,0,0,1.48-3,5.65,5.65,0,0,0-1.13-4.69,13.74,13.74,0,0,0-2.66-2.1,1.36,1.36,0,0,0-.86-.28,27,27,0,0,0-3-.06c-.12,0-.27,0-.29-.13s.07-.15.14-.2a6.08,6.08,0,0,0,2.42-5.07c0-.36,0-.71,0-1.06a4.43,4.43,0,0,0-.95-2.8,6.4,6.4,0,0,0-4.65-2.77c-1.73-.14-3.42,0-4.51,1.66a3.09,3.09,0,0,1-.66.82,3.35,3.35,0,0,0-1.1,2.3,6.74,6.74,0,0,0,.06,3.62A6.4,6.4,0,0,0,293,328c.45.15.71.41.5,1a11,11,0,0,0-.7,2.51c-.5,4.34-.93,8.69-1.41,13-.06.46.07,1.05-.33,1.35s-.71-.23-1.12-.17a5.33,5.33,0,0,1-.78-.09c-1.83-.08-3.58,0-4.82,1.67l-.64.82a5.29,5.29,0,0,0-1.12,5.24,5.2,5.2,0,0,1,.27,1c.15,1.51,1.66,2.47,3,3.06a25.68,25.68,0,0,0,3.08,1c.31.09.45.19.39.53a54.65,54.65,0,0,0-.51,9.13c0,.51-.17.75-.64.79-.31,0-.62,0-.92,0a5.18,5.18,0,0,0-4.77,3.47,5.57,5.57,0,0,0,.15,4.48,2,2,0,0,0,.42.66,9.67,9.67,0,0,0,3.78,2.47,6.41,6.41,0,0,1,.75.21.48.48,0,0,1,.36.58,41.59,41.59,0,0,0-.44,6c0,1.92-.17,3.83-.18,5.75,0,.64-.28.62-.71.57a1.48,1.48,0,0,1-.47-.2c-2.68-1.24-5-3.15-7.56-4.57-1.29-.71-2.43-1.68-3.78-2.32a.64.64,0,0,1-.36-.86,3.73,3.73,0,0,1,.3-.87,5.21,5.21,0,0,0,.15-4.08,4.45,4.45,0,0,0-1.54-2.52,12.34,12.34,0,0,0-3.8-1.64,2,2,0,0,0-1.3.06c-1.26.46-2.61.76-3.48,1.94-.32.44-.68.41-1.13.12a14.52,14.52,0,0,0-3.54-1.67c-.2-.06-.36-.26-.55-.34-.6-.27-.42-.55,0-.84.1-.08.24-.12.32-.22,1.86-2.16,2.84-3.54,1.64-6.49a6,6,0,0,0-2.11-2.75,6.05,6.05,0,0,0-7.45.12.69.69,0,0,1-.93.11,7.14,7.14,0,0,0-.84-.38,5.38,5.38,0,0,0-5.13.25,6.18,6.18,0,0,0-1.69,1.77c-2.16,2.75-1.08,7.08,2.3,8.89.58.31.44.49.11.83a4.39,4.39,0,0,0-1.35,2,8.19,8.19,0,0,0,.51,5.26c1.17,2.69,5.36,4,8.17,2.42a5.13,5.13,0,0,0,2.27-2.29,8.61,8.61,0,0,0,.66-3.56c0-.47.08-.5.52-.35,1.16.41,2,1.32,3.13,1.8.37.17.19.53.05.8a4.64,4.64,0,0,0-.66,1.7,6,6,0,0,0,4.06,6.43,3.93,3.93,0,0,0,1,.2,5.59,5.59,0,0,0,4.5-2c.93-.95.89-.93,2.05-.14a41.13,41.13,0,0,0,3.92,2.83,8,8,0,0,1,2.14,1.22,8.13,8.13,0,0,0,2.74,1.74c2.37,1,4.49,2.49,6.76,3.68a1.29,1.29,0,0,1,.81,1.36c0,.26,0,.52,0,.78a80.85,80.85,0,0,0,.23,12.45c.07.64-.17.83-.78.91a4.61,4.61,0,0,0-2.69.82,6.15,6.15,0,0,0-2.49,4.41,5.45,5.45,0,0,0,3.12,5.62,5.09,5.09,0,0,0,3.13.55c.47-.08.78.07.77.61a38.44,38.44,0,0,0,.63,7.57.51.51,0,0,1-.27.63c-2,1.14-3.52,2.6-3.54,5.06,0,2.14.44,4.13,2.34,5.4a5.56,5.56,0,0,0,3.51,1.23c.49,0,1,.07.83.82a.72.72,0,0,0,.05.38c.77,2.1,1.21,4.29,1.85,6.42.92,3.09,2.12,6.1,3.11,9.17.67,2.08,1.57,4.08,2.37,6.1a10.36,10.36,0,0,0,1.48,3.33c.38.42.07.52-.29.51a2.52,2.52,0,0,0-1.85.55c-2,1.83-3.56,3.9-2.58,7.14a5.28,5.28,0,0,0,1.55,2.68,6.36,6.36,0,0,0,6.72,1.06c.91-.37,1.28-.24,1.55.68.78,2.6,2,5.05,2.84,7.61a12.68,12.68,0,0,0,1.3,2.7c1.13,1.71,2.19,3.46,3.25,5.21.36.6.24.77-.26,1.08a4.5,4.5,0,0,0-1.8,1.66,7.41,7.41,0,0,0-.8,3.27c0,2,.33,3.84,2.12,5.08.53.36,1.08.71,1.62,1a4.08,4.08,0,0,0,2.51.62,5.76,5.76,0,0,0,1.64-.38c1-.39,1.11-.27,1.62.63a22,22,0,0,0,2.13,3.74,1.43,1.43,0,0,1-.11,1.89,4.72,4.72,0,0,0-1.23,2.41,6.15,6.15,0,0,0,1.47,4.46,3.57,3.57,0,0,0,3,1.47,4.1,4.1,0,0,0,2-.44.6.6,0,0,1,.94.35,36,36,0,0,0,2.62,4.06c1,1.61,2.15,3.09,3,4.72,1.3,2.38,2.89,4.57,4.36,6.83,1,1.62,2,3.27,3.09,4.87,1.54,2.32,2.87,4.78,4.34,7.15,1,1.63,2.19,3.16,3.13,4.83s1.83,3.56,2.91,5.26a21.59,21.59,0,0,1,1.91,3.58,53.8,53.8,0,0,0,2.47,5.2c1.67,3.13,3.3,6.27,4.77,9.49.31.69.73,1.33,1,2,1,2.41,1.47,5,2.81,7.29,1,1.69,1.07,3.67,1.62,5.5s.93,3.91,1.46,5.85c.45,1.65,1.14,3.2,1.63,4.84.69,2.26,1.45,4.5,2.18,6.74s1.71,5.06,2.75,8c.67,1.82,1.31,3.64,2.09,5.41a49.72,49.72,0,0,1,2,5.35c5.74,14.08,14.55,31,29.18,45.16a37.3,37.3,0,0,0,4.07,3c1.31,1,2.86,1.64,4,2.93.17.21.44.28.64.43,1.09.79,2.34,1.31,3.41,2.16a9,9,0,0,0,4,2,9.53,9.53,0,0,1,2.9,1.11,4.89,4.89,0,0,0,2.67.43,2.28,2.28,0,0,0,1.91-3,3,3,0,0,0-2-1.79,8.52,8.52,0,0,1-2-1.19,11.49,11.49,0,0,0-2-1.44,16.13,16.13,0,0,1-4.59-2.92l-1.85-1.62c-1.33-1.17-2.88-2.12-3.88-3.64a1.75,1.75,0,0,0-.52-.59c-1.76-1.08-3-2.78-4.53-4.08a3.38,3.38,0,0,1-.91-.94c-.81-1.64-2.29-2.72-3.42-4.09s-2.35-3-3.49-4.56-2.28-3.14-3.41-4.71a70,70,0,0,1-5.77-9.81c-.7-1.68-2.14-2.94-2.58-4.75,0-.07-.11-.14-.18-.17-.57-.2-.68-.76-.95-1.2a34.38,34.38,0,0,0-2-3.23,5.26,5.26,0,0,1-1-2.12,12.39,12.39,0,0,0-1.14-3.6,3.28,3.28,0,0,1-.18-1,11.3,11.3,0,0,0-1.28-4.37,4.88,4.88,0,0,1-.6-1.72,22.26,22.26,0,0,0-.87-3.42,22.54,22.54,0,0,1-1.14-5.23,79.94,79.94,0,0,1-.59-9.42c0-3-.09-6,.08-9.07.23-4.19.69-8.37,1.29-12.53.26-1.82.32-3.66.75-5.45.73-3.1,1.53-6.18,2-9.33.27-1.86.68-3.71,1-5.57.8-5.28,2-10.47,3.18-15.67.24-1.06.54-2.11.79-3.17a46.27,46.27,0,0,1,1.55-5.68c.55-1.47,1.14-2.92,1.6-4.43.63-2.09,1.39-4.15,2.13-6.21a25.7,25.7,0,0,0,1.06-2.4c.29-1.18.63-2.35,1-3.51a33.3,33.3,0,0,1,1.22-3.3c.32-.72.83-1.43,1.12-2.18a20.46,20.46,0,0,1,1.75-3.65c1-1.65,1.46-3.53,2.39-5.23.66-1.19,1.17-2.52,1.74-3.79a54.87,54.87,0,0,1,3.08-5.76,80.9,80.9,0,0,1,4.66-7.09,31.44,31.44,0,0,1,6.21-6.63.94.94,0,0,0,.3-.26c1.06-1.77,2.91-2.71,4.38-4a54.2,54.2,0,0,1,5.64-4.19,15.67,15.67,0,0,1,3-2.09c.43-.16.75-.84,1.21-.54s.07.82.09,1.25a6.3,6.3,0,0,0,1.83,4.6,18.43,18.43,0,0,0,2.36,1.33,3.77,3.77,0,0,0,2.48.47c.51,0,.85-.41,1.33-.53,3.18-.86,4.34-5.12,3-7.92a5.6,5.6,0,0,0-2.65-2.74c-.14-.08-.33-.22-.35-.35,0-.31.31-.22.45-.35,1-.89,2.39-1.21,3.54-1.92,1.32-.82,2.71-1.57,4.08-2.33a10.91,10.91,0,0,0,3.27-2.09.75.75,0,0,1,1.17.09,4.24,4.24,0,0,0,2.57,1.17,5.26,5.26,0,0,0,4-.74,5.11,5.11,0,0,0,1.86-5.94,5,5,0,0,0-1.25-2.12c-.17-.16-.44-.4-.24-.67a19,19,0,0,1,2-2.53c.23-.22.54-.24.63.09.17.69.77,1,1.15,1.55,1.79,2.49,7,2.54,8.81-.39a6.7,6.7,0,0,0,.32-7.13c-.55-.86-.55-1,.37-1.45a3.45,3.45,0,0,0,1.9-2.37c.13-.51.33-1,.41-1.51.22-1.49.35-3-.76-4.22a6.1,6.1,0,0,1-.56-.89.71.71,0,0,1-.06-.74c.41-.82.74-1.67,1.21-2.45.62-1,.69-1,1.56-.34a6.56,6.56,0,0,0,1.13.62c2.34,1.19,4,1.42,6-.6l.21-.17a5.27,5.27,0,0,0,1.66-5.57,5.63,5.63,0,0,0-3.72-4.38c-.44-.15-.6-.26-.33-.69a2.64,2.64,0,0,0,.23-.61c.29-.83.28-.8,1.17-.63a8.64,8.64,0,0,0,3.12.3C490.38,422.37,492.14,418.46,491.65,416.38ZM358,564.54a.37.37,0,0,1-.32-.17c-.44-.8-.86-1.61-1.3-2.41-.92-1.69-1.81-3.39-2.79-5a45.36,45.36,0,0,0-2.7-4.15c-.67-.92-1.05-2-1.75-2.9s-1-1.83-1.65-2.63a5.51,5.51,0,0,1-1.17-2,2.89,2.89,0,0,0-.55-.89,14.22,14.22,0,0,1-1.28-2.12,40.87,40.87,0,0,0-2.32-3.79c-1.13-1.66-2.13-3.38-3.13-5.11a3.69,3.69,0,0,0-.47-.63,56,56,0,0,1-5-7.18c-1.06-1.69-2-3.47-3.14-5.12a35.4,35.4,0,0,0-2.12-3,33.2,33.2,0,0,1-2.35-3.6c-1.32-2.1-2.23-4.42-3.54-6.53a.84.84,0,0,1-.14-.48c.12-1.72-.89-2.95-1.78-4.23-.51-.73-.55-.75.15-1.2.48-.31.75-.86,1.3-1.06.08,0,.19-.09.21-.16.45-1.73,1.62-3.32,1.07-5.25a6.19,6.19,0,0,0-.48-1.35,2.34,2.34,0,0,1-.49-1.43c.05-.53-.38-.76-.76-1a5.63,5.63,0,0,0-3.88-1c-1.19.07-2.16-.12-3,.47-.33.21-.62.06-.74-.42a24.48,24.48,0,0,0-1.87-4.91c-.23-.47-.21-.64.18-1a5.49,5.49,0,0,0,1.42-7.48,6.42,6.42,0,0,0-5.32-3.12c-1.08-.09-1.15-.07-1.33-1.12a17.55,17.55,0,0,0-1.23-3c-.49-1.39-1.12-2.73-1.7-4.1,0-.08-.08-.15-.11-.23-.13-.32-.79-.29-.61-.7.08-.18.63-.16,1-.24a6.23,6.23,0,0,0,3.86-2.66,4.42,4.42,0,0,0,.79-1.77c.32-2.12.19-4.14-1.67-5.71a7.15,7.15,0,0,0-3.26-1.77,8.25,8.25,0,0,0-3.5.23c-1.06.22-1.07.26-1.36-.77-.76-2.78-1.5-5.57-2.29-8.35a11,11,0,0,1,.06-2.69c0-.49.47-.72.91-.82,1.77-.39,2.51-1.8,3.07-3.26a5.26,5.26,0,0,0-.07-4.08,4.39,4.39,0,0,0-1.62-2c-1.13-.67-2.13-1.76-3.64-1.59a.3.3,0,0,1-.13,0c-1.3-.21-1.26-.22-1.36-1.52-.25-3.27-.51-6.54-.8-9.81s-.37-6.64-.5-10c0-.61-.07-1.22-.08-1.83a.41.41,0,0,1,.17-.32c.13-.1.24,0,.33.11a53.9,53.9,0,0,1,4.13,4.15,20,20,0,0,0,3.2,2.82,22.93,22.93,0,0,1,5.64,5.52c.35.54.37.81-.05,1.19a5.32,5.32,0,0,0-1.63,3.34,5.66,5.66,0,0,0,3.09,5.83,8.58,8.58,0,0,0,5.12.48c1-.12,1.07-.2,1.47.73a8.93,8.93,0,0,0,.72,1.09,123.45,123.45,0,0,1,6.65,11.39,4.7,4.7,0,0,0,.38.53c.44.63.44.79-.24,1a2,2,0,0,0-1,.83c-.51.71-1,1.45-1.45,2.18a.89.89,0,0,0-.15.36c-.33,2.06.55,5.18,2.49,5.89a1,1,0,0,1,.61.46c.08.16.15.37.34.36,1-.06,2,.29,2.95-.25a1.8,1.8,0,0,1,.46-.23c.92-.25.68-.44,1.11.44.78,1.56,1.66,3.07,2.44,4.63,2.24,4.5,4.16,9.14,6.09,13.77,1.45,3.47,2.72,7,4.17,10.46a100,100,0,0,1,3.84,11.54c.72,2.56,1.55,5.1,2.28,7.66.77,2.73,1.48,5.48,2,8.28s1.12,5.4,1.81,8.06c.23.89.36,1.81.53,2.71,1.25,6.66,2.72,13.28,3.63,20,.66,4.9,1.49,9.77,2.44,14.62.55,2.79,1,5.6,1.76,8.34a1.27,1.27,0,0,1,0,.26C358.14,564.34,358.18,564.51,358,564.54Z"/><path class="cls-2" d="M125.69,680.32a1,1,0,0,1-.42-.09,1,1,0,0,1-.58-.91v-11a1,1,0,0,1,.35-.76l9.51-8L125,651.4a1,1,0,0,1-.34-.76v-10a1,1,0,0,1,1.64-.76l17,14.47H154a1,1,0,0,1,1,1v8.85a1,1,0,0,1-1,1H143.39l-17,14.88A1,1,0,0,1,125.69,680.32Zm1-11.51v8.31l15.66-13.67a1,1,0,0,1,.66-.25H153v-6.85H143a1,1,0,0,1-.65-.24L126.69,642.8v7.38l10.06,8.63a1,1,0,0,1,.35.76,1,1,0,0,1-.36.76Z"/><path class="cls-2" d="M140.31,640.7h-1.14c-6.83,0-15-3.63-15-20.91v-1.64c0-17.25,8.15-20.87,15-20.87h1.14c13.17,0,15.14,13.08,15.14,20.87v1.64C155.45,627.6,153.48,640.7,140.31,640.7Zm-1.14-41.42c-8.61,0-13,6.35-13,18.87v1.64c0,12.54,4.37,18.91,13,18.91h1.14c8.6,0,13.14-6.54,13.14-18.91v-1.64c0-12.34-4.54-18.87-13.14-18.87Zm.73,32.14h-.46c-3.84,0-8.41-2.15-8.41-12.43,0-10.82,5.27-12.44,8.41-12.44H140c2.59,0,8.6,1.21,8.6,12.44S142.5,631.42,139.9,631.42Zm-.46-22.87c-5.3,0-6.41,5.68-6.41,10.44,0,6.92,2.16,10.43,6.41,10.43h.46c4.36,0,6.67-3.6,6.67-10.43s-2.28-10.44-6.6-10.44Z"/><path class="cls-2" d="M139.4,592.63H125.69a1,1,0,0,1-1-1v-8.89a1,1,0,0,1,1-1h13.18c4.76,0,7.17-2.81,7.17-8.34,0-6.84-3.9-8.27-7.17-8.27H125.69a1,1,0,0,1-1-1v-8.86a1,1,0,0,1,1-1H139.4c2.67,0,16,.89,16,18.37V574C155.37,578.37,154.22,592.63,139.4,592.63Zm-12.71-2H139.4c4.2,0,14-1.62,14-16.63v-1.36c0-2.74-.67-16.37-14-16.37H126.69v6.86h12.18c2.76,0,9.17,1,9.17,10.27,0,3.11-.89,10.34-9.17,10.34H126.69Z"/><path class="cls-2" d="M154,535.76a1.06,1.06,0,0,1-.45-.11l-28.26-14.29a1,1,0,0,1-.55-.89V509a1,1,0,0,1,.52-.89L153.48,493a1,1,0,0,1,1,0,1,1,0,0,1,.48.85v9.54a1,1,0,0,1-.54.89l-4.62,2.38v15.9l4.61,2.27a1,1,0,0,1,.55.9v9a1,1,0,0,1-.47.85A1,1,0,0,1,154,535.76Zm-27.26-15.9L153,533.13v-6.76l-4.61-2.27a1,1,0,0,1-.55-.89V506.07a1,1,0,0,1,.54-.89L153,502.8v-7.26L126.69,509.6Zm15.71,1.19a1,1,0,0,1-.44-.1l-10.6-5.24a1,1,0,0,1,0-1.79L142,508.45a1,1,0,0,1,1,0,1,1,0,0,1,.48.86v10.71a1,1,0,0,1-.47.85A1,1,0,0,1,142.4,521.05ZM134,514.79l7.38,3.65V511Z"/><path class="cls-2" d="M154,489.5H125.69a1,1,0,0,1-1-1V465.7c0-6.05,1.44-13.27,8.33-13.27h.46a6.8,6.8,0,0,1,6.17,3.7,7.2,7.2,0,0,1,6.51-3.81h4.15c2.27,0,2.75-.28,2.95-.4a1,1,0,0,1,.5-.13H154a1,1,0,0,1,1,1v9a1,1,0,0,1-.38.79,3.59,3.59,0,0,1-2.4.63H148.9c-2.64,0-4,.75-4,4.89v10.55h9a1,1,0,0,1,1,1v8.85A1,1,0,0,1,154,489.5Zm-27.26-2H153v-6.85h-9a1,1,0,0,1-1-1V468.1c0-4.77,1.85-6.89,6-6.89h3.27a4.6,4.6,0,0,0,.78,0v-7a13.09,13.09,0,0,1-2.64.2h-4.15c-3.46,0-4.92,2.52-5.53,4.63a1,1,0,0,1-.95.73,1,1,0,0,1-1-.69c-1-3-2.75-4.56-5.24-4.56H133c-1.57,0-6.33,0-6.33,11.27Zm11-6.85h-5.54a1,1,0,0,1-1-1V466.24c0-3.37,1.93-4.58,3.73-4.58s3.81,1.21,3.81,4.58v13.41A1,1,0,0,1,137.65,480.65Zm-4.54-2h3.54V466.24c0-2.58-1.33-2.58-1.77-2.58-1.19,0-1.77.87-1.77,2.58Z"/><path class="cls-2" d="M154,447H125.69a1,1,0,0,1-1-1V416.21a1,1,0,0,1,1-1h6.42a1,1,0,0,1,1,1v20.05h2.18V416.71a1,1,0,0,1,1-1h6.46a1,1,0,0,1,1,1v19.55h2.63V415.83a1,1,0,0,1,1-1H154a1,1,0,0,1,1,1V446A1,1,0,0,1,154,447Zm-27.26-2H153V416.83h-4.57v20.43a1,1,0,0,1-1,1h-4.63a1,1,0,0,1-1-1V417.71h-4.46v19.55a1,1,0,0,1-1,1h-4.18a1,1,0,0,1-1-1V417.21h-4.42Z"/><path class="cls-2" d="M154,393.85H125.69a1,1,0,0,1-1-1V384a1,1,0,0,1,1-1H154a1,1,0,0,1,1,1v8.86A1,1,0,0,1,154,393.85Zm-27.26-2H153V385H126.69Z"/><path class="cls-2" d="M154,376.84H125.69a1,1,0,0,1-1-1V366a1,1,0,0,1,.28-.7l16.11-16.35H125.69a1,1,0,0,1-1-1v-8.74a1,1,0,0,1,1-1H154a1,1,0,0,1,1,1v8.74a1,1,0,0,1-.28.7L137.6,366.1H154a1,1,0,0,1,1,1v8.74A1,1,0,0,1,154,376.84Zm-27.26-2H153V368.1H135.22a1,1,0,0,1-.71-1.7L153,347.51v-7.34H126.69v6.74h16.78a1,1,0,0,1,.92.62,1,1,0,0,1-.21,1.09l-17.49,17.75Z"/><path class="cls-2" d="M125.69,334.66a1,1,0,0,1-.52-.14,1,1,0,0,1-.48-.86v-10a1,1,0,0,1,.55-.89l18.94-9.49-18.92-8.89a1,1,0,0,1-.57-.9v-9.2a1,1,0,0,1,1.43-.9L154.39,307a1,1,0,0,1,.56.9v11a1,1,0,0,1-.53.89l-28.27,14.7A1,1,0,0,1,125.69,334.66Zm1-10.41V332L153,318.35v-9.78l-26.26-12.71v7l20.2,9.5a1,1,0,0,1,.58.89,1,1,0,0,1-.55.91ZM154,319h0Z"/><path class="cls-2" d="M154,289.75H125.69a1,1,0,0,1-1-1V279.9a1,1,0,0,1,1-1H154a1,1,0,0,1,1,1v8.85A1,1,0,0,1,154,289.75Zm-27.26-2H153V280.9H126.69Z"/><path class="cls-2" d="M125.72,274a1,1,0,0,1-1-1l-.06-33.29a1,1,0,0,1,1-1h6.69a1,1,0,0,1,.71.29,1,1,0,0,1,.29.71l0,11.19,20.58,0h0a1,1,0,0,1,.71.29,1.05,1.05,0,0,1,.29.71v8.93a1,1,0,0,1-1,1l-20.58,0V273a1,1,0,0,1-.29.71,1,1,0,0,1-.7.29Zm.94-33.28,0,31.28h4.69l0-11.15a1,1,0,0,1,.3-.71,1,1,0,0,1,.7-.3l20.58,0v-6.93l-20.58,0a1,1,0,0,1-1-1l0-11.2Z"/><path class="cls-2" d="M153.78,233.32h-.13l-28-3.63a1,1,0,0,1-.87-1.12L128.57,199a1,1,0,0,1,1.12-.86l6.37.82a1,1,0,0,1,.87,1.12L134.35,220l2.16.28,2.51-19.4a1,1,0,0,1,1.13-.86l6.4.83a1,1,0,0,1,.87,1.12l-2.52,19.4,2.62.34,2.62-20.27a1,1,0,0,1,.38-.66,1,1,0,0,1,.74-.2l6.52.84a1,1,0,0,1,.87,1.12l-3.88,29.93A1,1,0,0,1,153.78,233.32Zm-26.92-5.5,26.05,3.38,3.62-27.94-4.53-.59-2.63,20.27a1,1,0,0,1-1.12.86l-4.6-.6a1,1,0,0,1-.66-.38,1,1,0,0,1-.2-.74l2.51-19.4-4.42-.57-2.51,19.4a1,1,0,0,1-.38.66,1,1,0,0,1-.74.2l-4.15-.53a1,1,0,0,1-.86-1.13l2.57-19.88-4.38-.57Z"/><path class="cls-2" d="M159.13,195.56a1.13,1.13,0,0,1-.32-.05l-26.81-9a1,1,0,0,1-.57-.51,1,1,0,0,1-.06-.76l6-17.76c5.51-16.42,14.08-17.38,20.3-15.29l1.08.37c5.23,1.75,13.13,7.27,7.33,24.52l-6,17.8A1,1,0,0,1,159.13,195.56Zm-25.54-10.63,24.91,8.36,5.66-16.84c3.94-11.73,1.84-19.34-6.08-22l-1.08-.36c-7.78-2.62-13.76,2.1-17.76,14Zm21.91.07a1.13,1.13,0,0,1-.32-.05l-14-4.71a1,1,0,0,1-.57-.5,1,1,0,0,1-.06-.76l2.93-8.72c1.51-4.5,3.5-7.44,5.91-8.76a7,7,0,0,1,5.86-.33l.21.07c3.59,1.21,7.19,4.67,3.93,14.36l-2.92,8.72a1,1,0,0,1-.51.58A1,1,0,0,1,155.5,185Zm-12.75-6.34,12.12,4.07,2.61-7.77c.81-2.43,3.3-9.82-2.67-11.82l-.22-.08a5,5,0,0,0-4.26.2c-2,1.06-3.63,3.63-5,7.63Z"/><path class="cls-2" d="M188.42,129.38a1,1,0,0,1-.56-.17l-17.05-11.55-6.26,9.24a1,1,0,0,1-1.39.27l-5.53-3.75a1.06,1.06,0,0,1-.43-.64,1,1,0,0,1,.16-.75L176,94.47a1,1,0,0,1,1.39-.27L183,98a1,1,0,0,1,.42.64,1,1,0,0,1-.15.75l-6.29,9.27L194,120.16a1,1,0,0,1,.26,1.39l-5,7.39a1,1,0,0,1-.63.42A.65.65,0,0,1,188.42,129.38Zm-17.87-14.11a1,1,0,0,1,.56.18l17,11.54,3.89-5.74-17-11.54a1,1,0,0,1-.42-.64,1,1,0,0,1,.16-.75L181,99.05l-3.88-2.63-17.55,25.9,3.88,2.63,6.26-9.24a1,1,0,0,1,.64-.42Z"/><path class="cls-2" d="M202.63,102a13.2,13.2,0,0,1-9.6-4.36l-.8-.81A13.36,13.36,0,0,1,188,87.49c-.08-5,2.81-10.36,8.57-16.06l1.16-1.15h0c5.74-5.66,11.17-8.48,16.13-8.33a13.3,13.3,0,0,1,9.25,4.32l.8.81c9.25,9.37,1.33,20-4.21,25.43l-1.16,1.15C214.86,97.3,208.92,102,202.63,102ZM199.14,71.7,198,72.85c-5.36,5.3-8,10.22-8,14.61a11.43,11.43,0,0,0,3.65,7.91l.8.82c6,6.11,13.89,4.74,22.68-4l1.17-1.15c8.78-8.68,10.23-16.49,4.19-22.6l-.8-.81A11.4,11.4,0,0,0,213.8,64c-4.42-.15-9.33,2.49-14.66,7.75Zm5.69,21.48a7.67,7.67,0,0,1-5.5-2.4l-.32-.33a7.22,7.22,0,0,1-2.27-5.72c.19-2.74,1.94-5.77,5.21-9s6.25-4.88,9-5A7.27,7.27,0,0,1,216.7,73h0l.38.38a7.5,7.5,0,0,1,2.28,5.86c-.18,2.81-1.89,5.84-5.09,9s-6.28,4.85-9.13,5Zm6.6-20.52h-.35c-2.26.15-4.86,1.65-7.73,4.49s-4.46,5.46-4.61,7.71a5.23,5.23,0,0,0,1.69,4.18l.32.32a5.61,5.61,0,0,0,4.31,1.8c2.33-.09,5-1.57,7.81-4.38s4.35-5.4,4.49-7.71a5.43,5.43,0,0,0-1.71-4.32l-.37-.38A5.31,5.31,0,0,0,211.43,72.66Z"/><path class="cls-2" d="M255.8,60.47a13.72,13.72,0,0,1-12.48-7.59l-.53-1a13.66,13.66,0,0,1-1.48-10.09c1.23-4.72,5.26-8.93,12-12.53l1.37-.73c6.49-3.48,12-4.7,16.5-3.65a10.19,10.19,0,0,1,6.8,4.93l.19.37a1,1,0,0,1-.41,1.36L269.46,36a1,1,0,0,1-1.18-.18c-1.9-1.91-5.5-1.59-10.16.91-3.16,1.69-5.11,3.53-5.81,5.47a5.48,5.48,0,0,0,.51,4.55l.21.4c.75,1.4,3.8,5.63,11.56,1.47,3.21-1.71,6.89-4.51,6.22-8.09l0-.16a1,1,0,0,1,.51-1l8.28-4.43a1,1,0,0,1,1.35.41l.2.37c.6,1.12,5.4,11.26-11.7,20.42l-1.38.74C263.54,59.26,259.44,60.47,255.8,60.47Zm12.11-33.95c-3,0-7,1-12.31,3.8l-1.38.74c-6.2,3.32-9.89,7.11-11,11.26A11.69,11.69,0,0,0,244.56,51l.52,1a12.24,12.24,0,0,0,6.61,5.87c4.16,1.45,9.34.53,15.41-2.72h0l1.37-.73c1.59-.85,15.15-8.44,11.14-17.2l-6.76,3.63c.31,3.58-2.2,6.87-7.32,9.61-7.47,4-12.26,1.44-14.26-2.29l-.21-.4a7.35,7.35,0,0,1-.63-6.17c.87-2.42,3.14-4.63,6.75-6.57,6.61-3.54,10.19-2.4,11.94-1.05l6.76-3.62C275,29,272.74,26.52,267.91,26.52Z"/><path class="cls-2" d="M292.41,44.45a1,1,0,0,1-1-.71l-8.28-27a1,1,0,0,1,.67-1.25l28.48-8.72a1,1,0,0,1,1.25.67l1.88,6.14a1,1,0,0,1-.66,1.24l-19.17,5.87.63,2.09L315,17a1,1,0,0,1,1.25.67l1.89,6.17a1,1,0,0,1-.66,1.25l-18.7,5.73.77,2.52,19.54-6a1,1,0,0,1,.76.07,1,1,0,0,1,.49.59l1.92,6.28a1,1,0,0,1-.66,1.25L292.7,44.41A1,1,0,0,1,292.41,44.45Zm-7-27.37,7.69,25.12L320,34l-1.33-4.37-19.54,6a1,1,0,0,1-1.25-.66l-1.35-4.43a1,1,0,0,1,.07-.77,1,1,0,0,1,.59-.48l18.7-5.73-1.31-4.26L295.88,25a1,1,0,0,1-1.25-.66l-1.22-4a1,1,0,0,1,.07-.76,1.06,1.06,0,0,1,.59-.49l19.17-5.86L312,9Z"/><path class="cls-2" d="M329,34.11a1,1,0,0,1-1-.88l-3.54-28a1,1,0,0,1,.86-1.12L334.1,3a1,1,0,0,1,1.12.87l2.53,20.08,18.5-2.33a1,1,0,0,1,.74.2,1,1,0,0,1,.38.66l.88,7a1,1,0,0,1-.2.74,1,1,0,0,1-.66.38L329.11,34.1ZM326.56,5.92,329.85,32l26.29-3.32-.63-5L337,26a1,1,0,0,1-1.12-.86L333.36,5.06Z"/><path class="cls-2" d="M394.87,31.57h-.05l-30.14-1.32a1,1,0,0,1-.69-.32,1,1,0,0,1-.26-.72L365,1A1,1,0,0,1,366,0l29.76,1.3a1,1,0,0,1,.69.33,1,1,0,0,1,.27.72l-.29,6.41a1,1,0,0,1-1,1l-20-.88-.1,2.18,19.54.85a1,1,0,0,1,.7.33,1,1,0,0,1,.26.72l-.28,6.45a1,1,0,0,1-1.05,1l-19.54-.86-.11,2.63,20.41.9a1,1,0,0,1,.69.32,1,1,0,0,1,.27.72l-.29,6.57A1,1,0,0,1,394.87,31.57Zm-29.1-3.28,28.14,1.23.2-4.57-20.41-.89a1,1,0,0,1-.69-.32,1,1,0,0,1-.26-.72l.2-4.64a1,1,0,0,1,1-.95l19.54.85.2-4.45L374.19,13a1,1,0,0,1-.7-.32,1,1,0,0,1-.26-.72l.18-4.18a1,1,0,0,1,1-1l20,.88.19-4.42L366.92,2Z"/><path class="cls-2" d="M431.73,38.75a24.27,24.27,0,0,1-5.44-.71l-23.78-5.6a1,1,0,0,1-.62-.45,1,1,0,0,1-.12-.76l6.48-27.51a1,1,0,0,1,1.2-.75L433,8.52c3.84.91,6.56,2.3,8.08,4.14a6.4,6.4,0,0,1,1.25,5.72l-.13.52a6.22,6.22,0,0,1-4.09,4.58,7.69,7.69,0,0,1,2.75,8.07l-.12.51C439.7,36.51,436.68,38.75,431.73,38.75Zm-27.79-8,22.81,5.37c9.34,2.2,11.35-1.51,12.06-4.49l.12-.51c.95-4.05-2-6.25-3.78-7.2a1,1,0,0,1-.52-1.09,1,1,0,0,1,.92-.79c1.18-.08,4-.58,4.72-3.57l.12-.52a4.34,4.34,0,0,0-.85-4c-1.23-1.49-3.58-2.66-7-3.46L410,5.15ZM428.33,32a6.9,6.9,0,0,1-1.59-.2l-14.2-3.34a1.06,1.06,0,0,1-.62-.45,1,1,0,0,1-.12-.76l1.27-5.4a1,1,0,0,1,1.2-.74l14.2,3.34c3.95.93,3.8,3.5,3.55,4.56l0,.15A3.55,3.55,0,0,1,428.33,32ZM414,26.76l13.23,3.11c2.43.58,2.74-.72,2.84-1.15l0-.15c.12-.51.37-1.58-2.05-2.15L414.79,23.3Zm16.19-6.17a6.56,6.56,0,0,1-1.51-.19l-13.46-3.17a1,1,0,0,1-.74-1.2l1.05-4.48a1,1,0,0,1,1.2-.74L430.17,14A4.5,4.5,0,0,1,433,15.61a3,3,0,0,1,.39,2.46,3.09,3.09,0,0,1-1.45,2.1A3.58,3.58,0,0,1,430.16,20.59Zm-13.54-5.08,12.49,2.94a2.57,2.57,0,0,0,1.84,0,1,1,0,0,0,.48-.74,1.1,1.1,0,0,0-.07-.94,2.8,2.8,0,0,0-1.65-.82L417.22,13Z"/><path class="cls-2" d="M477,58.17a1,1,0,0,1-.42-.09l-8.18-3.77a1,1,0,0,1-.56-.68,3.63,3.63,0,0,1,.44-2.44l1.37-3c1.1-2.4,1-3.93-2.78-5.66l-9.59-4.42-3.77,8.21a1,1,0,0,1-.57.52,1,1,0,0,1-.76,0l-8-3.71a1,1,0,0,1-.49-1.32l11.83-25.68a1,1,0,0,1,.56-.52,1,1,0,0,1,.76,0l20.71,9.54c5.5,2.53,11.45,6.86,8.57,13.12l-.19.41A6.79,6.79,0,0,1,480,42.77a7.22,7.22,0,0,1,.73,7.52L479,54.05c-.95,2.07-.9,2.62-.88,2.85a1,1,0,0,1-.08.52l-.08.17a1,1,0,0,1-.56.52A1.07,1.07,0,0,1,477,58.17Zm-7.19-5.41,6.39,2.94a14.34,14.34,0,0,1,.93-2.48l1.74-3.77c1.45-3.14-.23-5.52-1.9-7a1,1,0,0,1-.26-1.16,1,1,0,0,1,1-.59c3.16.36,5.29-.6,6.33-2.86l.2-.42C485,36,487,31.71,476.72,27l-19.81-9.12-11,23.87,6.23,2.86,3.78-8.2a1,1,0,0,1,1.32-.49l10.5,4.83c4.32,2,5.48,4.56,3.75,8.32l-1.36,3A5,5,0,0,0,469.85,52.76Zm3.83-14.51a5.89,5.89,0,0,1-2.46-.61L459,32a1,1,0,0,1-.52-.56,1,1,0,0,1,0-.77l2.32-5a1,1,0,0,1,1.33-.49l12.18,5.61A5,5,0,0,1,477,33.18a3.41,3.41,0,0,1-.07,2.91A3.51,3.51,0,0,1,473.68,38.25Zm-12.89-7.62,11.27,5.2c2.34,1.07,2.9-.14,3.08-.54a1.54,1.54,0,0,0,.07-1.3,3.23,3.23,0,0,0-1.66-1.39l-11.28-5.19Z"/><path class="cls-2" d="M514.28,84.76a1.09,1.09,0,0,1-.6-.19L506,78.91a1,1,0,0,1-.39-1l.83-5.13-12.81-9.44-4.56,2.37a1,1,0,0,1-1.06-.08l-7.25-5.34a1,1,0,0,1-.4-.89,1,1,0,0,1,.54-.81l28.28-14.29a1,1,0,0,1,1,.09l9.24,6.8a1,1,0,0,1,.4,1l-4.6,31.73a1,1,0,0,1-.6.78A.84.84,0,0,1,514.28,84.76Zm-6.6-7.1L513.52,82l4.27-29.49-8.26-6.09L483.26,59.67l5.44,4,4.56-2.37a1,1,0,0,1,1.05.09l13.8,10.16a1,1,0,0,1,.4,1Zm1-11.37a1,1,0,0,1-.59-.2l-8.63-6.35a1,1,0,0,1,.14-1.7l10.51-5.42a1,1,0,0,1,1,.08,1,1,0,0,1,.4,1l-1.88,11.79a1,1,0,0,1-.61.76A1,1,0,0,1,508.67,66.29Zm-6.73-7.21,6,4.43,1.31-8.21Z"/><path class="cls-2" d="M527.63,99.06h0a1,1,0,0,1-.7-.3l-6.23-6.39a1,1,0,0,1,0-1.42l14.74-14.37-7.79-8a1,1,0,0,1-.29-.71,1.09,1.09,0,0,1,.3-.71l4.79-4.67a1,1,0,0,1,.71-.28,1,1,0,0,1,.71.3L557.1,86.35a1,1,0,0,1,0,1.42l-4.78,4.67a1.1,1.1,0,0,1-.72.28,1,1,0,0,1-.7-.3l-7.82-8L528.32,98.78A1,1,0,0,1,527.63,99.06Zm-4.82-7.37,4.83,5,14.74-14.38a1.08,1.08,0,0,1,.71-.28,1,1,0,0,1,.71.3l7.81,8L555,87l-21.85-22.4-3.35,3.28,7.79,8a1,1,0,0,1,0,1.41Z"/><path class="cls-2" d="M556.47,136.71a1,1,0,0,1-.83-.43l-17.15-24.83a1,1,0,0,1,.25-1.39L562,94a1,1,0,0,1,.75-.17,1,1,0,0,1,.64.42l16.94,24.51a1,1,0,0,1-.25,1.39l-5.29,3.65a1,1,0,0,1-1.39-.25L562,107l-1.79,1.24,11.12,16.09a1,1,0,0,1-.26,1.39l-5.31,3.68a1,1,0,0,1-1.39-.26l-11.12-16.09-2.17,1.5L562.7,131.4a1,1,0,0,1,.16.75,1,1,0,0,1-.42.64L557,136.53A1,1,0,0,1,556.47,136.71ZM540.7,111.14l16,23.18,3.76-2.6-11.62-16.81a1,1,0,0,1-.16-.75,1,1,0,0,1,.42-.65l3.81-2.63a1,1,0,0,1,1.39.25l11.13,16.09,3.66-2.53L558,108.6a1,1,0,0,1,.26-1.4l3.44-2.37a1,1,0,0,1,1.39.25l11.4,16.5,3.64-2.51L562.32,96.2Z"/><path class="cls-2" d="M598.69,180.41a1,1,0,0,1-.93-.65l-3.86-10.52-19.33,7.1a1,1,0,0,1-1.28-.6l-3.08-8.38a1,1,0,0,1,0-.77,1.07,1.07,0,0,1,.57-.52L590.13,159l-3.84-10.47a1,1,0,0,1,0-.77,1,1,0,0,1,.56-.52l6.28-2.3a1,1,0,0,1,1.28.59l11.47,31.25a1,1,0,0,1,0,.77,1,1,0,0,1-.56.52l-6.28,2.3A1.07,1.07,0,0,1,598.69,180.41ZM594.49,167a1,1,0,0,1,.42.09,1,1,0,0,1,.52.57l3.86,10.51,4.4-1.62-10.78-29.37-4.4,1.62,3.84,10.47a1,1,0,0,1-.59,1.29l-19.33,7.09,2.39,6.5L594.15,167A1,1,0,0,1,594.49,167Z"/><path class="cls-2" d="M585.87,229.85a1,1,0,0,1-.58-.19,1,1,0,0,1-.4-.65l-1.43-8.74a1,1,0,0,1,.83-1.15l10-1.63-2.74-16.78-10,1.63a1,1,0,0,1-.75-.18,1,1,0,0,1-.4-.65L579,192.78a1,1,0,0,1,.82-1.15l27.91-4.56a1,1,0,0,1,1.14.83l1.43,8.74a1,1,0,0,1-.83,1.15l-9.17,1.49L603,216.06l9.18-1.49a1,1,0,0,1,1.15.82l1.43,8.74a1,1,0,0,1-.83,1.15L586,229.83Zm-.27-8.92,1.1,6.77,25.93-4.23-1.1-6.77-9.18,1.5a1,1,0,0,1-1.15-.83l-3.06-18.75a1,1,0,0,1,.18-.75,1,1,0,0,1,.65-.4l9.17-1.5-1.1-6.76-25.93,4.23,1.1,6.76,10-1.63a1,1,0,0,1,.74.18,1,1,0,0,1,.4.65l3.06,18.75a1,1,0,0,1-.82,1.15Z"/><path class="cls-2" d="M586.41,268.45a1,1,0,0,1-1-1l-.57-30.17a1,1,0,0,1,1-1l28.27-.53a.92.92,0,0,1,.71.28.93.93,0,0,1,.31.7l.56,29.79a1,1,0,0,1-.28.71,1,1,0,0,1-.7.31l-6.42.12h0a1,1,0,0,1-1-1l-.38-20.05-2.18,0,.37,19.55a1,1,0,0,1-1,1l-6.46.13a1.17,1.17,0,0,1-.71-.28,1.05,1.05,0,0,1-.31-.71l-.36-19.55-2.64,0,.39,20.43a1,1,0,0,1-1,1l-6.57.12Zm.45-30.19.53,28.17,4.58-.09-.39-20.42a1,1,0,0,1,1-1l4.64-.09a1.06,1.06,0,0,1,.71.28,1,1,0,0,1,.31.7l.37,19.56,4.45-.09-.36-19.55a1,1,0,0,1,1-1l4.18-.08a1,1,0,0,1,.71.28,1,1,0,0,1,.31.7l.37,20,4.42-.08-.52-27.79Z"/><path class="cls-2" d="M614.39,343.82a.94.94,0,0,1-.37-.07l-28.27-11.44a1,1,0,0,1-.63-.92v-8.93a1,1,0,0,1,.67-.94L602,315.68l-16.21-5.5a1,1,0,0,1-.68-.95v-9.76a1,1,0,0,1,.62-.93L614,286.92a1,1,0,0,1,.94.09,1,1,0,0,1,.44.83v9.65a1,1,0,0,1-.65.94L598,304.72l16.73,5.43a1,1,0,0,1,.69,1v9.42a1,1,0,0,1-.68,1L598.46,327l16.28,6.16a1,1,0,0,1,.65.93v8.7a1,1,0,0,1-.44.83A1,1,0,0,1,614.39,343.82Zm-27.27-13.11,26.27,10.63v-6.53l-18.24-6.9a1,1,0,0,1-.64-1,1,1,0,0,1,.68-.93l18.2-6.23v-8l-18.76-6.08a1,1,0,0,1,0-1.89l18.8-7.05v-7.46l-26.27,10.8v8.38l18.25,6.19a1,1,0,0,1,0,1.89l-18.26,6.56Z"/><path class="cls-2" d="M592.7,379.5h-6.58a1,1,0,0,1-1-1V348.33a1,1,0,0,1,1-1h28.27a1,1,0,0,1,1,1v29.79a1,1,0,0,1-1,1H608a1,1,0,0,1-1-1V358.07h-2.18v19.55a1,1,0,0,1-1,1h-6.46a1,1,0,0,1-1-1V358.07H593.7V378.5A1,1,0,0,1,592.7,379.5Zm-5.58-2h4.58V357.07a1,1,0,0,1,1-1h4.63a1,1,0,0,1,1,1v19.55h4.46V357.07a1,1,0,0,1,1-1H608a1,1,0,0,1,1,1v20.05h4.42V349.33H587.12Z"/><path class="cls-2" d="M601,425.66h-1.14c-5.51,0-14.76-2.71-14.76-20.9V386a1,1,0,0,1,1-1h28.27a1,1,0,0,1,1,1v18.73C615.39,422,607.57,425.66,601,425.66ZM587.12,387v17.77c0,12.37,4.41,18.9,12.76,18.9H601c8.21,0,12.37-6.37,12.37-18.94V387Zm13.33,29.4h-.23c-3.78,0-8.3-2.14-8.3-12.36v-9.19a1,1,0,0,1,1-1H607.7a1,1,0,0,1,1,1V404C608.7,412.24,605.93,416.39,600.45,416.39Zm-6.53-20.55V404c0,2.57,0,10.36,6.3,10.36h.23c2.68,0,6.25-1.07,6.25-10.36v-8.19Z"/><path class="cls-2" d="M601,471.2h-1.14c-5.51,0-14.76-2.72-14.76-20.91V431.52a1,1,0,0,1,1-1h28.27a1,1,0,0,1,1,1v18.73C615.39,467.56,607.57,471.2,601,471.2Zm-13.9-38.68v17.77c0,12.37,4.41,18.91,12.76,18.91H601c8.21,0,12.37-6.38,12.37-18.95V432.52Zm13.33,29.41h-.23c-3.78,0-8.3-2.15-8.3-12.36v-9.2a1,1,0,0,1,1-1H607.7a1,1,0,0,1,1,1v9.2C608.7,457.77,605.93,461.93,600.45,461.93Zm-6.53-20.56v8.2c0,2.56,0,10.36,6.3,10.36h.23c2.68,0,6.25-1.08,6.25-10.36v-8.2Z"/><path class="cls-2" d="M614.39,486.9H586.12a1,1,0,0,1-1-1v-8.85a1,1,0,0,1,1-1h28.27a1,1,0,0,1,1,1v8.85A1,1,0,0,1,614.39,486.9Zm-27.27-2h26.27v-6.85H587.12Z"/><path class="cls-2" d="M614.39,531.71H586.12a1,1,0,0,1-1-1V522a1,1,0,0,1,.29-.7l17.07-17.49H586.12a1,1,0,0,1-1-1V494a1,1,0,0,1,1-1h28.27a1,1,0,0,1,1,1v9.88a1,1,0,0,1-.29.7L599,521h15.39a1,1,0,0,1,1,1v8.74A1,1,0,0,1,614.39,531.71Zm-27.27-2h26.27V523H596.61a1,1,0,0,1-.92-.62,1,1,0,0,1,.21-1.08l17.49-17.76V495H587.12v6.74h17.74a1,1,0,0,1,.92.61,1,1,0,0,1-.21,1.09l-18.45,18.9Zm27.27-25.79h0Z"/><path class="cls-2" d="M602,578.41H586.12a1,1,0,0,1-1-1v-5.32a1,1,0,0,1,.89-1,19.21,19.21,0,0,0,2.68-.58c-1.87-2.16-4.06-6.19-4.06-13.16v-.8c0-14.63,7.86-19.85,15.21-19.85h1.06c4.51,0,15,2,15,20.15v1.64c0,17.38-8.17,19.59-11.68,19.73a1,1,0,0,1-.75-.28,1,1,0,0,1-.33-.72v-9.43a1,1,0,0,1,.67-.94c2.18-.76,3.36-4,3.36-9.12,0-9.76-5-9.76-6.64-9.76h-.41c-3.19,0-6.6,2.55-6.6,9.68,0,5,1.16,7.7,2.1,9V557.5a1,1,0,0,1,1-1H602a1,1,0,0,1,1,1v19.91A1,1,0,0,1,602,578.41Zm-14.85-2H601V558.5h-3.36v10.09a1,1,0,0,1-1,1c-1.42,0-5.1-2.83-5.1-11.94,0-8.62,4.63-11.68,8.6-11.68h.41c3.94,0,8.64,2,8.64,11.76,0,5.69-1.39,9.37-4,10.72v7.66c3.25-.55,8.76-3.56,8.76-17.62v-1.64c0-15.79-8.14-18.15-13-18.15h-1.06c-3.1,0-13.21,1.29-13.21,17.85v.8c0,7.74,2.85,11.37,4.56,12.84a1,1,0,0,1,.33.91,1,1,0,0,1-.6.77,22.59,22.59,0,0,1-3.8,1.07Zm9.53-8.8Z"/><path class="cls-2" d="M600.9,642h-1.14c-13.16,0-15.13-13.08-15.13-20.87v-1.64c0-7.8,2-20.9,15.13-20.9h1.14c6.84,0,15,3.62,15,20.9v1.64C615.89,638.4,607.74,642,600.9,642Zm-1.14-41.41c-8.59,0-13.13,6.53-13.13,18.9v1.64c0,12.34,4.54,18.87,13.13,18.87h1.14c8.62,0,13-6.35,13-18.87v-1.64c0-12.54-4.37-18.9-13-18.9Zm.88,32.14h-.53c-2.59,0-8.6-1.21-8.6-12.44s6.06-12.43,8.67-12.43h.46c3.83,0,8.41,2.15,8.41,12.43C609.05,631.13,603.78,632.75,600.64,632.75Zm-.46-22.87c-4.36,0-6.67,3.61-6.67,10.43s2.28,10.44,6.6,10.44h.53c5.29,0,6.41-5.68,6.41-10.44,0-6.92-2.16-10.43-6.41-10.43Z"/><path class="cls-2" d="M614.39,678.25H608a1,1,0,0,1-1-1v-19.4h-2.18v18.91a1,1,0,0,1-1,1h-6.46a1,1,0,0,1-1-1V657.85H586.12a1,1,0,0,1-1-1V648a1,1,0,0,1,1-1h28.27a1,1,0,0,1,1,1v29.22A1,1,0,0,1,614.39,678.25Zm-5.42-2h4.42V649H587.12v6.82h10.21a1,1,0,0,1,1,1v18.91h4.46V656.85a1,1,0,0,1,1-1H608a1,1,0,0,1,1,1Z"/><path class="cls-3" d="M19.3,792.14,32.56,846.7a2.18,2.18,0,0,0,4.3-.52V792.65A2.18,2.18,0,0,1,39,790.47H53.75a2.18,2.18,0,0,1,2.18,2.18V926.09a2.17,2.17,0,0,1-2.18,2.17H40.59a2.16,2.16,0,0,1-2.11-1.64L23.18,866a2.18,2.18,0,0,0-4.29.53v59.55a2.17,2.17,0,0,1-2.18,2.17H2.18A2.18,2.18,0,0,1,0,926.09V792.65a2.19,2.19,0,0,1,2.18-2.18h15A2.19,2.19,0,0,1,19.3,792.14Z"/><path class="cls-3" d="M96.57,902.34H85.13a2.17,2.17,0,0,0-2.17,2l-2.2,22a2.17,2.17,0,0,1-2.17,2H64.32a2.17,2.17,0,0,1-2.16-2.44L78.48,792.39a2.18,2.18,0,0,1,2.16-1.92h21a2.18,2.18,0,0,1,2.16,1.9l17.4,133.43a2.17,2.17,0,0,1-2.16,2.46H103.26a2.16,2.16,0,0,1-2.16-1.94l-2.36-22A2.19,2.19,0,0,0,96.57,902.34ZM87.8,881.78h6.07A2.18,2.18,0,0,0,96,879.36L93,851a2.18,2.18,0,0,0-4.33,0l-3,28.32A2.18,2.18,0,0,0,87.8,881.78Z"/><path class="cls-3" d="M172.05,792.65V808.3a2.18,2.18,0,0,1-2.18,2.18H156.64a2.17,2.17,0,0,0-2.18,2.17V926.09a2.18,2.18,0,0,1-2.18,2.17H135.89a2.17,2.17,0,0,1-2.17-2.17V812.65a2.18,2.18,0,0,0-2.18-2.17H118.3a2.19,2.19,0,0,1-2.18-2.18V792.65a2.19,2.19,0,0,1,2.18-2.18h51.57A2.18,2.18,0,0,1,172.05,792.65Z"/><path class="cls-3" d="M202.13,902.34H190.69a2.18,2.18,0,0,0-2.17,2l-2.2,22a2.17,2.17,0,0,1-2.16,2H169.88a2.17,2.17,0,0,1-2.16-2.44L184,792.39a2.18,2.18,0,0,1,2.16-1.92h21a2.19,2.19,0,0,1,2.16,1.9l17.4,133.43a2.18,2.18,0,0,1-2.16,2.46H208.83a2.17,2.17,0,0,1-2.17-1.94l-2.36-22A2.18,2.18,0,0,0,202.13,902.34Zm-8.77-20.56h6.08a2.18,2.18,0,0,0,2.17-2.42L198.52,851a2.18,2.18,0,0,0-4.34,0l-3,28.32A2.17,2.17,0,0,0,193.36,881.78Z"/><path class="cls-3" d="M253.91,792.65V904.79a2.19,2.19,0,0,0,2.18,2.18h21.2a2.18,2.18,0,0,1,2.18,2.18v16.94a2.18,2.18,0,0,1-2.18,2.17H235.16a2.18,2.18,0,0,1-2.18-2.17V792.65a2.19,2.19,0,0,1,2.18-2.18h16.57A2.19,2.19,0,0,1,253.91,792.65Z"/><path class="cls-3" d="M306.18,928.26H289.61a2.18,2.18,0,0,1-2.18-2.17V792.65a2.19,2.19,0,0,1,2.18-2.18h16.57a2.19,2.19,0,0,1,2.18,2.18V926.09A2.18,2.18,0,0,1,306.18,928.26Z"/><path class="cls-3" d="M366.33,792.65V808.3a2.19,2.19,0,0,1-2.18,2.18H341.84a2.17,2.17,0,0,0-2.18,2.17v31.76a2.17,2.17,0,0,0,2.18,2.18h16.57a2.19,2.19,0,0,1,2.18,2.18v16.57a2.19,2.19,0,0,1-2.18,2.18H341.84a2.17,2.17,0,0,0-2.18,2.18v35.46a2.18,2.18,0,0,0,2.18,2.18h23.42a2.18,2.18,0,0,1,2.18,2.18v16.57a2.18,2.18,0,0,1-2.18,2.17H320.91a2.18,2.18,0,0,1-2.18-2.17V792.65a2.19,2.19,0,0,1,2.18-2.18h43.24A2.19,2.19,0,0,1,366.33,792.65Z"/><path class="cls-3" d="M494.93,868.26h16.2a2.17,2.17,0,0,1,2.18,2.18v29.67c0,14.82-5,29.82-25,29.82h-4.63c-21.3,0-25.74-15.19-25.74-29.08V816.77c0-14.07,6.11-27.59,25-27.59h4.81c23,0,25.56,15.18,25.56,28.7v22.46a2.18,2.18,0,0,1-2.18,2.18h-16.2a2.19,2.19,0,0,1-2.18-2.18V818.25c0-5.92-1.85-9.07-7-9.07s-6.49,3-6.49,9.07v81.86q0,9.45,6.67,9.45c5,0,6.85-3.52,6.85-9.26V870.44A2.18,2.18,0,0,1,494.93,868.26Z"/><path class="cls-3" d="M541.32,928.26H524.75a2.18,2.18,0,0,1-2.18-2.17V792.65a2.19,2.19,0,0,1,2.18-2.18h16.57a2.19,2.19,0,0,1,2.18,2.18v50.84a2.18,2.18,0,0,0,2.18,2.17h9.9a2.17,2.17,0,0,0,2.18-2.17V792.65a2.19,2.19,0,0,1,2.18-2.18h16.57a2.19,2.19,0,0,1,2.18,2.18V926.09a2.18,2.18,0,0,1-2.18,2.17H559.94a2.18,2.18,0,0,1-2.18-2.17V869.88a2.18,2.18,0,0,0-2.18-2.18h-9.9a2.19,2.19,0,0,0-2.18,2.18v56.21A2.18,2.18,0,0,1,541.32,928.26Z"/><path class="cls-3" d="M607.81,928.26H591.24a2.18,2.18,0,0,1-2.18-2.17V792.65a2.19,2.19,0,0,1,2.18-2.18H623c14.08,0,20.93,5.74,20.93,21.3v24.45c0,8.61-3,13.37-6.09,15.83a2.18,2.18,0,0,0,.15,3.47c3.32,2.28,5.94,6,5.94,13.29v48.34c0,5.74,1.11,8.15,2,10.19v.92H626.48a2.15,2.15,0,0,1-2-1.27c-.72-1.64-1.36-4.38-1.36-10V875.48c0-6.11-1.11-8.7-7.78-8.7h-3.19A2.17,2.17,0,0,0,610,869v57.13A2.18,2.18,0,0,1,607.81,928.26ZM610,845a2.18,2.18,0,0,0,2.18,2.18h3.38c5.74,0,7.59-3.71,7.59-9.82V818.07c0-5.93-1.11-8.89-7.59-8.89h-3.38a2.17,2.17,0,0,0-2.18,2.18Z"/><path class="cls-3" d="M672.44,928.26H655.87a2.17,2.17,0,0,1-2.17-2.17V792.65a2.18,2.18,0,0,1,2.17-2.18h16.57a2.18,2.18,0,0,1,2.18,2.18V926.09A2.17,2.17,0,0,1,672.44,928.26Z"/><path class="cls-3" d="M714.07,789.18c17.23,0,23.89,7.59,23.89,23.89v20.41a2.17,2.17,0,0,1-2.18,2.18H720a2.17,2.17,0,0,1-2.17-2.18V815.85c0-4.63-.93-8.15-5.93-8.15s-6.11,3.15-6.11,9.63v2.59c0,7.78,1.48,12,8.52,21.11l13.33,17.23C737,870.48,740,877.33,740,893.08v4.44c0,20.19-8.52,32.23-27,32.23h-4.07c-16.86,0-25.56-9.08-25.56-26.12V878.22a2.17,2.17,0,0,1,2.18-2.18h16.38a2.17,2.17,0,0,1,2.18,2.18v21.89c0,6.49,2.22,9.63,6.85,9.63,5,0,6.86-3.14,6.86-11.85v-3.15c0-10-.93-13.15-8.52-23.15l-13.34-17c-8.89-11.48-11.48-20.37-11.48-34.07V816c0-18.52,9.26-26.85,25.74-26.85Z"/><path class="cls-2" d="M424.66,931.27a2.06,2.06,0,0,1-.93-.23L395.15,916.6a2,2,0,0,1-1.13-1.84V903.59a2.07,2.07,0,0,1,1.09-1.82l28.58-15.28a2,2,0,0,1,2,0,2.07,2.07,0,0,1,1,1.77v7.94a2,2,0,0,1-1.12,1.83l-4.5,2.35v17.31l4.47,2.23a2.05,2.05,0,0,1,1.15,1.85v7.4a2.05,2.05,0,0,1-1,1.75A2.14,2.14,0,0,1,424.66,931.27Zm.06-43-28.67,15.24,0,11.22,28.61,14.5.09-7.45-4.47-2.24a2,2,0,0,1-1.15-1.84V900.42a2.06,2.06,0,0,1,1.12-1.83l4.46-2.29Zm-12.6,27a2.14,2.14,0,0,1-.92-.22l-8.1-4h0a2.06,2.06,0,0,1,0-3.67l8.11-4.19a2.05,2.05,0,0,1,3,1.83v8.2a2.08,2.08,0,0,1-2.05,2.06Zm-8.14-6,8.11,4,.08-8.25L404,909.2l-.44,1Z"/><path class="cls-2" d="M424.66,881.72H396.08a2.06,2.06,0,0,1-2.06-2.06v-9.23a2.06,2.06,0,0,1,.59-1.45h0l17.23-17.49,0-.1H396.08a2.05,2.05,0,0,1-2.06-2V842a2.05,2.05,0,0,1,2.06-2.05h28.58a2.06,2.06,0,0,1,2.06,2.05v8a2.05,2.05,0,0,1-.59,1.44l-18.28,18.73,0,.1h16.77a2.06,2.06,0,0,1,2.06,2.06v7.37A2.06,2.06,0,0,1,424.66,881.72ZM396,870.39h0a.05.05,0,0,0,0,0v9.23l28.64.06.06-7.43-16.83-.06a2.06,2.06,0,0,1-1.48-3.49L424.7,850l0-8-28.64-.05-.06,7.43,15.78,0a2.07,2.07,0,0,1,1.47,3.51Z"/><path class="cls-2" d="M424.66,833.08H396.08A2.06,2.06,0,0,1,394,831V811.74c0-18.73,8.44-22.66,15.52-22.66h1.24c6,0,15.94,2.94,15.94,22.62V831A2.06,2.06,0,0,1,424.66,833.08Zm-15.12-42c-9,0-13.52,6.95-13.52,20.66V831l.06.06h28.58l.06-19.38c0-17-7.58-20.62-13.94-20.62Zm7.73,32.39H403.34a2.06,2.06,0,0,1-2.06-2.06v-8.93c0-8.85,3-13.33,8.88-13.33h.25c4.07,0,8.92,2.31,8.92,13.33v8.93A2.06,2.06,0,0,1,417.27,823.47Zm-7.11-22.32c-1.7,0-6.88,0-6.88,11.33v8.93l14,.06a.06.06,0,0,0,.06-.06v-8.93c0-7.52-2.33-11.33-6.92-11.33Z"/></svg>