<svg id="Layer_1" data-name="Layer 1" xmlns="http://www.w3.org/2000/svg" viewBox="0 0 113.5 240.55"><defs><style>.cls-1{fill:#6f8577;}</style></defs><path class="cls-1" d="M113.47,115.09a4.18,4.18,0,0,1-.16-.7c-.1-.78-.82-1.08-1.24-1.6a2.25,2.25,0,0,0-2.14.25c-.73.52-1.15,1.31-1.85,1.83-.14.09-.17.26-.23.41a29.42,29.42,0,0,1-1.28,3.08c-.38.65-.64,1.38-1.06,2s-.83,1.47-1.28,2.19-.71,1.48-1.68,1.58a.47.47,0,0,0-.24.15.54.54,0,0,1-.63,0,7.32,7.32,0,0,0-.87-.37,2,2,0,0,0-2.17.32,3,3,0,0,0-.2,4.5,4.07,4.07,0,0,0,.6.38,1,1,0,0,1,.28.35s-.15.16-.23.25a2.11,2.11,0,0,0-.19.23c-.52.75-1.16,1.39-1.7,2.12A13.23,13.23,0,0,1,96,133.47a8.65,8.65,0,0,1-1.11,1c-.19.13-.28.13-.43,0a3.24,3.24,0,0,0-2.07-1.05,2.32,2.32,0,0,0-1.48.3,2.88,2.88,0,0,0-.94,3.15c.17.41.17.41-.19.62a2.33,2.33,0,0,1-.33.14c-1.09.47-2.16,1-3.28,1.39a8.88,8.88,0,0,0-1.62.84c-.43.27-.8.65-1.23.93a5.85,5.85,0,0,0-.82.67,9.42,9.42,0,0,1-1.4,1.21.12.12,0,0,1-.16,0c-.06-.05,0-.11,0-.16a3.59,3.59,0,0,0,.6-1c.22-.58.52-1.12.76-1.68.45-1,1-2,1.49-3.06.53-1.24,1.21-2.41,1.68-3.69.18-.52.45-1,.65-1.52.34-.9.88-1.69,1.17-2.61.12-.4.14-.4.54-.23a4.1,4.1,0,0,0,1.73.33,1.78,1.78,0,0,0,1.28-.54,2.36,2.36,0,0,0,.59-1.93A2.33,2.33,0,0,0,90,124.67a3,3,0,0,0-.76-.32c-.12,0-.16-.1-.11-.22.25-.69.49-1.39.75-2.07.18-.49.21-.51.68-.39a2.37,2.37,0,0,0,1.57-.11,2.61,2.61,0,0,0,1.58-2.82A3.37,3.37,0,0,0,92.6,117c-.23-.23-.61-.23-.77-.54a2.05,2.05,0,0,0,.3-1,1.17,1.17,0,0,0,.05-.11c.1-.38.17-.43.51-.24a3,3,0,0,0,1.9.28,1.85,1.85,0,0,0,1.33-.8,2.75,2.75,0,0,0,.47-1.45,2.29,2.29,0,0,0-1.93-2.59c-.25-.06-.49-.15-.74-.22s-.17-.14-.1-.27A2.29,2.29,0,0,0,94,109c0-.28.14-.29.34-.26s.2,0,.29.06a2.78,2.78,0,0,0,2.57-.78,3.11,3.11,0,0,0,.47-.74,2.09,2.09,0,0,0,.17-2.1.6.6,0,0,1-.06-.23,1.32,1.32,0,0,0-.48-.85,2.64,2.64,0,0,0-2.17-.92c-.41,0-.49-.09-.38-.5a24.28,24.28,0,0,0,.49-2.57c.15-1,.21-2.06.34-3.08a5.53,5.53,0,0,0,.05-2.36.16.16,0,0,1,.14-.22,2.52,2.52,0,0,1,.53-.08A1,1,0,0,0,97,94a2.61,2.61,0,0,1,.31-.27,2.94,2.94,0,0,0,1.08-2.57,1.21,1.21,0,0,0-.16-.51,6.51,6.51,0,0,0-.41-.73,2.37,2.37,0,0,0-2.45-1,3.7,3.7,0,0,0-2.18,2,1.41,1.41,0,0,0-.12.88,4.33,4.33,0,0,1,0,1.72c0,.16-.11.31,0,.47s-.06.28-.27.31a2.89,2.89,0,0,0-2.26,1.34,2.79,2.79,0,0,0,.2,3,4.42,4.42,0,0,0,1.41,1,.37.37,0,0,1,.23.41c-.06.9-.31,1.77-.38,2.66,0,.18-.13.23-.3.16l-.68-.23a1.58,1.58,0,0,0-1.38.14,2.93,2.93,0,0,0-1.53,2.5,2.87,2.87,0,0,0,2.66,2.94,1.11,1.11,0,0,1,.56.17.49.49,0,0,1,.27.69c-.48,1.4-.91,2.81-1.25,4.24-.07.28-.22.32-.43.21a3.48,3.48,0,0,0-1.75-.19.68.68,0,0,0-.29.06A2.69,2.69,0,0,0,86.31,116a2.33,2.33,0,0,0,1.19,2.08,4.3,4.3,0,0,0,.76.4c.44.12.29.3.2.54-.39,1.13-.79,2.25-1.22,3.36s-.15,1-1.39.77a3.55,3.55,0,0,0-1.78.26c-.36.11-.44.47-.67.69a1.89,1.89,0,0,0-.59,1.19,6.17,6.17,0,0,0,.06,1.06,2.5,2.5,0,0,0,1.38,2c.15.1.31.18.47.27s.17.15,0,.27a.83.83,0,0,0-.19.23c-.69,1.41-1.24,2.88-1.9,4.3-.43,1-.86,1.91-1.31,2.85-.36.73-.77,1.44-1.09,2.18-.51,1.17-1.15,2.28-1.68,3.44-.34.74-.73,1.45-1.1,2.18,0,.06,0,.16-.13.16a.22.22,0,0,1-.19-.2.77.77,0,0,1,0-.3,29.52,29.52,0,0,0,.31-3.51,1.1,1.1,0,0,1,.63-1,2.36,2.36,0,0,0,1.3-2.28,2.25,2.25,0,0,0-.74-1.69,2.58,2.58,0,0,0-.63-.45c-.34-.15-.6-.38-.47-.83a1.83,1.83,0,0,0,0-.66q-.29-2.76-.55-5.53a32.47,32.47,0,0,0-.44-3.55c-.08-.4,0-.53.35-.71a2.07,2.07,0,0,0,.74-3,2.81,2.81,0,0,0-1.9-1.18c-.5-.08-.5-.1-.57-.56,0-.27-.24-.61-.09-.77s.52-.16.79-.16a2.56,2.56,0,0,0,2-1.12,2.83,2.83,0,0,0-1-4.29,2.48,2.48,0,0,0-2.35,0,1.66,1.66,0,0,0-.73.75c-.21.44-.64.77-.56,1.34,0,.21-.19.22-.29.13a2.24,2.24,0,0,0-.74-.37,2,2,0,0,0-2.41.6c-.12.13-.23.28-.36.4a1.6,1.6,0,0,0-.47,1.24,5.78,5.78,0,0,0,.11,1,2.78,2.78,0,0,0,3.22,2c.18-.08.36-.06.36.22a3.11,3.11,0,0,0,.23,1A24.72,24.72,0,0,1,74,125.24a3,3,0,0,0,.11.65c0,.14,0,.26.07.38-.36,0-.6.32-.91.45a2.28,2.28,0,0,0-1.36,1.77,2.68,2.68,0,0,0,.65,2.43,3.08,3.08,0,0,0,1.78.88c.44.11.44.11.47.54,0,.64.07,1.27.14,1.9a1.89,1.89,0,0,1-.34,1.34,2,2,0,0,0-.34,1.71,3.13,3.13,0,0,0,.46,1.15,1.19,1.19,0,0,1,.22.84c-.15,1.73-.46,3.43-.75,5.14-.24,1.43-.63,2.83-1,4.24-.22.91-.58,1.77-.88,2.66a14.94,14.94,0,0,1-.86,2,8.46,8.46,0,0,0-.73,1.44,6.82,6.82,0,0,0-.52,1.88.92.92,0,0,1-.11.4c-.4.89-.78,1.78-1.1,2.7a1.62,1.62,0,0,0-.11,1,.47.47,0,0,1,0,.46,4.27,4.27,0,0,0-.47,1,13.35,13.35,0,0,0-.89,2c-.31,1-.56,2-.93,2.95-.23.61-.35,1.27-.58,1.88a46,46,0,0,0-1.59,4.68c-.33,1.24-.56,2.49-.88,3.73-.36,1.45-.66,2.91-.88,4.38-.34,2.33-.87,4.61-1.3,6.92-.19,1-.4,2.07-.59,3.11-.11.66-.05,1.35-.18,2a13.81,13.81,0,0,0-.25,1.71c-.1,1.67-.16,3.34-.23,5,0,.09,0,.22-.11.22s-.14-.09-.16-.15a12.76,12.76,0,0,1-.42-1.37c-.47-2.06-1-4.1-1.59-6.12-.3-1-.61-2-.92-3a19.33,19.33,0,0,1-.45-2c-.12-.65-.28-1.28-.39-1.93-.21-1.21-.35-2.44-.64-3.65-.36-1.53-.71-3.06-1-4.61q-.39-2.08-.75-4.17c-.25-1.47-.46-3-.68-4.43s-.37-2.92-.54-4.38c-.12-1.08-.2-2.17-.3-3.26-.11-1.4-.21-2.8-.38-4.2s-.18-2.62-.27-3.93-.18-2.43-.26-3.64c0-.8,0-1.6-.15-2.38-.19-1.51-.17-3-.29-4.53-.07-.82.06-1.63.06-2.44,0-1.54,0-3.07,0-4.6,0-.93.06-1.86.1-2.79s0-2.07.14-3.1c.16-1.69.21-3.38.36-5.07.09-1,.1-2,.27-3,.3-1.79.47-3.59.77-5.38.24-1.39.57-2.76.88-4.13a12.43,12.43,0,0,1,.91-2.45c.23-.51.41-1.05.67-1.53.53-.93,1-1.87,1.49-2.82s1-1.71,1.51-2.56c.31-.52.48-.91,1-1.62,0,0,0,0,0,0a6.82,6.82,0,0,0,.79-1.39c.42-.79.94-1.52,1.4-2.28.6-1,1.33-1.87,2-2.82.89-1.29,1.81-2.56,2.62-3.91.27-.45.53-.92.82-1.37.48-.74,1-1.46,1.45-2.19.23-.35.44-.71.64-1.07.29-.53.36-.55.85-.2a2.74,2.74,0,0,0,1.08.6,4,4,0,0,0,1.42,0,1.9,1.9,0,0,0,1.47-.9c.12-.23.27-.44.37-.68a2.35,2.35,0,0,0-.15-2.39A2.84,2.84,0,0,0,72,81.6c-.18,0-.28-.18-.12-.35a7,7,0,0,0,.63-1,26.51,26.51,0,0,0,1.76-2.89c.12-.25.24-.5.35-.75s.13-.23.32-.06a2.68,2.68,0,0,0,3,.37A2.87,2.87,0,0,0,78,72a2.31,2.31,0,0,0-.75-.34c-.25-.07-.25-.18-.13-.39.44-.8.85-1.61,1.27-2.42.1-.2.24-.2.38-.08a5.88,5.88,0,0,0,.76.55,2.54,2.54,0,0,0,2.54.19A3,3,0,0,0,83.59,68a2.9,2.9,0,0,0-.83-3.08,2.26,2.26,0,0,0-1.15-.44c-.18,0-.44,0-.47-.19-.08-.45-.37-.87-.14-1.38a18.66,18.66,0,0,0,1.16-2.81,1.64,1.64,0,0,1,.41-.64,4.88,4.88,0,0,0,.68-.89c.18-.34.2-.32.54-.15a2.66,2.66,0,0,0,3.91-2.35,2.63,2.63,0,0,0-.77-2.21c-.16-.15-.39-.22-.53-.38a1.7,1.7,0,0,0-1-.49c-.44-.1-.42-.12-.26-.57a18.05,18.05,0,0,0,.57-1.76c.21-.87.48-1.72.71-2.58.06-.24.2-.25.34-.12a1.69,1.69,0,0,0,1.75.19,3.66,3.66,0,0,0,2.28-2,2.67,2.67,0,0,0,.1-2.32,3,3,0,0,0-3.28-1.71.44.44,0,0,1-.44-.1,3.47,3.47,0,0,0-1.22-.7,2.37,2.37,0,0,0-3.08.87,5.34,5.34,0,0,0-.28.72,2.14,2.14,0,0,0,0,2.2c.09.15.11.32-.09.39A2.77,2.77,0,0,0,80.87,47a2.83,2.83,0,0,0,.36,3.12,3.53,3.53,0,0,0,1.59,1.09c.33.09.24.16,0,.3a.72.72,0,0,0-.18.37L82,54c-.17.52-.19.53-.72.49l-.24,0A2,2,0,0,0,79,55a2.75,2.75,0,0,0-.79,2.61c.17.77.37,1.57,1.24,1.92.25.1.31.25.1.5a1.81,1.81,0,0,0-.28.65.88.88,0,0,1-1.13.73,2.16,2.16,0,0,0-2.18,1.36,2.72,2.72,0,0,0,.65,3.61c.17.13.13.22,0,.39-.55,1.1-1.06,2.22-1.62,3.31-.37.73-.71,1.46-1.14,2.16a5.79,5.79,0,0,0-.72,1.55c-.07.33-.21.36-.52.2a4.2,4.2,0,0,0-1.43-.37,1,1,0,0,0-.59,0,3.23,3.23,0,0,0-2,3,1.51,1.51,0,0,0,0,.3,3,3,0,0,0,1.4,2c.19.11.33.25.17.41-.31.3-.35.76-.67,1-.17.15-.06.57-.39.51a2.43,2.43,0,0,1-.7-.15c-.1-.06-.23-.06-.31-.16a.44.44,0,0,0-.5-.1,6.08,6.08,0,0,0-1.17.43,2.35,2.35,0,0,0-1,1,3,3,0,0,0,.54,3.43l.12.13c.12.12.2.24.06.41s-.11.26-.19.37c-.82,1.15-1.56,2.35-2.31,3.54-.62,1-1.19,2-1.88,2.9a7.1,7.1,0,0,0-.8,1.09,16.8,16.8,0,0,1-1.46,2.17c-.55.82-1.15,1.61-1.67,2.45-.18.31-.37.61-.52.93-.3.63-.75,1.17-1,1.81A10.1,10.1,0,0,1,55.29,103a2.25,2.25,0,0,0-.42.7,1,1,0,0,1-.37.52.18.18,0,0,1-.16,0,.09.09,0,0,1,0-.15,1.64,1.64,0,0,0,.21-.68c0-.31.12-.62.19-.93a4.62,4.62,0,0,0,.22-.87,2.1,2.1,0,0,1,.16-.82c.34-.83.43-1.72.73-2.57.54-1.51.78-3.12,1.29-4.65a23.6,23.6,0,0,0,.77-2.68c.2-.91.54-1.79.7-2.71.1-.53.2-1.06.32-1.58.45-1.84.88-3.68,1.36-5.51.35-1.31.76-2.59,1.14-3.89.21-.68.43-1.36.61-2.06a2.78,2.78,0,0,1,.49-1.06,2.89,2.89,0,0,0,.62-2.13,3.79,3.79,0,0,1,.22-1.57c.22-.7.43-1.4.61-2.11a46,46,0,0,1,1.36-5.06c.22-.59.26-1.21.45-1.79s.37-1.26.56-1.89c.11-.39.15-.42.52-.28a2.87,2.87,0,0,0,2.1,0c.11,0,.26-.05.32-.13.35-.49.85-.85,1-1.52a2.34,2.34,0,0,0-.55-2.31A2.79,2.79,0,0,0,68,54.3c-.1,0-.19-.06-.29-.08s-.15-.1-.11-.22a13.68,13.68,0,0,0,.46-2.09,1,1,0,0,1,.28-.71,3.32,3.32,0,0,0,.8-1.24c.11-.23,0-.6.21-.71a2.27,2.27,0,0,1,.83,0h.18a2.55,2.55,0,0,0,2.32-3.43,2.76,2.76,0,0,0-2.16-1.91c-.19,0-.39-.06-.58-.11s-.29-.12-.24-.28c.17-.58.17-1.18.31-1.77a.69.69,0,0,1,.33-.4,2.54,2.54,0,0,0,1.17-1.77,2.19,2.19,0,0,0-.44-2.06,1,1,0,0,1-.26-1,34.36,34.36,0,0,0,.61-3.63c0-.26.1-.31.38-.21.49.17,1,.45,1.54.09a2.33,2.33,0,0,0,2.08-1.82,2.69,2.69,0,0,0-2-3.55,3.46,3.46,0,0,0-1.06-.12c-.17,0-.32,0-.26-.27a9,9,0,0,0,.32-2.18c0-.27.15-.3.35-.25a1.45,1.45,0,0,1,.22.09,2.62,2.62,0,0,0,3.49-2,2.33,2.33,0,0,0-.67-2.24,4.37,4.37,0,0,0-2.5-1.12c-.24,0-.3-.11-.27-.33a44.14,44.14,0,0,0,.23-4.6c0-.32.07-.38.39-.33a2.28,2.28,0,0,0,.82.14,3.29,3.29,0,0,0,2.56-1.71,3.2,3.2,0,0,0-.32-2.79A3,3,0,0,0,75.57,9a2.51,2.51,0,0,0-1.95-.3c-.18.08-.25-.12-.21-.25a7,7,0,0,0,.14-.88,5.72,5.72,0,0,0,0-1.37c0-.18,0-.36,0-.54a.48.48,0,0,0,0-.17c0-.11,0-.21,0-.32a2.59,2.59,0,0,1,.55.07,2.13,2.13,0,0,0,2.37-.64,2.11,2.11,0,0,1,.36-.31,1.16,1.16,0,0,0,.5-.65,3.1,3.1,0,0,0,0-2.48A1.61,1.61,0,0,0,76.19.18c-.51-.06-1-.07-1.53-.16a.82.82,0,0,0-.61.09,2,2,0,0,1-1,.36c-.26,0-.42.21-.45.52-.06.49,0,.49-.52.34-.09,0-.19,0-.29-.05A12.89,12.89,0,0,0,70.12,1a1.19,1.19,0,0,0-1,.21c-.52.42-1.19.67-1.57,1.26a2.82,2.82,0,0,0-.24,1.41,0,0,0,0,1,0,0c0,.05,0,.09,0,.14a.46.46,0,0,0,.17.43,1.61,1.61,0,0,1,.39.51,2.74,2.74,0,0,0,.74.74,3.08,3.08,0,0,0,2.28.66c.13,0,.21,0,.19.19-.06,1-.1,2.07-.17,3.1a3.8,3.8,0,0,1-.23,1.72c-.2.35-.14.42-.52.23A1.51,1.51,0,0,0,69,11.52a5.15,5.15,0,0,0-1.45,1,.36.36,0,0,0-.13.25,1.89,1.89,0,0,1-.16.63,3.2,3.2,0,0,0-.1,1.3,3.24,3.24,0,0,0,1,1.72l.05,0c.71.26,1.37.75,2.21.44.19-.07.33,0,.3.29-.1,1-.18,1.94-.28,2.91-.19,1.81-.39,3.61-.58,5.41,0,.28,0,.65-.12.8s-.55,0-.82-.08a1.4,1.4,0,0,0-1.19.24l-1,.7a1,1,0,0,0-.34.4,4.68,4.68,0,0,0-.33,2.16c.09,1.15,1.46,2.11,2.33,2.33a2.54,2.54,0,0,0,.48,0c.13,0,.21,0,.18.22-.1.51-.18,1-.26,1.53a13.35,13.35,0,0,0-.29,1.88.71.71,0,0,1-.5.74,3.47,3.47,0,0,0-1.19.75,2.93,2.93,0,0,0-.57,1.6,2.12,2.12,0,0,0,.51,1.83,4.68,4.68,0,0,0,.55.54c.23.17.41.32.2.62,0,.05,0,.12,0,.18-.14,1.23-.4,2.44-.64,3.65,0,.21,0,.48-.11.62s-.42,0-.63,0-.28.06-.41.07c-.47,0-.68.46-1,.65a1.18,1.18,0,0,0-.56.66c-.07.14-.11.3-.19.44a2.23,2.23,0,0,0-.19,1.54,2.84,2.84,0,0,0,1.58,2,.41.41,0,0,1,.25.56c-.16.66-.31,1.32-.47,2l-.72,3c-.14.6-.29,1.2-.41,1.81s-.12.53-.62.42a1.69,1.69,0,0,0-1.11.05,2.53,2.53,0,0,0-1.36,1.33,2.46,2.46,0,0,0,.72,3.05,3.82,3.82,0,0,0,.54.26c.2.1.39.3.27.52A5.6,5.6,0,0,0,62,65.88c-.27,1-.58,2.07-.87,3.1,0,.1-.07.18,0,.28s.24,0,.27.13h-2a.83.83,0,0,0-.46.09,2.86,2.86,0,0,0-1.51,2.35c0,.32,0,.64,0,1a2.15,2.15,0,0,0,.59,1.46,2.21,2.21,0,0,0,.79.62c.59.24.64.43.4,1a3.43,3.43,0,0,0-.19.44c-.25.85-.5,1.71-.76,2.56-.43,1.41-.85,2.82-1.17,4.25-.16.72-.29,1.45-.46,2.16-.28,1.09-.51,2.2-.8,3.29l-.93,3.69c-.22.85-.57,1.66-.75,2.52s-.45,1.68-.7,2.52S53,98.9,52.87,99.7c-.08.43-.26.84-.3,1.28,0,0,0,.12-.09.13s-.13,0-.15-.14a.49.49,0,0,0,0-.12c-.1-1.21-.36-2.39-.57-3.59a37,37,0,0,0-.9-3.88c-.36-1.26-.77-2.51-1.11-3.77-.19-.73-.45-1.44-.68-2.16-.32-.94-.53-1.91-.85-2.85-.18-.53-.3-1.08-.43-1.62a7.09,7.09,0,0,0-.58-1.81,10.06,10.06,0,0,1-.63-1.53c-.25-.71-.42-1.45-.71-2.14-.36-.84-.7-1.69-1-2.55-.12-.34-.26-.67-.37-1s-.17-.4.24-.42a1.94,1.94,0,0,0,.24,0,2.58,2.58,0,0,0,1.12-.34,3,3,0,0,0,.81-1A2.41,2.41,0,0,0,46.24,69a3.32,3.32,0,0,0-1.33-.69,1.87,1.87,0,0,0-1.55.13,1.68,1.68,0,0,1-.42.22c-.17.07-.33,0-.36-.17-.07-.36-.26-.67-.36-1-.51-1.74-1-3.48-1.47-5.23,0-.17,0-.35.18-.36.63,0,1-.57,1.47-.82a1.59,1.59,0,0,0,.66-1.15,2.73,2.73,0,0,0-1.35-3.09A5.3,5.3,0,0,0,40,56.49c-.47-.1-.48-.05-.62-.54,0-.1,0-.19-.07-.29-.19-1-.38-1.95-.55-2.93a4,4,0,0,1-.15-1.54,4.55,4.55,0,0,0,.19-1.83c0-.17,0-.26.23-.27a2.63,2.63,0,0,0,2.36-2,2.35,2.35,0,0,0-.27-2,3,3,0,0,0-1.14-1A3.68,3.68,0,0,0,38,43.66c-.39,0-.38,0-.41-.4a14.63,14.63,0,0,0-.21-2.2c-.06-.25.14-.26.29-.19a2.61,2.61,0,0,0,1.68,0,2.67,2.67,0,0,0,1.82-2.13,2.81,2.81,0,0,0-.2-1.45,2.16,2.16,0,0,0-1.12-1.16c-.15-.08-.35-.09-.48-.22a1.13,1.13,0,0,0-.82-.26c-.26,0-.52,0-.78,0s-.38,0-.28-.38a18.86,18.86,0,0,0,.16-2.91c0-.13-.2-.27,0-.36s.26.06.38.12.15.14.23.19a2.75,2.75,0,0,0,2.13.5,2.55,2.55,0,0,0,1.77-1.21,3.26,3.26,0,0,0,.51-1.91,3.81,3.81,0,0,1,.06-.89,1.56,1.56,0,0,0-.3-1.35,2.13,2.13,0,0,0-2-.47,1.26,1.26,0,0,1-.51.15c-.24,0-.28,0-.17-.26a2.82,2.82,0,0,0,.47-1.4A2.74,2.74,0,0,0,38.84,23a4.54,4.54,0,0,0-1.19-.36A1.63,1.63,0,0,0,36,23a3.86,3.86,0,0,0-.7.7A3,3,0,0,0,35,26.2c.08.24,0,.3-.2.38a2.76,2.76,0,0,0-.95.45,3.47,3.47,0,0,0-1.07,1.89,3,3,0,0,0,1.69,3.39,5.91,5.91,0,0,0,.84.28c.1,0,.21.1.15.27a4.63,4.63,0,0,0-.09,1.66c0,.18-.06.21-.2.19a1,1,0,0,1-.29-.08,2,2,0,0,0-2,.3,2.1,2.1,0,0,0-.84.83,3.08,3.08,0,0,0-.11,2.7,2.39,2.39,0,0,0,1,1.2,2.71,2.71,0,0,0,1.53.5c.21,0,.45-.13.64,0s0,.45,0,.68c.09,1.09.11,2.18.19,3.27.06.91.15,1.83.28,2.73.05.32,0,.44-.28.57a2.83,2.83,0,0,0-1.46,1.63,3.14,3.14,0,0,0,0,1.82,1,1,0,0,0,.37.66A4,4,0,0,0,36,52.6a.4.4,0,0,1,.36.46,8.64,8.64,0,0,0,0,1.44c0,.28,0,.38-.28.48a3.06,3.06,0,0,0-1.6,4.16,3.88,3.88,0,0,0,1,1.15,1.82,1.82,0,0,0,1.15.42c.26,0,.52,0,.78,0s.32,0,.33.3A2.27,2.27,0,0,0,38,62c.14.25,0,.33-.21.35a5.08,5.08,0,0,1-.78,0c-.32,0-.59.11-.64.48a.48.48,0,0,1-.19.3,1.85,1.85,0,0,0-.67,1.52,2.89,2.89,0,0,0,.34,1.67c.18.29.63.38.59.82,0,0,.1.06.15.09a3.05,3.05,0,0,0,1.2.32A4.23,4.23,0,0,0,39,67.32c.32-.09.39,0,.49.29.15.48.31,1,.47,1.42.37,1.07.76,2.14,1.11,3.22a35.43,35.43,0,0,0,1.21,3.46c0,.12,0,.23-.05.24-.46.07-.57.51-.86.75-1,.87-.67,3.17.58,3.62a.88.88,0,0,1,.21.12,1.52,1.52,0,0,0,1.21.38l.54,0a.28.28,0,0,1,.32.26,10.82,10.82,0,0,0,.44,1.2,15.69,15.69,0,0,1,.72,2.13,8.72,8.72,0,0,0,.4,1.62c.37.82.49,1.71.78,2.56.12.37.3.73.39,1.12.16.7.34,1.39.54,2.08.36,1.3.81,2.57,1.15,3.88.23.89.41,1.78.55,2.68a19.27,19.27,0,0,0,.35,2,7.23,7.23,0,0,1,.27,1.76c0,1.1.07,2.18.14,3.27,0,.73,0,1.47.15,2.2.15,1,.26,2.1.39,3.14a3.84,3.84,0,0,1,0,.48,12.72,12.72,0,0,1-.22,2.13c-.12.93-.24,1.86-.34,2.79-.09.77-.18,1.54-.28,2.31-.13,1-.17,2-.25,3-.15,1.78-.32,3.57-.47,5.35-.06.73-.09,1.47-.15,2.2-.13,1.59-.27,3.18-.3,4.77l-.06,3.94c-.05,2.35-.17,4.69-.1,7.05,0,1.55.16,3.1.33,4.64,0,.08.05.17,0,.19s-.12-.08-.14-.16c-.23-.75-.44-1.52-.68-2.27-.54-1.68-1.23-3.31-1.86-5s-1.23-3.23-2-4.8c-.51-1.11-.93-2.27-1.49-3.37-.4-.77-.74-1.58-1.14-2.35-.58-1.11-1.19-2.21-1.79-3.31-.42-.78-.77-1.61-1.26-2.36-.11-.16-.31-.34-.3-.5s.3-.27.47-.39a2.52,2.52,0,0,0,1.07-2.21,2.31,2.31,0,0,0-.44-1.22,2.12,2.12,0,0,0-1.17-1,2.87,2.87,0,0,0-1.81,0c-.47.19-.54.15-.82-.3a8.75,8.75,0,0,0-.8-1.32,8,8,0,0,1-1.2-1.9,2.26,2.26,0,0,0-.51-.65,3,3,0,0,1-.72-.78,2.62,2.62,0,0,0-.61-.8c-.2-.19-.19-.34.08-.39a3,3,0,0,0,.82-.45,2.42,2.42,0,0,0,.7-3.33,2.75,2.75,0,0,0-1.45-1.17A2.43,2.43,0,0,0,29,110a2.88,2.88,0,0,0-.7,1.08c-.09.24-.23.31-.43.19a1.91,1.91,0,0,1-.33-.25,12.17,12.17,0,0,1-1.93-2,5.5,5.5,0,0,0-1-1,12.17,12.17,0,0,1-1.28-1.31,1.26,1.26,0,0,1-.26-.72c0-.12,0-.19.14-.19h.42a2.41,2.41,0,0,0,2.12-1.17,2.48,2.48,0,0,0-.84-3.5,3.17,3.17,0,0,0-1.47-.63c-.11,0-.17-.07-.16-.2.09-1.17.17-2.34.25-3.51,0-.23.11-.31.33-.33a4.22,4.22,0,0,0,1.22-.21A2.13,2.13,0,0,0,26.35,95a2.35,2.35,0,0,0-.12-2.17,2.76,2.76,0,0,0-1.74-1.24c-.55-.12-.63-.23-.61-.78a1.51,1.51,0,0,0,0-.3c0-.27.08-.34.34-.33s.48.18.76.12c1.62-.35,2.52-1.19,2.47-3a2.36,2.36,0,0,0-.84-1.78,3,3,0,0,0-1.75-.78c-.19,0-.24-.11-.17-.28a5.66,5.66,0,0,0,.25-1.83c0-.74.18-1.47.14-2.21,0-.19.07-.31.29-.24a6.66,6.66,0,0,0,.76.12,2.5,2.5,0,0,0,2.39-.9A2.74,2.74,0,0,0,29.18,78a2.56,2.56,0,0,0-.52-2.13,6.23,6.23,0,0,0-1.21-1,.6.6,0,0,0-.39-.12,10.26,10.26,0,0,0-1.36,0c-.05,0-.12,0-.13-.06s0-.07.07-.09a2.79,2.79,0,0,0,1.1-2.31c0-.16,0-.32,0-.48a1.94,1.94,0,0,0-.43-1.27,2.9,2.9,0,0,0-2.11-1.27,2,2,0,0,0-2.05.76,1.8,1.8,0,0,1-.3.37,1.53,1.53,0,0,0-.51,1,3.08,3.08,0,0,0,0,1.65,2.92,2.92,0,0,0,1.73,1.74c.21.07.32.18.23.45A4.61,4.61,0,0,0,23,76.46c-.23,2-.42,4-.64,5.93,0,.21,0,.48-.15.62s-.33-.1-.51-.08a1.47,1.47,0,0,1-.36,0,2.32,2.32,0,0,0-2.19.76l-.29.37a2.4,2.4,0,0,0-.51,2.39,2.39,2.39,0,0,1,.12.46c.07.68.76,1.12,1.38,1.39a13.6,13.6,0,0,0,1.41.45c.14,0,.2.08.17.24a25.18,25.18,0,0,0-.23,4.16c0,.23-.08.34-.29.35a3,3,0,0,1-.42,0,2.39,2.39,0,0,0-2.17,1.58,2.51,2.51,0,0,0,.07,2,1,1,0,0,0,.19.3,4.39,4.39,0,0,0,1.72,1.12l.34.1c.11,0,.19.1.16.26a19.31,19.31,0,0,0-.19,2.74c0,.87-.08,1.74-.08,2.61,0,.3-.13.29-.33.27a.78.78,0,0,1-.21-.09c-1.22-.57-2.26-1.44-3.44-2.09-.59-.32-1.11-.76-1.72-1a.29.29,0,0,1-.17-.39,1.72,1.72,0,0,1,.14-.4,2.38,2.38,0,0,0,.07-1.85,2,2,0,0,0-.7-1.15,5.79,5.79,0,0,0-1.73-.75,1,1,0,0,0-.59,0,3.07,3.07,0,0,0-1.59.88c-.14.2-.31.19-.51.06a6.58,6.58,0,0,0-1.61-.76c-.09,0-.16-.12-.25-.16-.28-.12-.19-.25,0-.38a.78.78,0,0,0,.15-.1c.84-1,1.29-1.61.75-3a2.73,2.73,0,0,0-1-1.25,2.75,2.75,0,0,0-3.39,0,.32.32,0,0,1-.43,0A2.19,2.19,0,0,0,3.61,92a2.44,2.44,0,0,0-2.33.11,2.82,2.82,0,0,0-.77.81,2.76,2.76,0,0,0,1.05,4c.26.14.2.23.05.38a2,2,0,0,0-.62.92,3.73,3.73,0,0,0,.23,2.4,2.83,2.83,0,0,0,3.72,1.1,2.33,2.33,0,0,0,1-1,3.84,3.84,0,0,0,.3-1.61c0-.22,0-.23.24-.16.53.18.92.6,1.42.82.17.07.09.23,0,.36a2.13,2.13,0,0,0-.3.77,2.71,2.71,0,0,0,1.84,2.93,1.87,1.87,0,0,0,.46.09,2.54,2.54,0,0,0,2-.9c.43-.44.41-.43.93-.07a19.39,19.39,0,0,0,1.79,1.29,3.54,3.54,0,0,1,1,.55,3.71,3.71,0,0,0,1.25.8c1.07.47,2,1.13,3.07,1.67a.59.59,0,0,1,.37.62c0,.12,0,.24,0,.35a37,37,0,0,0,.11,5.67c0,.29-.08.37-.36.41a2.12,2.12,0,0,0-1.22.38,2.74,2.74,0,0,0-1.13,2,2.48,2.48,0,0,0,1.42,2.56,2.34,2.34,0,0,0,1.42.25c.21,0,.36,0,.35.28a18.08,18.08,0,0,0,.28,3.44.22.22,0,0,1-.12.29,2.81,2.81,0,0,0-.54,4.76,2.53,2.53,0,0,0,1.6.56c.22,0,.46,0,.37.37a.34.34,0,0,0,0,.17c.35,1,.55,2,.84,2.92.42,1.41,1,2.78,1.41,4.18.31.94.72,1.85,1.08,2.77a4.61,4.61,0,0,0,.68,1.52c.17.19,0,.23-.14.23a1.14,1.14,0,0,0-.84.25,2.94,2.94,0,0,0-1.18,3.25,2.5,2.5,0,0,0,.71,1.22,2.89,2.89,0,0,0,3.06.48c.41-.17.58-.11.71.31.35,1.18.89,2.3,1.29,3.46a5.57,5.57,0,0,0,.59,1.23c.51.78,1,1.57,1.48,2.37.16.27.11.35-.12.49a2.07,2.07,0,0,0-.82.76,3.49,3.49,0,0,0-.37,1.49,2.53,2.53,0,0,0,1,2.31l.74.47a1.92,1.92,0,0,0,1.14.28,2.36,2.36,0,0,0,.74-.18c.44-.17.51-.12.74.29a9.83,9.83,0,0,0,1,1.7.65.65,0,0,1-.05.86,2.23,2.23,0,0,0-.56,1.1,2.81,2.81,0,0,0,.67,2,1.62,1.62,0,0,0,1.37.67,2,2,0,0,0,.92-.2.28.28,0,0,1,.43.16,17.2,17.2,0,0,0,1.2,1.85c.44.72,1,1.4,1.38,2.14.59,1.09,1.32,2.08,2,3.11.48.73.93,1.49,1.41,2.22.7,1,1.31,2.17,2,3.25.46.74,1,1.44,1.42,2.19s.83,1.63,1.32,2.4a10.26,10.26,0,0,1,.88,1.63A23.12,23.12,0,0,0,51.74,187c.76,1.43,1.5,2.86,2.17,4.32.14.32.33.61.46.93a23.45,23.45,0,0,0,1.28,3.32,10.42,10.42,0,0,1,.74,2.5c.25.88.42,1.78.66,2.66s.52,1.46.75,2.2c.31,1,.65,2.05,1,3.07s.77,2.3,1.25,3.65c.3.82.59,1.65,1,2.46a23.56,23.56,0,0,1,.89,2.43c2.61,6.41,6.62,14.09,13.28,20.55A15.81,15.81,0,0,0,77,236.41a9.72,9.72,0,0,1,1.79,1.34,1.53,1.53,0,0,0,.3.19c.49.36,1.06.6,1.55,1a4,4,0,0,0,1.84.92,4.68,4.68,0,0,1,1.32.5,2.24,2.24,0,0,0,1.21.2,1,1,0,0,0,.87-1.34,1.39,1.39,0,0,0-.9-.82,3.77,3.77,0,0,1-.91-.54,5.2,5.2,0,0,0-.93-.65,7.6,7.6,0,0,1-2.08-1.33l-.85-.74a8.92,8.92,0,0,1-1.76-1.66.86.86,0,0,0-.24-.26,19.11,19.11,0,0,1-2.06-1.86,1.52,1.52,0,0,1-.41-.43,9.94,9.94,0,0,0-1.56-1.86c-.56-.67-1.07-1.37-1.59-2.07s-1-1.43-1.55-2.15a21.9,21.9,0,0,1-1.47-2.3,21.36,21.36,0,0,1-1.15-2.16c-.32-.77-1-1.34-1.18-2.16,0,0,0-.07-.08-.08-.26-.09-.31-.34-.43-.55-.3-.49-.55-1-.9-1.47a2.3,2.3,0,0,1-.45-1,6,6,0,0,0-.52-1.64,1.44,1.44,0,0,1-.08-.46,5.37,5.37,0,0,0-.58-2,2.32,2.32,0,0,1-.28-.79,10.34,10.34,0,0,0-.39-1.55,10,10,0,0,1-.52-2.38,36.07,36.07,0,0,1-.27-4.29c0-1.37,0-2.75,0-4.12.11-1.91.32-3.81.59-5.71.12-.82.15-1.66.34-2.48.33-1.41.7-2.81.91-4.24.12-.85.31-1.69.43-2.54.37-2.4.91-4.76,1.45-7.12.11-.49.25-1,.36-1.45a19.32,19.32,0,0,1,.71-2.58c.25-.67.52-1.33.72-2,.29-.95.64-1.89,1-2.82.13-.38.37-.7.47-1.1s.29-1.06.46-1.59a14.87,14.87,0,0,1,.55-1.5c.15-.33.38-.65.51-1a9.42,9.42,0,0,1,.8-1.66c.47-.75.66-1.61,1.09-2.38.29-.54.53-1.14.79-1.72a22,22,0,0,1,1.4-2.62,38.19,38.19,0,0,1,2.12-3.23c.28-.36.52-.75.83-1.08a12.59,12.59,0,0,1,2-1.93s.1-.07.13-.12a8.54,8.54,0,0,1,2-1.84A25.32,25.32,0,0,1,85,143.3a6.7,6.7,0,0,1,1.35-1c.19-.08.34-.39.55-.25s0,.37,0,.57a2.9,2.9,0,0,0,.83,2.09,7.26,7.26,0,0,0,1.08.61,1.65,1.65,0,0,0,1.12.21c.23,0,.39-.18.61-.24,1.44-.39,2-2.33,1.38-3.6a2.56,2.56,0,0,0-1.2-1.25c-.07,0-.16-.1-.16-.16s.14-.1.2-.16a10.86,10.86,0,0,1,1.61-.87c.6-.38,1.24-.72,1.86-1.06a5.24,5.24,0,0,0,1.49-1,.34.34,0,0,1,.53,0,2,2,0,0,0,1.17.53,2.39,2.39,0,0,0,1.83-.34,2.31,2.31,0,0,0,.85-2.7,2.24,2.24,0,0,0-.57-1c-.08-.08-.2-.19-.11-.31a9.35,9.35,0,0,1,.93-1.15c.1-.1.24-.11.28,0,.08.32.35.47.53.71a2.65,2.65,0,0,0,4-.18,3.06,3.06,0,0,0,.14-3.25c-.25-.39-.25-.45.17-.66a1.59,1.59,0,0,0,.87-1.07c0-.23.15-.46.18-.69a2.16,2.16,0,0,0-.35-1.92c-.1-.12-.16-.27-.25-.4a.32.32,0,0,1,0-.34c.18-.37.33-.76.55-1.12s.31-.46.7-.15a3.25,3.25,0,0,0,.52.28,2,2,0,0,0,2.74-.28l.1-.07a2.39,2.39,0,0,0,.75-2.53,2.56,2.56,0,0,0-1.69-2c-.2-.07-.27-.11-.15-.31a1.33,1.33,0,0,0,.1-.28c.14-.38.13-.37.54-.28a4,4,0,0,0,1.42.13A2.71,2.71,0,0,0,113.47,115.09Zm-60.8,67.42a.17.17,0,0,1-.14-.08c-.2-.36-.39-.74-.59-1.1-.42-.77-.83-1.54-1.27-2.29a21.87,21.87,0,0,0-1.23-1.89c-.31-.42-.48-.91-.8-1.32s-.44-.83-.75-1.2a2.49,2.49,0,0,1-.53-.92,1.18,1.18,0,0,0-.25-.4,6.38,6.38,0,0,1-.58-1,17.61,17.61,0,0,0-1.06-1.72c-.51-.76-1-1.54-1.42-2.33a1.58,1.58,0,0,0-.22-.29,25.25,25.25,0,0,1-2.26-3.26c-.48-.77-.91-1.58-1.42-2.33a15.86,15.86,0,0,0-1-1.35,14.76,14.76,0,0,1-1.07-1.63c-.6-1-1-2-1.61-3a.37.37,0,0,1-.06-.22,3,3,0,0,0-.82-1.93c-.22-.33-.24-.34.07-.54s.34-.39.6-.49a.16.16,0,0,0,.09-.07c.21-.78.74-1.51.49-2.39a2.46,2.46,0,0,0-.22-.61,1,1,0,0,1-.22-.65c0-.24-.18-.35-.35-.45a2.56,2.56,0,0,0-1.77-.45,2.56,2.56,0,0,0-1.38.21c-.15.1-.28,0-.33-.19a11.56,11.56,0,0,0-.86-2.23c-.1-.22-.09-.3.09-.44a2.49,2.49,0,0,0,.64-3.4,2.9,2.9,0,0,0-2.42-1.42c-.49,0-.52,0-.6-.51a8.57,8.57,0,0,0-.56-1.37c-.23-.64-.51-1.25-.78-1.87a.47.47,0,0,0-.05-.1c-.06-.15-.36-.13-.28-.32s.29-.08.45-.11A2.89,2.89,0,0,0,30,135.7a2,2,0,0,0,.36-.81,2.57,2.57,0,0,0-.76-2.6,3.25,3.25,0,0,0-1.48-.8,3.86,3.86,0,0,0-1.59.1c-.49.11-.49.12-.62-.35-.35-1.26-.69-2.53-1-3.79a5.06,5.06,0,0,1,0-1.23c0-.22.22-.33.42-.37a2,2,0,0,0,1.39-1.48,2.4,2.4,0,0,0,0-1.86,1.89,1.89,0,0,0-.74-.91c-.51-.3-1-.8-1.65-.72H24.2c-.59-.1-.57-.1-.62-.69-.11-1.49-.23-3-.36-4.46s-.17-3-.23-4.54c0-.28,0-.55,0-.83a.22.22,0,0,1,.08-.15c.06,0,.11,0,.15.06a22.23,22.23,0,0,1,1.88,1.88,9,9,0,0,0,1.46,1.29,10.34,10.34,0,0,1,2.56,2.51c.16.24.17.36,0,.54a2.39,2.39,0,0,0-.74,1.52,2.56,2.56,0,0,0,1.4,2.65,3.9,3.9,0,0,0,2.33.22c.47-.06.49-.09.67.33a4.32,4.32,0,0,0,.33.5,54.72,54.72,0,0,1,3,5.18,1.31,1.31,0,0,0,.17.24c.2.29.2.36-.11.46a.83.83,0,0,0-.44.38c-.24.32-.45.66-.67,1a.52.52,0,0,0-.06.16c-.15.94.25,2.36,1.13,2.68a.47.47,0,0,1,.28.22c0,.07.07.16.15.16.45,0,.91.13,1.34-.12a1,1,0,0,1,.21-.1c.42-.12.31-.2.51.2.35.71.75,1.4,1.11,2.11,1,2,1.89,4.15,2.77,6.26.66,1.58,1.23,3.18,1.9,4.76a45.46,45.46,0,0,1,1.74,5.25c.33,1.17.71,2.32,1,3.49s.67,2.49.92,3.76.5,2.46.82,3.67c.11.41.16.82.24,1.23.57,3,1.24,6,1.65,9.11.3,2.23.68,4.45,1.11,6.65.25,1.27.46,2.55.8,3.8a.43.43,0,0,1,0,.12S52.74,182.49,52.67,182.51Z"/></svg>