<svg id="Layer_1" data-name="Layer 1" xmlns="http://www.w3.org/2000/svg" viewBox="0 0 423.5 358.83"><defs><style>.cls-1{fill:#95a799;}.cls-2{fill:#4d6051;}</style></defs><path class="cls-1" d="M288.22,171.69c-.08-.35-.19-.7-.24-1.05-.13-1.17-1.21-1.61-1.85-2.39a3.34,3.34,0,0,0-3.18.38c-1.09.76-1.71,2-2.77,2.72a1.23,1.23,0,0,0-.34.61,40,40,0,0,1-1.91,4.59c-.55,1-.94,2.06-1.57,3s-1.24,2.2-1.91,3.27-1.06,2.21-2.51,2.36c-.15,0-.25.13-.37.23a.77.77,0,0,1-.92,0,11.24,11.24,0,0,0-1.3-.55,2.93,2.93,0,0,0-3.24.47c-2.49,1.76-1.92,5.1-.31,6.72a6.81,6.81,0,0,0,.9.56,1.38,1.38,0,0,1,.43.53c0,.06-.24.24-.36.36s-.19.23-.28.35c-.76,1.12-1.73,2.08-2.53,3.17a22,22,0,0,1-1.84,2,12.76,12.76,0,0,1-1.65,1.46c-.29.2-.42.19-.65,0a4.78,4.78,0,0,0-3.08-1.55,3.31,3.31,0,0,0-2.2.45,4.24,4.24,0,0,0-1.41,4.69c.26.61.26.61-.29.92a4.16,4.16,0,0,1-.48.22c-1.63.7-3.23,1.45-4.89,2.06a13.36,13.36,0,0,0-2.43,1.27c-.64.4-1.18,1-1.83,1.38a8,8,0,0,0-1.23,1,15.53,15.53,0,0,1-2.08,1.8c-.08,0-.16.08-.24,0s0-.16,0-.24a5.47,5.47,0,0,0,.9-1.43c.31-.87.77-1.67,1.13-2.51.67-1.55,1.55-3,2.22-4.56.79-1.85,1.81-3.6,2.5-5.5.28-.78.68-1.51,1-2.28.51-1.33,1.32-2.52,1.75-3.88.19-.6.21-.61.8-.35a6,6,0,0,0,2.59.49,2.66,2.66,0,0,0,1.91-.79,3.54,3.54,0,0,0,.88-2.89,3.43,3.43,0,0,0-2.06-2.87,4.27,4.27,0,0,0-1.14-.49c-.18,0-.23-.14-.16-.32.37-1,.73-2.07,1.12-3.1.27-.72.32-.76,1-.58a3.59,3.59,0,0,0,2.33-.15,3.9,3.9,0,0,0,2.36-4.21,4.93,4.93,0,0,0-1.68-2.54c-.35-.34-.91-.35-1.16-.81a3,3,0,0,0,.46-1.48,1.22,1.22,0,0,1,.07-.17c.15-.56.26-.64.77-.35a4.5,4.5,0,0,0,2.82.41,2.74,2.74,0,0,0,2-1.19,4,4,0,0,0,.7-2.18,3.41,3.41,0,0,0-2.86-3.86c-.38-.08-.75-.21-1.12-.32s-.25-.2-.14-.4a3.52,3.52,0,0,0,.55-1.68c0-.41.21-.43.51-.38.15,0,.29.07.43.09a4.17,4.17,0,0,0,3.83-1.16,4.74,4.74,0,0,0,.71-1.12,3.11,3.11,0,0,0,.25-3.13.78.78,0,0,1-.09-.33,2,2,0,0,0-.72-1.27,3.93,3.93,0,0,0-3.23-1.38c-.62.08-.74-.13-.58-.74a33.19,33.19,0,0,0,.74-3.83c.23-1.53.31-3.07.51-4.6a8.24,8.24,0,0,0,.07-3.53.23.23,0,0,1,.21-.31,3.16,3.16,0,0,1,.79-.12,1.44,1.44,0,0,0,1.11-.49,2.93,2.93,0,0,1,.46-.4,4.37,4.37,0,0,0,1.6-3.84,1.81,1.81,0,0,0-.23-.76c-.18-.37-.39-.73-.61-1.09a3.55,3.55,0,0,0-3.65-1.44,5.41,5.41,0,0,0-3.25,2.93,2,2,0,0,0-.18,1.31,7,7,0,0,1-.06,2.57c0,.23-.17.45-.08.69.13.4-.09.43-.41.46a4.33,4.33,0,0,0-3.36,2,4.11,4.11,0,0,0,.3,4.48,6.39,6.39,0,0,0,2.1,1.47.55.55,0,0,1,.33.62c-.08,1.34-.45,2.63-.55,4,0,.26-.21.33-.46.23s-.67-.24-1-.35a2.35,2.35,0,0,0-2.06.22,4.34,4.34,0,0,0-1.87,5.69,4.19,4.19,0,0,0,3.55,2.42,1.79,1.79,0,0,1,.85.25.74.74,0,0,1,.39,1c-.71,2.08-1.35,4.18-1.86,6.31-.11.43-.33.49-.64.32a5.09,5.09,0,0,0-2.62-.28.84.84,0,0,0-.42.09,4,4,0,0,0-2.26,3.84,3.47,3.47,0,0,0,1.78,3.1,6.29,6.29,0,0,0,1.14.6c.65.18.42.45.3.81-.59,1.68-1.18,3.35-1.83,5s-.22,1.56-2.07,1.15a5.15,5.15,0,0,0-2.65.39c-.55.16-.66.7-1,1a2.78,2.78,0,0,0-.87,1.78,8.33,8.33,0,0,0,.08,1.58,3.71,3.71,0,0,0,2.07,3c.22.15.46.27.69.4s.25.23.06.41a1.13,1.13,0,0,0-.28.34c-1,2.1-1.85,4.29-2.83,6.41-.65,1.42-1.29,2.85-2,4.25-.52,1.09-1.14,2.16-1.61,3.25-.76,1.76-1.72,3.4-2.52,5.14-.5,1.1-1.08,2.16-1.63,3.25-.05.1-.05.25-.2.24s-.24-.16-.28-.3a1.37,1.37,0,0,1,0-.45,43.61,43.61,0,0,0,.47-5.23,1.62,1.62,0,0,1,.93-1.44,3.48,3.48,0,0,0,1.94-3.39,3.34,3.34,0,0,0-1.11-2.53,3.83,3.83,0,0,0-.93-.66c-.51-.23-.9-.57-.7-1.25a2.64,2.64,0,0,0,0-1q-.42-4.12-.82-8.26a47.36,47.36,0,0,0-.66-5.3c-.12-.59,0-.79.53-1.05a3.1,3.1,0,0,0,1.1-4.54A4.14,4.14,0,0,0,232,178c-.75-.12-.76-.14-.86-.84-.06-.39-.35-.91-.13-1.15s.77-.23,1.18-.24a3.76,3.76,0,0,0,3-1.67,4.23,4.23,0,0,0-1.44-6.4,3.66,3.66,0,0,0-3.49-.05,2.39,2.39,0,0,0-1.1,1.12c-.3.65-1,1.15-.84,2,0,.31-.28.32-.43.18a3.66,3.66,0,0,0-1.1-.55,3,3,0,0,0-3.6.9c-.17.2-.34.41-.53.6a2.38,2.38,0,0,0-.71,1.85,9.7,9.7,0,0,0,.17,1.51,3.33,3.33,0,0,0,1.74,2.41c.94.54,1.9,1.08,3.06.61.28-.11.55-.08.54.33a4.59,4.59,0,0,0,.35,1.46,39.55,39.55,0,0,1,1.63,6.73,4.18,4.18,0,0,0,.16,1c0,.2.07.38.11.57-.55,0-.9.47-1.37.65a3.46,3.46,0,0,0-2,2.65,4,4,0,0,0,1,3.63,4.58,4.58,0,0,0,2.65,1.31c.65.17.65.16.7.81.06.94.1,1.89.2,2.83a2.73,2.73,0,0,1-.51,2,3.11,3.11,0,0,0-.5,2.55,4.94,4.94,0,0,0,.69,1.72,1.77,1.77,0,0,1,.33,1.25c-.22,2.57-.69,5.11-1.12,7.66-.35,2.14-.94,4.22-1.44,6.32-.33,1.36-.86,2.65-1.31,4a20,20,0,0,1-1.28,3,13,13,0,0,0-1.08,2.14,9.54,9.54,0,0,0-.78,2.82,1.42,1.42,0,0,1-.17.59c-.59,1.33-1.15,2.66-1.64,4a2.41,2.41,0,0,0-.16,1.47.71.71,0,0,1-.06.68,6.54,6.54,0,0,0-.7,1.43,21.59,21.59,0,0,0-1.33,3c-.47,1.47-.84,3-1.39,4.41-.34.92-.51,1.89-.86,2.81a70.81,70.81,0,0,0-2.38,7c-.48,1.84-.84,3.71-1.3,5.56a64,64,0,0,0-1.32,6.53c-.5,3.48-1.3,6.89-1.93,10.33-.29,1.55-.61,3.08-.88,4.63-.18,1-.08,2-.28,3a20.24,20.24,0,0,0-.37,2.56c-.14,2.49-.24,5-.35,7.47,0,.13.06.34-.16.33s-.21-.13-.24-.23a17.79,17.79,0,0,1-.62-2c-.7-3.06-1.46-6.12-2.37-9.13-.46-1.5-.92-3-1.37-4.5a28.72,28.72,0,0,1-.68-2.95c-.17-1-.42-1.9-.58-2.87-.31-1.81-.53-3.64-1-5.44-.55-2.28-1.06-4.57-1.5-6.87-.38-2.08-.76-4.15-1.11-6.23s-.69-4.4-1-6.61-.55-4.35-.8-6.53c-.19-1.62-.31-3.24-.45-4.87-.17-2.09-.32-4.18-.57-6.26s-.27-3.91-.4-5.87c-.13-1.81-.27-3.61-.39-5.42-.08-1.19-.06-2.38-.22-3.56-.29-2.24-.26-4.5-.44-6.75-.1-1.22.09-2.43.1-3.65,0-2.28,0-4.57.06-6.86,0-1.38.09-2.77.15-4.15.06-1.54.07-3.09.21-4.63.24-2.51.32-5,.54-7.55.14-1.49.16-3,.4-4.44.45-2.67.71-5.36,1.16-8,.35-2.08.85-4.12,1.31-6.17a18.9,18.9,0,0,1,1.35-3.66c.35-.75.61-1.56,1-2.27.78-1.39,1.51-2.79,2.22-4.22s1.49-2.55,2.25-3.82c.47-.77.72-1.35,1.43-2.41,0,0,0,0,0-.06a10.6,10.6,0,0,0,1.19-2.06c.62-1.19,1.39-2.28,2.09-3.41.89-1.45,2-2.79,2.95-4.21,1.32-1.92,2.7-3.81,3.9-5.82.4-.69.8-1.38,1.23-2.06.71-1.09,1.45-2.17,2.16-3.26.34-.52.66-1.06,1-1.6.43-.79.53-.81,1.26-.29a4.11,4.11,0,0,0,1.61.89,6,6,0,0,0,2.12,0,2.86,2.86,0,0,0,2.19-1.34c.18-.34.4-.66.56-1a3.51,3.51,0,0,0-.23-3.57,4.19,4.19,0,0,0-2.69-2c-.28-.06-.42-.28-.19-.53a11,11,0,0,0,.95-1.48,40.38,40.38,0,0,0,2.62-4.32c.18-.37.35-.75.52-1.13s.19-.34.49-.09a3.88,3.88,0,0,0,6.12-1.17c1.24-1.81.65-4.21-1.44-5.57a4.07,4.07,0,0,0-1.13-.5c-.37-.1-.36-.26-.19-.58.65-1.19,1.27-2.4,1.89-3.6.16-.3.36-.31.57-.14a7.79,7.79,0,0,0,1.14.84,3.8,3.8,0,0,0,3.79.27,4.56,4.56,0,0,0,2.22-2.26,4.33,4.33,0,0,0-1.24-4.6,3.45,3.45,0,0,0-1.72-.65c-.27,0-.65,0-.7-.29-.12-.68-.55-1.29-.2-2.06a28.7,28.7,0,0,0,1.72-4.18,2.35,2.35,0,0,1,.62-1,6.44,6.44,0,0,0,1-1.33c.28-.5.31-.48.82-.23a4.15,4.15,0,0,0,4.92-1,4.27,4.27,0,0,0,.91-2.54,3.9,3.9,0,0,0-1.16-3.3c-.23-.22-.57-.33-.78-.56a2.69,2.69,0,0,0-1.46-.74c-.66-.14-.64-.18-.39-.84a23.72,23.72,0,0,0,.85-2.63c.31-1.29.71-2.57,1.05-3.85.1-.36.3-.37.51-.18a2.49,2.49,0,0,0,2.61.28,5.42,5.42,0,0,0,3.4-2.92,3.92,3.92,0,0,0,.16-3.45,4.52,4.52,0,0,0-4.9-2.56.64.64,0,0,1-.65-.15,5.23,5.23,0,0,0-1.83-1.05A3.54,3.54,0,0,0,242.61,63a7.41,7.41,0,0,0-.42,1.07,3.17,3.17,0,0,0-.05,3.27c.13.24.16.48-.14.59a4.37,4.37,0,0,0-1.86,6.84,5.25,5.25,0,0,0,2.37,1.64c.49.12.36.24,0,.45-.15.09-.21.35-.28.54-.34,1-.67,2-1,3-.26.78-.29.8-1.09.74l-.35,0a2.86,2.86,0,0,0-3,.88,4.1,4.1,0,0,0-1.18,3.88c.26,1.15.55,2.35,1.86,2.87.37.15.45.38.15.74a2.58,2.58,0,0,0-.43,1c-.23.91-.75,1.19-1.69,1.09a3.24,3.24,0,0,0-3.25,2,4,4,0,0,0,1,5.37c.25.2.18.34.06.59-.82,1.64-1.59,3.31-2.42,4.94-.55,1.08-1.06,2.18-1.7,3.22a8.27,8.27,0,0,0-1.07,2.31c-.12.5-.31.54-.79.29a6.57,6.57,0,0,0-2.13-.55,1.66,1.66,0,0,0-.88.07,4.86,4.86,0,0,0-2.93,4.47,1.61,1.61,0,0,0,0,.44,4.38,4.38,0,0,0,2.08,2.92c.28.15.5.37.25.6-.46.45-.52,1.14-1,1.56-.25.22-.08.85-.59.76a3.13,3.13,0,0,1-1-.23c-.15-.08-.35-.08-.47-.23a.64.64,0,0,0-.74-.15,9.18,9.18,0,0,0-1.75.64,3.59,3.59,0,0,0-1.42,1.42,4.45,4.45,0,0,0,.81,5.11l.18.19c.18.19.3.36.09.62s-.17.38-.29.55c-1.21,1.72-2.31,3.5-3.44,5.28-.92,1.45-1.78,2.94-2.81,4.32a10,10,0,0,0-1.18,1.64,26.11,26.11,0,0,1-2.18,3.23c-.83,1.22-1.72,2.4-2.49,3.66a14.63,14.63,0,0,0-.79,1.39c-.45.93-1.11,1.73-1.54,2.69a15.54,15.54,0,0,1-1.63,2.85,3.3,3.3,0,0,0-.62,1,1.51,1.51,0,0,1-.56.79.29.29,0,0,1-.24,0,.14.14,0,0,1-.06-.22,2.25,2.25,0,0,0,.31-1,13.93,13.93,0,0,1,.29-1.4,5.94,5.94,0,0,0,.32-1.29,3.26,3.26,0,0,1,.25-1.23c.5-1.23.64-2.56,1.09-3.82.81-2.26,1.15-4.66,1.92-6.94a38.27,38.27,0,0,0,1.16-4c.28-1.36.79-2.67,1-4,.14-.79.29-1.58.48-2.36.66-2.74,1.31-5.48,2-8.21.51-2,1.12-3.87,1.7-5.8.3-1,.63-2,.9-3.07a4.29,4.29,0,0,1,.74-1.59,4.35,4.35,0,0,0,.91-3.17,5.58,5.58,0,0,1,.34-2.34c.33-1,.64-2.1.9-3.16a70,70,0,0,1,2-7.55c.33-.87.39-1.8.67-2.67s.56-1.88.84-2.82c.17-.58.22-.62.78-.41a4.26,4.26,0,0,0,3.12,0c.17-.06.4-.07.48-.19.53-.73,1.28-1.27,1.46-2.28a3.43,3.43,0,0,0-.82-3.43A4,4,0,0,0,220.42,81a3,3,0,0,1-.43-.12c-.19,0-.23-.15-.17-.33a20.65,20.65,0,0,0,.68-3.12,1.52,1.52,0,0,1,.43-1.05,4.88,4.88,0,0,0,1.18-1.85c.18-.35,0-.9.32-1.06a3.33,3.33,0,0,1,1.23-.06h.27a3.8,3.8,0,0,0,3.47-5.11,4.15,4.15,0,0,0-3.23-2.86c-.29-.07-.58-.09-.86-.16s-.43-.18-.36-.43c.25-.86.26-1.76.47-2.62a1,1,0,0,1,.48-.61A3.79,3.79,0,0,0,225.66,59a3.27,3.27,0,0,0-.67-3.07,1.57,1.57,0,0,1-.38-1.47,52.19,52.19,0,0,0,.91-5.41c0-.38.14-.46.57-.32.73.26,1.5.68,2.3.15,1.74-.1,2.6-1.33,3.09-2.72a4,4,0,0,0-3-5.29,5.3,5.3,0,0,0-1.58-.19c-.26,0-.49,0-.4-.41A13.66,13.66,0,0,0,227,37c0-.4.22-.43.52-.37.11,0,.22.1.33.14a3.9,3.9,0,0,0,5.2-3,3.48,3.48,0,0,0-1-3.34,6.58,6.58,0,0,0-3.72-1.68c-.37,0-.45-.16-.41-.49a68.16,68.16,0,0,0,.35-6.85c0-.49.1-.58.57-.5a3.2,3.2,0,0,0,1.22.21,4.91,4.91,0,0,0,3.82-2.56,4.76,4.76,0,0,0-.47-4.15,4.53,4.53,0,0,0-1.75-1c-.92-.33-1.84-.88-2.9-.43-.28.11-.38-.18-.31-.38.15-.43.1-.89.21-1.32a8.64,8.64,0,0,0,.06-2c0-.27,0-.54,0-.81a2.44,2.44,0,0,0,0-.26V7.67a3.92,3.92,0,0,1,.83.1,3.19,3.19,0,0,0,3.53-.95,2.63,2.63,0,0,1,.54-.46,1.76,1.76,0,0,0,.75-1c.36-1.23.72-2.48.06-3.71A2.34,2.34,0,0,0,232.62.27c-.76-.09-1.53-.11-2.28-.24a1.29,1.29,0,0,0-.92.13,2.81,2.81,0,0,1-1.56.53c-.39,0-.63.33-.68.79-.08.73-.07.72-.76.51-.14-.05-.3,0-.44-.08a17.86,17.86,0,0,0-2.42-.48,1.73,1.73,0,0,0-1.51.32c-.79.62-1.79,1-2.35,1.88a4.17,4.17,0,0,0-.36,2.1l0,0a1.36,1.36,0,0,1,0,.2.65.65,0,0,0,.25.64,2.59,2.59,0,0,1,.59.77,4.11,4.11,0,0,0,1.1,1.1,4.53,4.53,0,0,0,3.4,1c.19,0,.31,0,.29.29-.1,1.54-.16,3.08-.26,4.62a5.69,5.69,0,0,1-.34,2.57c-.3.53-.22.63-.78.35a2.27,2.27,0,0,0-1.73-.1,7.83,7.83,0,0,0-2.16,1.52.54.54,0,0,0-.19.38,3,3,0,0,1-.25.94,4.76,4.76,0,0,0-.14,1.94,4.84,4.84,0,0,0,1.48,2.56l.07.05c1.06.39,2.05,1.12,3.3.66.28-.11.49,0,.44.43-.15,1.45-.26,2.9-.42,4.35q-.42,4-.87,8.06c0,.41.06,1-.17,1.2s-.81-.05-1.23-.13a2.15,2.15,0,0,0-1.77.36c-.47.36-1,.7-1.44,1a1.41,1.41,0,0,0-.52.59,7.07,7.07,0,0,0-.48,3.22c.14,1.72,2.18,3.15,3.47,3.48a4.22,4.22,0,0,0,.71,0c.2,0,.33.08.28.33-.15.76-.27,1.52-.4,2.27a22.69,22.69,0,0,0-.42,2.81,1.07,1.07,0,0,1-.74,1.11,5.32,5.32,0,0,0-1.79,1.11,4.35,4.35,0,0,0-.84,2.4,3.07,3.07,0,0,0,.76,2.72,5.63,5.63,0,0,0,.82.8c.35.26.61.49.29.94a.55.55,0,0,0-.05.26c-.22,1.83-.6,3.64-1,5.44-.06.32,0,.72-.17.93s-.62,0-.94.08-.41.09-.61.1c-.7,0-1,.69-1.56,1a1.76,1.76,0,0,0-.84,1c-.1.22-.16.45-.28.66a3.33,3.33,0,0,0-.29,2.29,4.26,4.26,0,0,0,2.36,3,.62.62,0,0,1,.38.84c-.24,1-.47,2-.71,2.94-.35,1.47-.72,2.94-1.07,4.41-.21.9-.43,1.79-.61,2.7-.15.75-.18.79-.92.62a2.56,2.56,0,0,0-1.66.07,3.83,3.83,0,0,0-2,2,3.65,3.65,0,0,0,1.08,4.54,6.51,6.51,0,0,0,.79.4c.31.14.59.44.42.77a8.46,8.46,0,0,0-.51,1.88c-.4,1.55-.87,3.09-1.31,4.63,0,.14-.1.27,0,.41s.35,0,.4.2h-1.69v0c-.41,0-.83,0-1.25,0a1.11,1.11,0,0,0-.68.14,4.23,4.23,0,0,0-2.26,3.5c0,.48,0,1,0,1.43a3.68,3.68,0,0,0,2.05,3.1c.88.36,1,.65.59,1.51-.09.22-.21.42-.28.65-.37,1.28-.74,2.56-1.12,3.83-.65,2.1-1.27,4.2-1.75,6.34-.24,1.07-.43,2.15-.7,3.21-.41,1.63-.76,3.28-1.18,4.92-.47,1.83-.93,3.66-1.4,5.5-.32,1.27-.84,2.47-1.11,3.76s-.68,2.51-1,3.76a36.08,36.08,0,0,0-.92,3.54,17.53,17.53,0,0,0-.46,1.9.29.29,0,0,1-.13.2c-.14,0-.2-.08-.22-.21s0-.12,0-.18c-.15-1.8-.53-3.57-.84-5.35a56.61,56.61,0,0,0-1.36-5.79c-.54-1.88-1.14-3.74-1.65-5.63-.29-1.09-.66-2.15-1-3.21-.46-1.41-.78-2.86-1.26-4.27-.27-.79-.45-1.6-.64-2.41a11.06,11.06,0,0,0-.87-2.7,15,15,0,0,1-.94-2.28c-.36-1.07-.62-2.17-1.06-3.19-.54-1.26-1-2.52-1.47-3.81-.16-.51-.37-1-.53-1.5s-.26-.59.35-.64a2,2,0,0,0,.35,0,3.64,3.64,0,0,0,1.67-.51,4.39,4.39,0,0,0,1.22-1.46,3.61,3.61,0,0,0-1-4.72,4.93,4.93,0,0,0-2-1,2.78,2.78,0,0,0-2.31.19,3.83,3.83,0,0,1-.63.34.37.37,0,0,1-.55-.27,13.35,13.35,0,0,0-.53-1.5c-.75-2.59-1.46-5.19-2.19-7.8-.07-.25-.05-.52.28-.53.92,0,1.42-.86,2.18-1.22a2.46,2.46,0,0,0,1-1.73,4.06,4.06,0,0,0-2-4.6,7.54,7.54,0,0,0-2.58-.54c-.7-.15-.71-.08-.92-.81,0-.14-.08-.29-.11-.43-.28-1.46-.57-2.91-.81-4.38a5.76,5.76,0,0,1-.23-2.29,6.83,6.83,0,0,0,.28-2.73c0-.25.07-.38.34-.4,1.9-.1,2.91-1.34,3.53-2.93a3.56,3.56,0,0,0-.4-3,4.61,4.61,0,0,0-1.71-1.52,5.46,5.46,0,0,0-2.9-.67c-.57,0-.56,0-.61-.6a21.18,21.18,0,0,0-.31-3.28c-.09-.38.21-.39.44-.28a3.82,3.82,0,0,0,2.5,0,4,4,0,0,0,2.72-3.17,4.35,4.35,0,0,0-.3-2.16,3.25,3.25,0,0,0-1.67-1.73c-.22-.12-.53-.15-.72-.33a1.7,1.7,0,0,0-1.22-.4c-.38,0-.77,0-1.16,0s-.57,0-.43-.57c.38-1.43.1-2.9.25-4.34,0-.19-.3-.4,0-.54s.38.09.57.19.21.2.33.28a4.11,4.11,0,0,0,3.18.75,3.84,3.84,0,0,0,2.64-1.82,4.68,4.68,0,0,0,.75-2.84,6,6,0,0,1,.1-1.33,2.31,2.31,0,0,0-.45-2,3.13,3.13,0,0,0-3-.7,1.84,1.84,0,0,1-.76.21c-.37,0-.42-.06-.26-.38A4.28,4.28,0,0,0,179,38a4.11,4.11,0,0,0-2.07-3.66,6.58,6.58,0,0,0-1.77-.54,2.45,2.45,0,0,0-2.52.52,5.45,5.45,0,0,0-1,1,4.4,4.4,0,0,0-.4,3.69c.12.35,0,.45-.29.56a4.34,4.34,0,0,0-1.43.67,5.24,5.24,0,0,0-1.59,2.82c-.53,2.06.56,3.93,2.52,5a9.22,9.22,0,0,0,1.25.43c.16.06.31.15.23.4a6.84,6.84,0,0,0-.14,2.47c0,.27-.09.31-.29.29a1.62,1.62,0,0,1-.43-.12,3,3,0,0,0-3,.45,3.08,3.08,0,0,0-1.24,1.24,4.58,4.58,0,0,0-.17,4,3.6,3.6,0,0,0,1.51,1.79,4.14,4.14,0,0,0,2.28.75c.32,0,.67-.2.95,0s0,.67.07,1c.14,1.63.17,3.26.28,4.88.1,1.37.23,2.73.43,4.08.07.47.06.65-.42.85a4.14,4.14,0,0,0-2.18,2.44,4.63,4.63,0,0,0,0,2.71,1.48,1.48,0,0,0,.55,1,5.89,5.89,0,0,0,2.71,1.59.6.6,0,0,1,.53.7,13.91,13.91,0,0,0,0,2.14c0,.41,0,.57-.4.71a4.55,4.55,0,0,0-2.4,6.2A5.5,5.5,0,0,0,172,89.93a2.58,2.58,0,0,0,1.71.63c.38,0,.77,0,1.16,0s.48.07.5.44a3.22,3.22,0,0,0,.28,1.47c.21.39,0,.51-.31.54a11.3,11.3,0,0,1-1.16,0c-.49,0-.88.16-1,.71a.73.73,0,0,1-.28.45,2.76,2.76,0,0,0-1,2.27,4.35,4.35,0,0,0,.51,2.48c.27.43.94.57.89,1.23,0,0,.14.09.22.13a4.36,4.36,0,0,0,1.78.47,6.55,6.55,0,0,0,1.82-.31c.49-.15.59-.05.74.43.22.71.46,1.41.7,2.12.55,1.59,1.14,3.18,1.65,4.79a50.32,50.32,0,0,0,1.82,5.17c.07.17.07.34-.08.36-.69.1-.86.75-1.28,1.12-1.5,1.3-1,4.72.86,5.4a.81.81,0,0,1,.3.17,2.27,2.27,0,0,0,1.81.57l.8,0a.43.43,0,0,1,.49.39,15.08,15.08,0,0,0,.65,1.78,22.13,22.13,0,0,1,1.07,3.19,12.68,12.68,0,0,0,.6,2.41,37.26,37.26,0,0,1,1.16,3.82,16.55,16.55,0,0,1,.59,1.67c.24,1.05.51,2.08.8,3.1.54,1.94,1.22,3.84,1.72,5.8.34,1.32.61,2.64.82,4a27.3,27.3,0,0,0,.52,3,10.41,10.41,0,0,1,.4,2.62c0,1.64.11,3.26.22,4.89.07,1.09.07,2.19.22,3.28.22,1.56.39,3.12.58,4.68a5.61,5.61,0,0,1,0,.71A21.28,21.28,0,0,1,194,169c-.19,1.38-.36,2.77-.52,4.15-.13,1.15-.26,2.3-.42,3.45-.19,1.5-.24,3-.37,4.52-.23,2.66-.47,5.32-.7,8-.09,1.09-.14,2.19-.22,3.29-.19,2.36-.4,4.73-.45,7.11,0,2-.05,3.92-.09,5.87-.07,3.51-.25,7-.15,10.52.06,2.32.25,4.62.49,6.93,0,.11.08.25-.07.28s-.18-.13-.21-.24c-.34-1.13-.66-2.27-1-3.39-.81-2.51-1.83-4.94-2.76-7.4s-1.85-4.82-2.94-7.16c-.77-1.66-1.39-3.38-2.23-5-.59-1.16-1.1-2.36-1.7-3.52-.86-1.65-1.77-3.28-2.66-4.92-.64-1.17-1.16-2.41-1.89-3.53-.17-.24-.46-.51-.44-.74s.44-.41.69-.59a3.76,3.76,0,0,0,1.6-3.3,3.44,3.44,0,0,0-.65-1.81,3.21,3.21,0,0,0-1.76-1.51,4.37,4.37,0,0,0-2.7,0c-.7.28-.79.23-1.21-.45a13.11,13.11,0,0,0-1.2-2,11.57,11.57,0,0,1-1.78-2.82,3.63,3.63,0,0,0-.76-1,4.31,4.31,0,0,1-1.08-1.17,3.92,3.92,0,0,0-.92-1.18c-.3-.29-.28-.51.12-.59a4.07,4.07,0,0,0,1.23-.67,3.59,3.59,0,0,0,1-5,4.14,4.14,0,0,0-2.15-1.74c-1.43-.45-2.81-.53-4,.6a4.46,4.46,0,0,0-1,1.62c-.14.36-.34.46-.65.29a3.57,3.57,0,0,1-.49-.38,18.46,18.46,0,0,1-2.88-3,7.55,7.55,0,0,0-1.46-1.42,19.54,19.54,0,0,1-1.91-2,2,2,0,0,1-.39-1.07c0-.19,0-.29.21-.29h.63a3.6,3.6,0,0,0,3.16-1.76,3.69,3.69,0,0,0-1.25-5.22,4.78,4.78,0,0,0-2.18-.93c-.17,0-.26-.11-.25-.3.13-1.74.26-3.49.37-5.24,0-.34.17-.47.49-.48a6.16,6.16,0,0,0,1.82-.33,3.09,3.09,0,0,0,1.92-2,3.5,3.5,0,0,0-.17-3.25,4.16,4.16,0,0,0-2.59-1.84c-.82-.19-.94-.34-.92-1.16a3.39,3.39,0,0,0,0-.45c-.07-.41.11-.51.5-.49s.73.26,1.13.17c2.42-.52,3.76-1.78,3.69-4.42a3.55,3.55,0,0,0-1.25-2.67,4.4,4.4,0,0,0-2.61-1.16c-.28,0-.35-.16-.26-.42a8.1,8.1,0,0,0,.38-2.72c0-1.1.26-2.19.2-3.29,0-.3.11-.47.44-.37a8.72,8.72,0,0,0,1.14.18,3.72,3.72,0,0,0,3.56-1.34,4.1,4.1,0,0,0,1-2,3.81,3.81,0,0,0-.77-3.18,9.13,9.13,0,0,0-1.8-1.43,1,1,0,0,0-.59-.19,17,17,0,0,0-2,0c-.08,0-.18,0-.2-.09a.22.22,0,0,1,.1-.14,4.1,4.1,0,0,0,1.64-3.44c0-.24,0-.48,0-.72a3,3,0,0,0-.64-1.9,4.35,4.35,0,0,0-3.16-1.88c-1.17-.09-2.32,0-3.06,1.13a2.13,2.13,0,0,1-.44.55,2.23,2.23,0,0,0-.75,1.56,4.67,4.67,0,0,0,0,2.46,4.32,4.32,0,0,0,2.57,2.6c.31.11.49.28.35.67a8.08,8.08,0,0,0-.48,1.71c-.34,3-.63,5.9-1,8.85,0,.31.05.71-.22.92s-.48-.16-.76-.12a3.31,3.31,0,0,1-.53-.06,3.48,3.48,0,0,0-3.27,1.13c-.14.19-.29.37-.44.56a3.55,3.55,0,0,0-.75,3.55,4.39,4.39,0,0,1,.18.69c.1,1,1.13,1.68,2.06,2.08a16.56,16.56,0,0,0,2.1.67c.2.06.3.13.26.36a36.73,36.73,0,0,0-.35,6.2c0,.34-.11.5-.44.53s-.41,0-.62,0a3.5,3.5,0,0,0-3.23,2.35,3.75,3.75,0,0,0,.09,3,1.34,1.34,0,0,0,.29.45,6.58,6.58,0,0,0,2.57,1.67,4.74,4.74,0,0,1,.5.15c.16.07.28.14.25.39a29.25,29.25,0,0,0-.3,4.08c0,1.3-.11,2.6-.12,3.9,0,.44-.19.42-.48.39a1,1,0,0,1-.32-.13c-1.82-.85-3.37-2.14-5.13-3.11-.88-.48-1.65-1.14-2.57-1.57a.44.44,0,0,1-.25-.59,2.86,2.86,0,0,1,.21-.58,3.51,3.51,0,0,0,.1-2.77,3,3,0,0,0-1-1.71,8.3,8.3,0,0,0-2.57-1.12,1.51,1.51,0,0,0-.89,0,4.43,4.43,0,0,0-2.35,1.32c-.22.3-.47.28-.77.08a10.23,10.23,0,0,0-2.41-1.14c-.13,0-.24-.17-.37-.23-.41-.18-.29-.37,0-.56.07-.06.16-.09.22-.15,1.26-1.47,1.93-2.41,1.11-4.41a4.19,4.19,0,0,0-6.49-1.78.47.47,0,0,1-.63.07,3.64,3.64,0,0,0-.57-.25,3.6,3.6,0,0,0-3.48.17,4.23,4.23,0,0,0-1.15,1.2,4.12,4.12,0,0,0,1.56,6c.4.21.3.33.08.56a3,3,0,0,0-.92,1.38,5.6,5.6,0,0,0,.35,3.57c.79,1.83,3.64,2.7,5.54,1.64a3.45,3.45,0,0,0,1.54-1.55,5.7,5.7,0,0,0,.45-2.42c0-.31.06-.34.35-.23.79.27,1.37.89,2.13,1.22.25.11.13.35,0,.54a3.58,3.58,0,0,0-.45,1.15,4.06,4.06,0,0,0,2.76,4.37,2.71,2.71,0,0,0,.69.13,3.81,3.81,0,0,0,3-1.35c.64-.65.6-.63,1.39-.09a28.07,28.07,0,0,0,2.66,1.92,5.17,5.17,0,0,1,1.45.83,5.59,5.59,0,0,0,1.87,1.18c1.6.7,3,1.68,4.59,2.49a.9.9,0,0,1,.54.93c0,.17,0,.35,0,.53a54.18,54.18,0,0,0,.16,8.45c0,.43-.12.56-.53.61a3.21,3.21,0,0,0-1.83.56,4.2,4.2,0,0,0-1.69,3,3.7,3.7,0,0,0,2.12,3.82,3.48,3.48,0,0,0,2.12.37c.32-.05.53,0,.53.42a25.36,25.36,0,0,0,.42,5.14.33.33,0,0,1-.18.42c-1.33.78-2.39,1.77-2.41,3.44a4,4,0,0,0,1.6,3.67,3.8,3.8,0,0,0,2.38.83c.33,0,.68.05.56.55a.48.48,0,0,0,0,.26c.52,1.42.82,2.91,1.25,4.36.62,2.1,1.44,4.14,2.11,6.22.46,1.42,1.07,2.77,1.61,4.15a6.8,6.8,0,0,0,1,2.25c.25.29,0,.36-.2.35a1.75,1.75,0,0,0-1.26.37c-1.37,1.24-2.41,2.65-1.75,4.85a3.66,3.66,0,0,0,1,1.82,4.33,4.33,0,0,0,4.57.72c.61-.25.86-.16,1,.46.53,1.77,1.32,3.43,1.93,5.17a8.33,8.33,0,0,0,.88,1.83c.77,1.16,1.48,2.34,2.2,3.54.24.4.16.52-.17.72a3,3,0,0,0-1.22,1.13,4.93,4.93,0,0,0-.55,2.23,3.74,3.74,0,0,0,1.44,3.44c.36.25.73.48,1.1.7a2.76,2.76,0,0,0,1.7.42,3.53,3.53,0,0,0,1.11-.26c.66-.26.76-.18,1.1.43a16,16,0,0,0,1.45,2.54,1,1,0,0,1-.07,1.28,3.23,3.23,0,0,0-.84,1.64,4.18,4.18,0,0,0,1,3,2.39,2.39,0,0,0,2,1,2.75,2.75,0,0,0,1.38-.29.41.41,0,0,1,.64.23,23.59,23.59,0,0,0,1.78,2.76c.66,1.09,1.46,2.09,2.07,3.2.88,1.62,2,3.1,3,4.64.71,1.09,1.38,2.22,2.1,3.31,1,1.57,1.95,3.23,2.95,4.84.69,1.11,1.48,2.15,2.13,3.28s1.24,2.42,2,3.57a15.35,15.35,0,0,1,1.3,2.43,36.75,36.75,0,0,0,1.67,3.53c1.13,2.13,2.24,4.26,3.24,6.45.21.46.49.89.69,1.38a34.78,34.78,0,0,0,1.91,4.94,15.89,15.89,0,0,1,1.1,3.74c.38,1.31.63,2.65,1,4,.31,1.12.78,2.17,1.11,3.28.46,1.54,1,3.06,1.47,4.58s1.17,3.44,1.87,5.44c.45,1.23.89,2.47,1.42,3.67a33.54,33.54,0,0,1,1.33,3.63c3.9,9.56,9.87,21,19.81,30.65a24.68,24.68,0,0,0,2.76,2.05,14.44,14.44,0,0,1,2.68,2,2.09,2.09,0,0,0,.44.29c.74.54,1.58.89,2.31,1.47a6.06,6.06,0,0,0,2.74,1.36,6.81,6.81,0,0,1,2,.75,3.28,3.28,0,0,0,1.81.3,1.55,1.55,0,0,0,1.3-2,2.08,2.08,0,0,0-1.34-1.22,5.89,5.89,0,0,1-1.37-.81,7.43,7.43,0,0,0-1.37-1,11.12,11.12,0,0,1-3.12-2l-1.25-1.1a13.44,13.44,0,0,1-2.64-2.47,1.13,1.13,0,0,0-.35-.4,28.86,28.86,0,0,1-3.08-2.77,2.32,2.32,0,0,1-.61-.64,15.36,15.36,0,0,0-2.32-2.77c-.84-1-1.6-2.05-2.37-3.1s-1.55-2.13-2.31-3.19a35.29,35.29,0,0,1-2.21-3.44c-.58-1.07-1.24-2.1-1.71-3.22s-1.45-2-1.75-3.22c0-.05-.08-.1-.13-.12-.39-.14-.46-.52-.64-.82a24.67,24.67,0,0,0-1.34-2.19,3.55,3.55,0,0,1-.68-1.44,8.36,8.36,0,0,0-.77-2.44,2,2,0,0,1-.12-.7,7.78,7.78,0,0,0-.87-3,3.33,3.33,0,0,1-.41-1.17,14.09,14.09,0,0,0-.59-2.32,15.64,15.64,0,0,1-.77-3.55,52.49,52.49,0,0,1-.4-6.4c0-2-.06-4.11.05-6.15.16-2.85.47-5.68.87-8.51.18-1.23.23-2.48.51-3.7.5-2.1,1-4.19,1.36-6.33.18-1.26.45-2.52.65-3.78.54-3.58,1.35-7.1,2.15-10.63.17-.72.37-1.44.54-2.16a33.65,33.65,0,0,1,1.05-3.85c.37-1,.78-2,1.09-3,.43-1.42.94-2.82,1.45-4.22.2-.55.56-1,.71-1.62.21-.8.43-1.6.68-2.38a20.77,20.77,0,0,1,.83-2.25c.21-.48.56-1,.75-1.48a14.81,14.81,0,0,1,1.19-2.47c.7-1.12,1-2.4,1.63-3.55.44-.81.79-1.71,1.18-2.57a34.1,34.1,0,0,1,2.09-3.91,53.13,53.13,0,0,1,3.16-4.81,19.81,19.81,0,0,1,1.24-1.62,19.4,19.4,0,0,1,3-2.89.65.65,0,0,0,.2-.17c.72-1.21,2-1.84,3-2.74a35.8,35.8,0,0,1,3.83-2.84,10.43,10.43,0,0,1,2-1.42c.29-.11.5-.57.82-.37s.05.56.06.85a4.31,4.31,0,0,0,1.25,3.13,11.94,11.94,0,0,0,1.6.9,2.57,2.57,0,0,0,1.68.31c.34,0,.58-.27.9-.36,2.16-.58,2.94-3.47,2.07-5.37a3.79,3.79,0,0,0-1.8-1.86c-.1,0-.23-.15-.24-.24s.21-.15.31-.23a16.38,16.38,0,0,1,2.4-1.31c.89-.56,1.84-1.07,2.76-1.58a7.41,7.41,0,0,0,2.23-1.42.51.51,0,0,1,.79.06,2.87,2.87,0,0,0,1.75.8,3.67,3.67,0,0,0,2.73-.5,3.47,3.47,0,0,0,1.26-4,3.37,3.37,0,0,0-.85-1.43c-.11-.12-.29-.28-.16-.46a12.07,12.07,0,0,1,1.39-1.71c.15-.15.36-.17.42.05.12.47.52.7.78,1.06,1.22,1.68,4.76,1.72,6-.27a4.54,4.54,0,0,0,.22-4.84c-.37-.58-.37-.67.25-1a2.36,2.36,0,0,0,1.29-1.61c.09-.34.22-.68.28-1a3.26,3.26,0,0,0-.52-2.86,4,4,0,0,1-.37-.6.48.48,0,0,1,0-.5c.28-.56.51-1.14.83-1.67s.46-.69,1.05-.23a4.81,4.81,0,0,0,.77.42c1.59.81,2.7,1,4.09-.41l.14-.11a3.58,3.58,0,0,0,1.13-3.78,3.81,3.81,0,0,0-2.52-3c-.3-.11-.41-.18-.23-.47a2.14,2.14,0,0,0,.16-.42c.19-.56.19-.54.79-.42a6.05,6.05,0,0,0,2.12.2C287.36,175.75,288.55,173.09,288.22,171.69ZM197.54,272.25a.31.31,0,0,1-.22-.12c-.3-.54-.58-1.09-.88-1.64-.63-1.14-1.23-2.3-1.89-3.42-.57-1-1.17-1.91-1.83-2.81-.46-.63-.72-1.36-1.19-2s-.67-1.23-1.12-1.78a3.68,3.68,0,0,1-.8-1.38,2,2,0,0,0-.37-.6,10,10,0,0,1-.87-1.44,26,26,0,0,0-1.58-2.57c-.76-1.12-1.44-2.29-2.12-3.47a2.29,2.29,0,0,0-.32-.43,37.71,37.71,0,0,1-3.37-4.87c-.72-1.15-1.37-2.35-2.13-3.48-.46-.67-.91-1.36-1.44-2a22.28,22.28,0,0,1-1.6-2.44c-.89-1.43-1.51-3-2.4-4.43a.57.57,0,0,1-.09-.33,4.49,4.49,0,0,0-1.21-2.87c-.35-.49-.38-.51.1-.81.32-.21.5-.59.88-.72.06,0,.13-.07.14-.11.31-1.18,1.1-2.25.73-3.57a4,4,0,0,0-.33-.91,1.63,1.63,0,0,1-.33-1c0-.35-.26-.51-.52-.66a3.84,3.84,0,0,0-2.63-.68,3.91,3.91,0,0,0-2.06.32c-.23.15-.42,0-.5-.28a16.37,16.37,0,0,0-1.28-3.33c-.15-.32-.14-.44.13-.65a3.73,3.73,0,0,0,1-5.08,4.38,4.38,0,0,0-3.61-2.12c-.73-.06-.78,0-.9-.75a11.43,11.43,0,0,0-.83-2.05c-.34-.95-.77-1.86-1.16-2.78,0-.06-.05-.11-.07-.16-.09-.22-.54-.2-.42-.48.05-.12.43-.11.66-.16a4.23,4.23,0,0,0,2.62-1.81,3,3,0,0,0,.53-1.2,3.82,3.82,0,0,0-1.13-3.88,4.94,4.94,0,0,0-2.21-1.2,5.78,5.78,0,0,0-2.38.16c-.72.15-.72.17-.92-.52-.52-1.89-1-3.78-1.55-5.67a7,7,0,0,1,0-1.83c0-.33.32-.49.61-.55a3,3,0,0,0,2.09-2.21,3.56,3.56,0,0,0-.05-2.77,2.82,2.82,0,0,0-1.1-1.35c-.76-.46-1.44-1.2-2.47-1.08h-.09c-.88-.15-.85-.15-.92-1q-.25-3.33-.54-6.66c-.2-2.25-.25-4.5-.34-6.76,0-.41,0-.83-.06-1.24a.32.32,0,0,1,.12-.22c.09-.07.16,0,.23.08a35.48,35.48,0,0,1,2.8,2.82,13.68,13.68,0,0,0,2.17,1.91,15.5,15.5,0,0,1,3.83,3.75c.24.36.25.54,0,.8a3.63,3.63,0,0,0-1.1,2.27,3.85,3.85,0,0,0,2.09,4,5.78,5.78,0,0,0,3.48.32c.69-.08.73-.13,1,.5a5.27,5.27,0,0,0,.49.74,85.13,85.13,0,0,1,4.51,7.73,3,3,0,0,0,.26.36c.29.43.29.54-.17.69a1.26,1.26,0,0,0-.66.56c-.35.48-.66,1-1,1.47a.77.77,0,0,0-.1.25c-.22,1.4.38,3.52,1.69,4a.69.69,0,0,1,.42.31c.05.11.1.25.23.24.66,0,1.36.21,2-.16a1.3,1.3,0,0,1,.31-.16c.63-.17.46-.3.76.3.53,1.06,1.12,2.08,1.65,3.14,1.52,3.06,2.83,6.2,4.14,9.35,1,2.35,1.84,4.75,2.83,7.09a69.21,69.21,0,0,1,2.6,7.84c.49,1.74,1.05,3.46,1.55,5.2s1,3.72,1.37,5.62.75,3.66,1.22,5.47c.16.6.25,1.22.36,1.84.85,4.52,1.85,9,2.47,13.58q.67,5,1.65,9.93c.38,1.89.68,3.79,1.2,5.66a.88.88,0,0,1,0,.17C197.6,272.11,197.63,272.22,197.54,272.25Z"/><path class="cls-2" d="M25.4,258.61H3a3,3,0,0,1-3-3v-68.4a3,3,0,0,1,3-3H67.6c21.71,0,31.31,7,31.31,19.1v1.1c0,7.05-4,11.42-8.36,14a3,3,0,0,0,0,5.17c5.35,3.06,8.61,8.15,8.61,15.17v11c0,5.2.7,7.1,1.4,8.4v.5H73.72a3,3,0,0,1-3-2.88c0-.31,0-.65,0-1V246c0-8.5-3.91-12.9-15.11-12.9H31.4a3,3,0,0,0-3,3v19.5A3,3,0,0,1,25.4,258.61Zm3-46.5a3,3,0,0,0,3,3H61c6.3,0,8.6-2.8,8.6-6.4v-.1c0-3.5-2.2-6.3-8.6-6.3H31.4a3,3,0,0,0-3,3Z"/><path class="cls-2" d="M153,260c-41.1,0-45.4-16.7-45.4-26.4v-1h28.63a3,3,0,0,1,2.93,2.17c1,3.82,4.74,8.33,18.24,8.33h.9c15.9,0,18.2-3.4,18.2-7V236c0-3.8-1.9-6.2-17.5-6.7l-13.8-.4c-28.8-.8-36.5-10.9-36.5-22.4v-.9c0-12.1,8.1-22.7,42.8-22.7h8.9c36.81,0,45.21,11.7,45.21,23.5v.8H177.14a3.08,3.08,0,0,1-2.88-1.86c-1.08-2.72-4.68-6-17.56-6h-1c-14.9,0-16.4,2.6-16.4,5.5v.1c0,3,2.2,5.4,16.2,5.7l13.4.3c28.31.8,39.31,7.4,39.31,22.4v1.4c0,12.5-7,25.3-46.11,25.3Z"/><path class="cls-2" d="M245.27,257l-34.57-68.4a3,3,0,0,1,2.68-4.35h25.44a3,3,0,0,1,2.7,1.69l21.4,44.42a3,3,0,0,0,5.43-.06L288.41,186a3,3,0,0,1,2.73-1.76H314a3,3,0,0,1,2.72,4.27l-32.09,68.4a3,3,0,0,1-2.71,1.73H248A3,3,0,0,1,245.27,257Z"/><path class="cls-2" d="M354.6,238.31v17.3a3,3,0,0,1-3,3H329.2a3,3,0,0,1-3-3v-68.4a3,3,0,0,1,3-3h59c27.5,0,35.3,10.9,35.3,24.6v1.6c0,13.5-8.1,24.9-35.3,24.9H357.6A3,3,0,0,0,354.6,238.31Zm0-24.6a3,3,0,0,0,3,3h27.2c6.5,0,9.4-2.7,9.4-6.8v-.3c0-4.3-2.7-6.8-9.4-6.8H357.6a3,3,0,0,0-3,3Z"/></svg>