<svg id="Layer_1" data-name="Layer 1" xmlns="http://www.w3.org/2000/svg" viewBox="0 0 392.38 296.7"><defs><style>.cls-1{fill:#95a799;}.cls-2{fill:#4d6051;}</style></defs><path class="cls-1" d="M261.45,142a6.63,6.63,0,0,1-.19-.86c-.12-1-1-1.33-1.53-2a2.81,2.81,0,0,0-2.64.31c-.9.63-1.41,1.62-2.29,2.25a1.16,1.16,0,0,0-.28.51,35.83,35.83,0,0,1-1.58,3.8c-.46.81-.78,1.7-1.3,2.46s-1,1.82-1.58,2.71-.88,1.83-2.07,2c-.13,0-.21.11-.3.19a.65.65,0,0,1-.77,0,9.75,9.75,0,0,0-1.07-.45,2.41,2.41,0,0,0-2.68.39c-2.06,1.45-1.59,4.21-.26,5.56a6.8,6.8,0,0,0,.75.46,1.07,1.07,0,0,1,.35.44s-.19.19-.29.29a2.92,2.92,0,0,0-.23.29c-.64.93-1.44,1.72-2.1,2.62a17.31,17.31,0,0,1-1.52,1.69,10.58,10.58,0,0,1-1.37,1.21c-.24.16-.34.16-.53,0a4,4,0,0,0-2.55-1.29,2.75,2.75,0,0,0-1.82.37,3.54,3.54,0,0,0-1.17,3.88c.22.51.22.51-.23.76a2.35,2.35,0,0,1-.4.18c-1.35.58-2.68,1.2-4.05,1.71a11,11,0,0,0-2,1.05c-.52.33-1,.8-1.51,1.14a7.26,7.26,0,0,0-1,.83,12.1,12.1,0,0,1-1.71,1.49c-.07,0-.14.07-.2,0s0-.14,0-.2a4.58,4.58,0,0,0,.74-1.18c.26-.72.63-1.38.94-2.08.55-1.28,1.27-2.48,1.83-3.77.66-1.52,1.5-3,2.07-4.55.23-.64.56-1.24.8-1.88.42-1.1,1.09-2.08,1.45-3.21.15-.49.17-.5.66-.29a5,5,0,0,0,2.14.41,2.2,2.2,0,0,0,1.58-.66,2.86,2.86,0,0,0,.72-2.38,2.83,2.83,0,0,0-1.69-2.38,3.62,3.62,0,0,0-.95-.4c-.15,0-.19-.12-.13-.27.31-.85.6-1.71.92-2.56.23-.6.27-.63.85-.48a3,3,0,0,0,1.93-.13,3.2,3.2,0,0,0,1.94-3.48,4.18,4.18,0,0,0-1.38-2.1c-.29-.28-.75-.29-1-.66a2.57,2.57,0,0,0,.38-1.23c0-.05,0-.09.05-.14.13-.47.22-.53.64-.29a3.77,3.77,0,0,0,2.34.34,2.28,2.28,0,0,0,1.64-1,3.33,3.33,0,0,0,.57-1.79,2.83,2.83,0,0,0-2.37-3.2c-.31-.06-.61-.17-.92-.26s-.21-.17-.11-.33a3,3,0,0,0,.45-1.39c0-.34.18-.36.42-.32l.36.08a3.22,3.22,0,0,0,3.75-1.89,2.58,2.58,0,0,0,.21-2.59.65.65,0,0,1-.08-.27,1.63,1.63,0,0,0-.59-1.05,3.29,3.29,0,0,0-2.68-1.14c-.5.06-.6-.11-.47-.61a29,29,0,0,0,.61-3.17c.19-1.27.26-2.54.42-3.81a6.8,6.8,0,0,0,.06-2.91c-.05-.15.05-.24.18-.26a2.38,2.38,0,0,1,.65-.1,1.21,1.21,0,0,0,.91-.4,3,3,0,0,1,.38-.34,3.59,3.59,0,0,0,1.33-3.17,1.64,1.64,0,0,0-.19-.63c-.15-.3-.33-.6-.5-.9a3,3,0,0,0-3-1.19,4.51,4.51,0,0,0-2.69,2.43,1.71,1.71,0,0,0-.15,1.07,5.65,5.65,0,0,1,0,2.13,1,1,0,0,0-.07.58c.11.32-.07.35-.33.37A3.59,3.59,0,0,0,233.1,118a3.43,3.43,0,0,0,.25,3.71,5.1,5.1,0,0,0,1.74,1.21.44.44,0,0,1,.27.51c-.07,1.11-.37,2.18-.46,3.29,0,.21-.16.27-.37.19s-.56-.2-.83-.29a2,2,0,0,0-1.71.18,3.6,3.6,0,0,0-1.55,4.7,3.48,3.48,0,0,0,2.94,2,1.42,1.42,0,0,1,.7.2.61.61,0,0,1,.32.86c-.59,1.72-1.11,3.46-1.54,5.22-.08.35-.27.4-.52.27a4.35,4.35,0,0,0-2.17-.24.69.69,0,0,0-.35.08,3.33,3.33,0,0,0-1.87,3.18,2.87,2.87,0,0,0,1.47,2.56,5.68,5.68,0,0,0,.94.49c.55.15.36.38.25.67-.48,1.39-1,2.78-1.51,4.15s-.18,1.29-1.71.95a4.15,4.15,0,0,0-2.19.32c-.45.13-.55.58-.83.85a2.36,2.36,0,0,0-.73,1.47,8.16,8.16,0,0,0,.07,1.31,3.1,3.1,0,0,0,1.71,2.48c.18.12.38.21.57.33s.21.19,0,.33a1,1,0,0,0-.23.28c-.85,1.74-1.53,3.55-2.34,5.31-.54,1.17-1.06,2.35-1.62,3.51-.44.9-.95,1.78-1.34,2.69-.63,1.45-1.42,2.81-2.08,4.24-.42.91-.9,1.79-1.35,2.69,0,.08,0,.21-.17.2s-.2-.13-.22-.25a.93.93,0,0,1,0-.37,39.17,39.17,0,0,0,.39-4.32,1.32,1.32,0,0,1,.76-1.19,2.89,2.89,0,0,0,1.61-2.81,2.77,2.77,0,0,0-.92-2.09,3.27,3.27,0,0,0-.77-.55c-.42-.19-.74-.47-.58-1a2.15,2.15,0,0,0,0-.8c-.23-2.28-.45-4.55-.68-6.83a40.6,40.6,0,0,0-.54-4.38c-.1-.49,0-.65.43-.87a2.56,2.56,0,0,0,.92-3.76,3.5,3.5,0,0,0-2.35-1.45c-.62-.1-.62-.12-.71-.69,0-.33-.29-.76-.11-.95s.64-.2,1-.2a3.14,3.14,0,0,0,2.45-1.38,3.49,3.49,0,0,0-1.18-5.29,3,3,0,0,0-2.89-.05,2,2,0,0,0-.91.92c-.25.55-.79.95-.69,1.66,0,.26-.24.27-.36.15a2.67,2.67,0,0,0-.91-.45,2.44,2.44,0,0,0-3,.74c-.14.16-.28.34-.44.49a2,2,0,0,0-.58,1.54,6.64,6.64,0,0,0,.14,1.24,3.44,3.44,0,0,0,4,2.5c.22-.09.45-.07.44.27a4.2,4.2,0,0,0,.29,1.21,31.31,31.31,0,0,1,1.35,5.56,3.19,3.19,0,0,0,.13.81c0,.17.06.32.09.47-.45,0-.74.4-1.13.55a2.81,2.81,0,0,0-1.67,2.18,3.29,3.29,0,0,0,.8,3,3.73,3.73,0,0,0,2.2,1.09c.53.14.53.13.57.67,0,.78.08,1.56.17,2.34a2.26,2.26,0,0,1-.42,1.65,2.58,2.58,0,0,0-.42,2.11,4.2,4.2,0,0,0,.57,1.42,1.52,1.52,0,0,1,.28,1c-.19,2.13-.58,4.23-.93,6.33-.29,1.77-.77,3.49-1.19,5.23-.27,1.13-.71,2.19-1.08,3.28a18.93,18.93,0,0,1-1.06,2.5,10.91,10.91,0,0,0-.9,1.77,8.14,8.14,0,0,0-.64,2.33,1.3,1.3,0,0,1-.14.49c-.49,1.09-.95,2.2-1.35,3.33a1.89,1.89,0,0,0-.14,1.21.6.6,0,0,1-.05.57,5.39,5.39,0,0,0-.58,1.18,19.51,19.51,0,0,0-1.1,2.48c-.38,1.22-.69,2.45-1.14,3.65-.29.75-.43,1.56-.72,2.32-.71,1.9-1.45,3.8-2,5.77-.39,1.52-.69,3.07-1.07,4.59-.45,1.79-.82,3.6-1.09,5.41-.42,2.87-1.08,5.69-1.6,8.54-.23,1.28-.5,2.55-.73,3.83-.14.82-.07,1.66-.23,2.49a16.74,16.74,0,0,0-.3,2.11c-.12,2.06-.2,4.12-.29,6.18,0,.11,0,.28-.14.27s-.17-.1-.19-.18a14.93,14.93,0,0,1-.52-1.69c-.58-2.54-1.2-5.06-2-7.55-.37-1.24-.76-2.48-1.13-3.72a22.68,22.68,0,0,1-.56-2.44c-.14-.79-.35-1.58-.48-2.37-.26-1.5-.43-3-.79-4.5-.45-1.89-.87-3.78-1.23-5.69q-.48-2.57-.92-5.15c-.31-1.81-.57-3.64-.84-5.46s-.46-3.6-.67-5.4c-.15-1.34-.25-2.68-.37-4-.14-1.72-.27-3.45-.47-5.18s-.23-3.23-.34-4.85-.21-3-.31-4.48c-.07-1-.06-2-.19-2.94-.24-1.86-.21-3.73-.36-5.59-.09-1,.07-2,.08-3,0-1.89,0-3.78.05-5.67,0-1.15.08-2.3.12-3.44s.06-2.55.18-3.82c.2-2.08.26-4.17.45-6.25.11-1.23.13-2.46.33-3.67.37-2.21.58-4.43,1-6.63.29-1.72.7-3.41,1.09-5.1a15.52,15.52,0,0,1,1.12-3c.29-.62.5-1.29.83-1.87.65-1.15,1.25-2.32,1.84-3.49s1.23-2.11,1.85-3.16c.39-.64.6-1.12,1.19-2l0,0a8.77,8.77,0,0,0,1-1.7c.51-1,1.15-1.88,1.72-2.82.74-1.2,1.64-2.31,2.44-3.48,1.1-1.59,2.24-3.15,3.22-4.82.34-.56.67-1.14,1-1.69.58-.91,1.19-1.8,1.78-2.7.28-.43.55-.87.79-1.33.36-.65.44-.67,1-.24a3.34,3.34,0,0,0,1.34.74,4.9,4.9,0,0,0,1.75,0,2.36,2.36,0,0,0,1.81-1.11c.15-.28.34-.55.47-.84a2.94,2.94,0,0,0-.19-2.95,3.52,3.52,0,0,0-2.23-1.64c-.23,0-.35-.22-.16-.43a9.89,9.89,0,0,0,.79-1.23A33.21,33.21,0,0,0,213,95.42c.15-.31.3-.62.44-.93s.15-.28.4-.07a3.28,3.28,0,0,0,3.68.46,3.22,3.22,0,0,0,1.38-1.43,3.5,3.5,0,0,0-2.12-5c-.31-.08-.31-.21-.16-.47.54-1,1.05-2,1.56-3,.13-.25.3-.26.47-.11a7.2,7.2,0,0,0,.95.69,3.12,3.12,0,0,0,3.13.22,3.74,3.74,0,0,0,1.83-1.87,3.58,3.58,0,0,0-1-3.8,2.85,2.85,0,0,0-1.42-.54c-.23,0-.54,0-.58-.24-.1-.56-.46-1.07-.17-1.7a23.13,23.13,0,0,0,1.43-3.46,1.93,1.93,0,0,1,.51-.8,5.51,5.51,0,0,0,.83-1.09c.23-.42.25-.4.67-.19a3.27,3.27,0,0,0,4.82-2.89,3.22,3.22,0,0,0-.95-2.73c-.19-.19-.48-.28-.65-.47a2.13,2.13,0,0,0-1.21-.61c-.54-.12-.52-.14-.32-.7a19.62,19.62,0,0,0,.7-2.17c.26-1.07.59-2.12.87-3.19.08-.29.25-.3.42-.14a2.06,2.06,0,0,0,2.16.23A4.47,4.47,0,0,0,233.5,57a3.25,3.25,0,0,0,.14-2.85A3.77,3.77,0,0,0,229.58,52a.51.51,0,0,1-.54-.12,4.21,4.21,0,0,0-1.51-.86,2.91,2.91,0,0,0-3.79,1.08,6,6,0,0,0-.35.88,2.64,2.64,0,0,0,0,2.71c.11.2.13.39-.12.48a3.61,3.61,0,0,0-1.53,5.66,4.4,4.4,0,0,0,2,1.36c.41.1.3.19,0,.37s-.18.29-.23.45c-.28.83-.56,1.67-.83,2.51-.22.64-.24.66-.9.61l-.29,0a2.38,2.38,0,0,0-2.52.72,3.4,3.4,0,0,0-1,3.21c.21,1,.46,1.95,1.54,2.38.3.12.37.31.12.61a2.06,2.06,0,0,0-.35.8c-.19.75-.62,1-1.4.91a2.67,2.67,0,0,0-2.69,1.68,3.34,3.34,0,0,0,.81,4.44c.21.17.15.28.05.49-.68,1.35-1.31,2.73-2,4.08-.45.89-.88,1.8-1.4,2.67a6.5,6.5,0,0,0-.89,1.9c-.1.41-.26.45-.65.25a5.46,5.46,0,0,0-1.76-.46,1.4,1.4,0,0,0-.73.06,4,4,0,0,0-2.43,3.69,1.53,1.53,0,0,0,0,.37,3.62,3.62,0,0,0,1.72,2.41c.23.13.41.3.21.5-.38.37-.43.94-.83,1.29-.21.18-.06.7-.48.62a2.87,2.87,0,0,1-.86-.18c-.12-.07-.28-.07-.39-.19a.5.5,0,0,0-.61-.13,7.31,7.31,0,0,0-1.44.53,3,3,0,0,0-1.18,1.17,3.68,3.68,0,0,0,.67,4.23l.15.16c.14.15.25.3.07.51s-.14.32-.24.46c-1,1.42-1.91,2.89-2.84,4.36-.76,1.2-1.47,2.43-2.32,3.57a8.69,8.69,0,0,0-1,1.36,21.15,21.15,0,0,1-1.8,2.67c-.69,1-1.43,2-2.06,3a12.86,12.86,0,0,0-.65,1.14c-.37.78-.92,1.44-1.28,2.23A12.18,12.18,0,0,1,189.7,127a2.65,2.65,0,0,0-.52.87,1.23,1.23,0,0,1-.46.65.23.23,0,0,1-.2,0,.13.13,0,0,1-.05-.19,1.84,1.84,0,0,0,.26-.83,11.17,11.17,0,0,1,.24-1.15,6,6,0,0,0,.26-1.07,2.78,2.78,0,0,1,.21-1c.41-1,.52-2.12.9-3.16.67-1.87.95-3.85,1.58-5.74a28.39,28.39,0,0,0,1-3.3c.24-1.13.66-2.22.86-3.35.12-.66.25-1.31.4-2,.55-2.27,1.08-4.54,1.68-6.8.42-1.61.93-3.19,1.4-4.79.25-.85.53-1.69.76-2.54a3.4,3.4,0,0,1,.6-1.31,3.59,3.59,0,0,0,.76-2.63,4.64,4.64,0,0,1,.27-1.93c.28-.87.53-1.74.75-2.62A56.92,56.92,0,0,1,202,77.92c.27-.72.32-1.48.55-2.2s.46-1.56.69-2.33c.15-.48.19-.52.65-.34a3.56,3.56,0,0,0,2.59,0c.13,0,.32-.06.39-.16.43-.6,1.06-1,1.21-1.88a2.88,2.88,0,0,0-.68-2.84A3.44,3.44,0,0,0,205.38,67a2.3,2.3,0,0,1-.35-.1c-.15,0-.19-.12-.14-.26a16.28,16.28,0,0,0,.57-2.58,1.21,1.21,0,0,1,.35-.87,4.27,4.27,0,0,0,1-1.53c.14-.29,0-.75.26-.88a2.86,2.86,0,0,1,1,0h.22a3.14,3.14,0,0,0,2.87-4.23,3.43,3.43,0,0,0-2.67-2.36c-.24-.06-.48-.07-.72-.13s-.35-.15-.29-.35c.21-.72.22-1.46.39-2.18a.8.8,0,0,1,.4-.5,3.14,3.14,0,0,0,1.45-2.18,2.72,2.72,0,0,0-.55-2.54,1.31,1.31,0,0,1-.32-1.21,42.72,42.72,0,0,0,.75-4.48c0-.31.12-.38.47-.26.61.21,1.24.56,1.91.12a2.88,2.88,0,0,0,2.55-2.25,3.29,3.29,0,0,0-2.45-4.37,4.41,4.41,0,0,0-1.3-.16c-.21,0-.41,0-.33-.33a11.74,11.74,0,0,0,.4-2.69c0-.34.19-.36.43-.31s.18.08.28.11a3.22,3.22,0,0,0,4.3-2.48,2.92,2.92,0,0,0-.83-2.77A5.4,5.4,0,0,0,212,23.77c-.3-.05-.37-.14-.34-.41a53.56,53.56,0,0,0,.29-5.67c0-.4.09-.48.48-.41a2.65,2.65,0,0,0,1,.17,4,4,0,0,0,3.15-2.11,3.89,3.89,0,0,0-.39-3.43,3.49,3.49,0,0,0-1.44-.85c-.77-.28-1.52-.73-2.4-.36-.23.09-.32-.15-.26-.32a10.09,10.09,0,0,0,.17-1.08,7.38,7.38,0,0,0,.06-1.69c0-.22,0-.44,0-.66a1.77,1.77,0,0,0,0-.22V6.35a2.33,2.33,0,0,1,.69.08,2.65,2.65,0,0,0,2.92-.79,2.06,2.06,0,0,1,.45-.38,1.46,1.46,0,0,0,.61-.81A3.83,3.83,0,0,0,217,1.39,1.92,1.92,0,0,0,215.48.23c-.63-.08-1.27-.09-1.89-.2a1.06,1.06,0,0,0-.76.1,2.41,2.41,0,0,1-1.29.44c-.32,0-.52.27-.56.65-.06.61-.06.6-.63.42-.12,0-.25,0-.36-.06a17,17,0,0,0-2-.4,1.47,1.47,0,0,0-1.25.27A7.28,7.28,0,0,0,204.79,3a3.38,3.38,0,0,0-.29,1.74l0,0c0,.06,0,.11,0,.17a.54.54,0,0,0,.2.53,2.14,2.14,0,0,1,.49.63,3.28,3.28,0,0,0,.91.91,3.77,3.77,0,0,0,2.81.82c.16,0,.26,0,.24.23-.08,1.28-.13,2.55-.21,3.82a4.75,4.75,0,0,1-.29,2.13c-.24.44-.17.52-.64.29a1.88,1.88,0,0,0-1.43-.08,6.3,6.3,0,0,0-1.78,1.25.46.46,0,0,0-.17.32,2.3,2.3,0,0,1-.2.78,4,4,0,0,0-.12,1.6,4,4,0,0,0,1.23,2.11.1.1,0,0,0,.06.05c.87.32,1.69.92,2.72.54.24-.09.41,0,.37.36-.13,1.19-.22,2.39-.35,3.59q-.34,3.33-.72,6.67c0,.34,0,.8-.14,1s-.67,0-1-.11a1.77,1.77,0,0,0-1.46.3c-.39.3-.79.58-1.19.87a1.2,1.2,0,0,0-.43.49,5.76,5.76,0,0,0-.4,2.66c.11,1.42,1.81,2.6,2.87,2.88a3.88,3.88,0,0,0,.59,0c.17,0,.27.07.23.28-.12.62-.22,1.25-.33,1.88a18.3,18.3,0,0,0-.35,2.32.86.86,0,0,1-.61.91,4.48,4.48,0,0,0-1.48.92,3.68,3.68,0,0,0-.7,2,2.58,2.58,0,0,0,.63,2.25,5.37,5.37,0,0,0,.68.67c.29.21.51.4.24.77a.41.41,0,0,0,0,.22c-.18,1.51-.5,3-.79,4.5-.06.26,0,.59-.14.77s-.51,0-.78.06a4.5,4.5,0,0,1-.51.08c-.58,0-.83.58-1.29.8a1.51,1.51,0,0,0-.69.82c-.08.18-.14.37-.23.54a2.74,2.74,0,0,0-.24,1.9,3.49,3.49,0,0,0,2,2.51.51.51,0,0,1,.32.69c-.21.81-.4,1.63-.59,2.44-.3,1.21-.59,2.43-.88,3.64-.18.74-.36,1.48-.51,2.23s-.15.66-.77.52a2,2,0,0,0-1.36.06A3.15,3.15,0,0,0,196.51,75a3,3,0,0,0,.9,3.76,3.92,3.92,0,0,0,.65.32c.26.12.49.37.35.65a6.47,6.47,0,0,0-.42,1.55c-.34,1.28-.72,2.55-1.09,3.82,0,.12-.08.23,0,.34s.29,0,.33.17h-2.42a1,1,0,0,0-.57.12,3.51,3.51,0,0,0-1.87,2.9c0,.39,0,.78,0,1.18a2.63,2.63,0,0,0,.72,1.8,2.72,2.72,0,0,0,1,.76c.73.3.8.53.5,1.25a4.41,4.41,0,0,0-.24.54c-.3,1-.61,2.11-.93,3.16-.53,1.74-1,3.47-1.44,5.25-.2.88-.36,1.77-.58,2.65-.34,1.35-.63,2.71-1,4.06-.39,1.52-.77,3-1.15,4.55-.27,1-.7,2-.92,3.11s-.56,2.08-.86,3.11-.57,1.94-.77,2.93c-.1.53-.32,1-.37,1.57a.26.26,0,0,1-.11.17c-.12,0-.16-.07-.18-.18s0-.09,0-.14c-.12-1.5-.44-3-.7-4.43a43.78,43.78,0,0,0-1.12-4.79c-.44-1.55-.94-3.09-1.36-4.65-.24-.9-.55-1.78-.84-2.66-.39-1.16-.65-2.37-1-3.53-.22-.65-.37-1.32-.53-2a9.06,9.06,0,0,0-.71-2.23,12.39,12.39,0,0,1-.79-1.89c-.29-.88-.51-1.79-.87-2.64-.44-1-.86-2.08-1.21-3.15-.14-.42-.31-.82-.45-1.24s-.21-.49.29-.52c.1,0,.2,0,.3,0a3.15,3.15,0,0,0,1.38-.42,3.89,3.89,0,0,0,1-1.21,3,3,0,0,0-.85-3.9,4.15,4.15,0,0,0-1.64-.85,2.32,2.32,0,0,0-1.91.16,2.53,2.53,0,0,1-.51.28c-.22.08-.41,0-.46-.22a13,13,0,0,0-.44-1.24c-.62-2.14-1.21-4.3-1.81-6.45-.06-.21,0-.43.23-.44.77,0,1.18-.71,1.8-1a2,2,0,0,0,.82-1.43,3.36,3.36,0,0,0-1.67-3.81,6.33,6.33,0,0,0-2.13-.44c-.58-.12-.59-.07-.76-.67a2.37,2.37,0,0,1-.09-.36c-.23-1.2-.47-2.4-.67-3.62a4.68,4.68,0,0,1-.19-1.89,5.58,5.58,0,0,0,.23-2.26c0-.21.06-.32.28-.33a3.26,3.26,0,0,0,2.92-2.42,2.92,2.92,0,0,0-.34-2.47,3.71,3.71,0,0,0-1.4-1.25,4.42,4.42,0,0,0-2.4-.55c-.48,0-.46,0-.5-.51a19.12,19.12,0,0,0-.26-2.71c-.08-.31.17-.32.36-.23a3.13,3.13,0,0,0,2.07,0,3.28,3.28,0,0,0,2.24-2.62,3.57,3.57,0,0,0-.24-1.79,2.72,2.72,0,0,0-1.38-1.43c-.19-.1-.44-.12-.6-.27a1.39,1.39,0,0,0-1-.33c-.32,0-.64,0-1,0s-.47,0-.35-.47a22.75,22.75,0,0,0,.2-3.59c0-.16-.24-.34,0-.45s.32.08.47.16.17.17.28.23a3.41,3.41,0,0,0,2.62.62,3.17,3.17,0,0,0,2.19-1.5,4,4,0,0,0,.62-2.36,4.45,4.45,0,0,1,.08-1.09,1.93,1.93,0,0,0-.37-1.67,2.64,2.64,0,0,0-2.45-.58,1.49,1.49,0,0,1-.63.18c-.3,0-.34,0-.22-.32a3.25,3.25,0,0,0-1.12-4.74,5.87,5.87,0,0,0-1.46-.45,2,2,0,0,0-2.08.44c-.28.29-.65.48-.87.86a3.6,3.6,0,0,0-.32,3.05c.09.29,0,.37-.25.47a3.29,3.29,0,0,0-1.17.55,4.37,4.37,0,0,0-1.33,2.33A3.74,3.74,0,0,0,164,39.85a7.06,7.06,0,0,0,1,.35c.12,0,.26.12.19.33a5.65,5.65,0,0,0-.12,2c0,.22-.07.25-.24.23a1.06,1.06,0,0,1-.35-.09,2.51,2.51,0,0,0-2.49.36,2.55,2.55,0,0,0-1,1,3.81,3.81,0,0,0-.14,3.33,2.93,2.93,0,0,0,1.25,1.48,3.49,3.49,0,0,0,1.88.62c.26,0,.56-.17.79,0s0,.55.06.83c.11,1.35.14,2.7.23,4,.08,1.13.19,2.25.36,3.37.06.39.05.54-.35.7a3.44,3.44,0,0,0-1.81,2,3.88,3.88,0,0,0,0,2.24,1.2,1.2,0,0,0,.46.81A4.78,4.78,0,0,0,166,64.87a.5.5,0,0,1,.44.58,10.45,10.45,0,0,0,0,1.77c0,.34,0,.48-.34.59a3.78,3.78,0,0,0-2,5.13,4.67,4.67,0,0,0,1.27,1.42,2.15,2.15,0,0,0,1.41.52c.32,0,.64,0,1,0s.4.06.41.36a2.72,2.72,0,0,0,.24,1.22c.17.32,0,.42-.27.44s-.63,0-.95,0-.73.13-.8.59a.58.58,0,0,1-.23.37,2.25,2.25,0,0,0-.83,1.87,3.66,3.66,0,0,0,.42,2.06c.22.35.78.46.73,1,0,0,.12.08.19.11a3.73,3.73,0,0,0,1.47.39,5.56,5.56,0,0,0,1.51-.26c.4-.12.48,0,.61.36.18.59.37,1.17.57,1.75.46,1.32,1,2.63,1.37,4s.9,2.89,1.5,4.28c.06.14.06.28-.06.3-.57.07-.71.61-1.06.92-1.24,1.07-.83,3.9.71,4.47a.62.62,0,0,1,.25.14,1.91,1.91,0,0,0,1.5.47c.22,0,.44,0,.66,0a.36.36,0,0,1,.4.33,11.27,11.27,0,0,0,.54,1.47,18.62,18.62,0,0,1,.89,2.64,10.62,10.62,0,0,0,.49,2,32.76,32.76,0,0,1,1,3.16,14.35,14.35,0,0,1,.49,1.39c.19.86.42,1.72.66,2.56.44,1.61,1,3.18,1.42,4.8.28,1.08.5,2.18.68,3.29a23,23,0,0,0,.43,2.46,8.58,8.58,0,0,1,.33,2.17c0,1.35.09,2.7.18,4,.06.9.06,1.81.19,2.71.17,1.29.31,2.58.47,3.87a5.81,5.81,0,0,1,0,.59,17.76,17.76,0,0,1-.27,2.63c-.16,1.15-.3,2.29-.43,3.44-.11.95-.22,1.9-.34,2.85-.17,1.24-.21,2.49-.31,3.74-.19,2.2-.4,4.4-.58,6.6-.08.9-.12,1.81-.19,2.71-.15,2-.33,3.92-.36,5.89,0,1.62,0,3.23-.08,4.85-.06,2.9-.21,5.79-.13,8.7.05,1.91.21,3.82.41,5.73,0,.09.07.21-.06.23s-.15-.1-.18-.2c-.27-.93-.54-1.87-.83-2.8-.67-2.08-1.52-4.08-2.29-6.12s-1.53-4-2.43-5.92c-.64-1.37-1.15-2.8-1.84-4.15-.49-1-.91-2-1.41-2.91-.71-1.37-1.47-2.71-2.2-4.07-.53-1-1-2-1.56-2.91-.14-.21-.38-.43-.36-.62s.36-.34.57-.49a3.11,3.11,0,0,0,1.32-2.72,2.72,2.72,0,0,0-.54-1.5,2.6,2.6,0,0,0-1.45-1.25,3.48,3.48,0,0,0-2.23,0c-.58.22-.66.18-1-.38a11.65,11.65,0,0,0-1-1.63,10,10,0,0,1-1.47-2.33,2.94,2.94,0,0,0-.63-.81,3.44,3.44,0,0,1-.89-1,3.28,3.28,0,0,0-.76-1c-.25-.23-.24-.42.1-.48a3.32,3.32,0,0,0,1-.56,3,3,0,0,0,.86-4.1,3.29,3.29,0,0,0-1.78-1.44,3,3,0,0,0-3.29.49,3.78,3.78,0,0,0-.85,1.34c-.12.3-.29.38-.54.24a4,4,0,0,1-.41-.31,15,15,0,0,1-2.38-2.47,6.33,6.33,0,0,0-1.2-1.17,14.13,14.13,0,0,1-1.58-1.61,1.49,1.49,0,0,1-.32-.89c0-.15,0-.23.17-.24h.51a3,3,0,0,0,2.62-1.45,3,3,0,0,0-1-4.31,4,4,0,0,0-1.81-.78c-.14,0-.21-.09-.2-.24.11-1.45.21-2.89.3-4.34,0-.28.15-.38.41-.4a4.74,4.74,0,0,0,1.5-.27,2.55,2.55,0,0,0,1.59-1.63,2.89,2.89,0,0,0-.14-2.68,3.39,3.39,0,0,0-2.14-1.52c-.68-.16-.78-.29-.76-1a2.17,2.17,0,0,0,0-.36c-.06-.34.09-.43.41-.41s.61.22.94.14c2-.43,3.11-1.47,3.05-3.66a2.93,2.93,0,0,0-1-2.2,3.66,3.66,0,0,0-2.16-1c-.24,0-.3-.14-.22-.35a6.63,6.63,0,0,0,.32-2.25c0-.91.21-1.81.16-2.72,0-.25.09-.39.36-.3a7.5,7.5,0,0,0,1,.14,3.08,3.08,0,0,0,2.94-1.1,3.47,3.47,0,0,0,.84-1.69,3.17,3.17,0,0,0-.64-2.63,7.79,7.79,0,0,0-1.49-1.19.83.83,0,0,0-.48-.15,15.7,15.7,0,0,0-1.68,0c-.06,0-.15,0-.16-.07a.17.17,0,0,1,.08-.11,3.41,3.41,0,0,0,1.36-2.85c0-.2,0-.39,0-.59a2.46,2.46,0,0,0-.53-1.57,3.62,3.62,0,0,0-2.61-1.56,2.43,2.43,0,0,0-2.53.94,1.78,1.78,0,0,1-.37.45,1.91,1.91,0,0,0-.62,1.29,3.82,3.82,0,0,0,0,2A3.59,3.59,0,0,0,150,92.35c.25.08.4.22.28.55a6.46,6.46,0,0,0-.4,1.41c-.28,2.44-.52,4.88-.79,7.32,0,.26,0,.59-.18.76s-.4-.13-.63-.1a2.28,2.28,0,0,1-.44-.05,2.85,2.85,0,0,0-2.7.94l-.36.46a3,3,0,0,0-.63,2.94,2.82,2.82,0,0,1,.15.57c.09.84.93,1.38,1.71,1.71a14.55,14.55,0,0,0,1.73.56c.17,0,.25.1.21.29a31.46,31.46,0,0,0-.28,5.13c0,.29-.1.42-.36.44a4.51,4.51,0,0,1-.52,0,2.91,2.91,0,0,0-2.67,1.95,3.09,3.09,0,0,0,.08,2.52,1.28,1.28,0,0,0,.23.37,5.56,5.56,0,0,0,2.13,1.38l.42.12c.13.06.23.12.2.32a23.92,23.92,0,0,0-.25,3.38c0,1.08-.09,2.15-.1,3.23,0,.36-.15.34-.39.32a.9.9,0,0,1-.27-.11c-1.51-.7-2.79-1.77-4.24-2.57-.72-.4-1.37-.94-2.12-1.3a.37.37,0,0,1-.21-.49,2.74,2.74,0,0,1,.17-.48,2.94,2.94,0,0,0,.09-2.29,2.5,2.5,0,0,0-.87-1.42,7,7,0,0,0-2.13-.92,1.22,1.22,0,0,0-.73,0,3.69,3.69,0,0,0-2,1.09c-.18.25-.39.23-.64.07a8.44,8.44,0,0,0-2-.94c-.11,0-.19-.14-.3-.19-.34-.15-.24-.31,0-.47a.81.81,0,0,0,.18-.12c1-1.21,1.6-2,.92-3.64a3.45,3.45,0,0,0-5.36-1.48.39.39,0,0,1-.53.06,3.35,3.35,0,0,0-.47-.21,3,3,0,0,0-2.88.14,3.57,3.57,0,0,0-.95,1,3.41,3.41,0,0,0,1.3,5c.32.18.24.28.06.47a2.4,2.4,0,0,0-.76,1.14,4.53,4.53,0,0,0,.29,3,3.46,3.46,0,0,0,4.58,1.36,2.88,2.88,0,0,0,1.27-1.29,4.54,4.54,0,0,0,.37-2c0-.26.05-.28.3-.19.65.23,1.13.74,1.75,1,.21.09.11.29,0,.45a2.62,2.62,0,0,0-.37,1,3.35,3.35,0,0,0,2.28,3.61,1.86,1.86,0,0,0,.57.11,3.12,3.12,0,0,0,2.52-1.11c.53-.54.5-.53,1.15-.08a23.13,23.13,0,0,0,2.2,1.58,4.42,4.42,0,0,1,1.2.69,4.85,4.85,0,0,0,1.54,1c1.33.58,2.52,1.39,3.8,2.06a.73.73,0,0,1,.45.76c0,.15,0,.3,0,.44a45.29,45.29,0,0,0,.13,7c0,.36-.1.46-.44.51a2.63,2.63,0,0,0-1.51.46,3.46,3.46,0,0,0-1.4,2.48,3.06,3.06,0,0,0,1.75,3.15,2.91,2.91,0,0,0,1.76.31c.26,0,.44,0,.43.34a21.65,21.65,0,0,0,.35,4.25.27.27,0,0,1-.15.35,3.48,3.48,0,0,0-.67,5.88,3.1,3.1,0,0,0,2,.68c.28,0,.57.05.47.46a.34.34,0,0,0,0,.22c.43,1.17.67,2.4,1,3.6.52,1.73,1.19,3.42,1.75,5.15.38,1.16.88,2.28,1.33,3.42a5.82,5.82,0,0,0,.83,1.87c.21.24,0,.29-.16.29a1.46,1.46,0,0,0-1,.3c-1.13,1-2,2.2-1.45,4a3,3,0,0,0,.87,1.51,3.58,3.58,0,0,0,3.77.59c.51-.21.72-.13.87.38.44,1.46,1.1,2.84,1.6,4.27a6.65,6.65,0,0,0,.73,1.52c.63,1,1.23,1.94,1.82,2.92.2.34.13.43-.14.61a2.55,2.55,0,0,0-1,.93,4.3,4.3,0,0,0-.45,1.84,3.09,3.09,0,0,0,1.19,2.84c.3.21.61.4.92.59a2.3,2.3,0,0,0,1.4.34,2.87,2.87,0,0,0,.92-.21c.54-.22.62-.15.91.35a12.12,12.12,0,0,0,1.2,2.1.81.81,0,0,1-.06,1.06,2.63,2.63,0,0,0-.7,1.35,3.51,3.51,0,0,0,.83,2.51,2,2,0,0,0,1.69.82,2.37,2.37,0,0,0,1.14-.24.34.34,0,0,1,.53.19,18.84,18.84,0,0,0,1.47,2.28c.54.9,1.2,1.73,1.71,2.65.73,1.34,1.62,2.56,2.44,3.83.59.91,1.14,1.84,1.74,2.74.86,1.3,1.61,2.68,2.43,4,.57.91,1.23,1.77,1.76,2.71s1,2,1.63,2.95a12.17,12.17,0,0,1,1.08,2,27.89,27.89,0,0,0,1.39,2.92c.93,1.75,1.84,3.52,2.67,5.33.18.38.41.74.57,1.14a29.79,29.79,0,0,0,1.58,4.09,13.23,13.23,0,0,1,.91,3.09c.32,1.08.52,2.19.82,3.28.25.93.64,1.8.92,2.71.38,1.28.8,2.53,1.22,3.79s1,2.84,1.54,4.5c.37,1,.73,2,1.17,3a27.69,27.69,0,0,1,1.1,3c3.23,7.91,8.17,17.38,16.38,25.35a19.33,19.33,0,0,0,2.29,1.69,12.23,12.23,0,0,1,2.21,1.65,2.82,2.82,0,0,0,.36.24c.61.44,1.31.73,1.91,1.21a5.07,5.07,0,0,0,2.27,1.13,5.45,5.45,0,0,1,1.63.62,2.71,2.71,0,0,0,1.5.24,1.27,1.27,0,0,0,1.07-1.65,1.74,1.74,0,0,0-1.11-1,4.92,4.92,0,0,1-1.13-.66,6.25,6.25,0,0,0-1.14-.81,9,9,0,0,1-2.57-1.64l-1-.91a11.4,11.4,0,0,1-2.18-2,.94.94,0,0,0-.29-.33,25.12,25.12,0,0,1-2.54-2.29,1.83,1.83,0,0,1-.51-.53,12,12,0,0,0-1.92-2.29c-.69-.83-1.32-1.7-2-2.57s-1.28-1.76-1.91-2.64a26.89,26.89,0,0,1-1.82-2.84,28.33,28.33,0,0,1-1.42-2.66c-.39-.95-1.2-1.66-1.45-2.67a.15.15,0,0,0-.1-.09c-.32-.12-.38-.43-.53-.68a20.87,20.87,0,0,0-1.11-1.81,3,3,0,0,1-.56-1.19,6.8,6.8,0,0,0-.64-2,1.91,1.91,0,0,1-.1-.58,6.25,6.25,0,0,0-.72-2.45,2.8,2.8,0,0,1-.34-1,12.54,12.54,0,0,0-.48-1.92,12.38,12.38,0,0,1-.64-2.93,44.6,44.6,0,0,1-.34-5.29c0-1.7,0-3.4.05-5.09.13-2.35.39-4.7.72-7,.15-1,.19-2,.42-3.06.41-1.74.86-3.47,1.12-5.24.15-1,.38-2.08.54-3.12.45-3,1.12-5.88,1.78-8.8.14-.59.31-1.18.45-1.78a24.91,24.91,0,0,1,.87-3.18c.3-.83.64-1.64.89-2.49.36-1.18.78-2.33,1.2-3.49a13.29,13.29,0,0,0,.59-1.34c.17-.66.36-1.32.56-2a18.53,18.53,0,0,1,.69-1.85c.18-.41.46-.8.62-1.23a11.4,11.4,0,0,1,1-2.05c.57-.92.82-2,1.34-2.93.37-.67.66-1.42,1-2.13a30.26,30.26,0,0,1,1.72-3.23,44.05,44.05,0,0,1,2.62-4,14.89,14.89,0,0,1,1-1.34,15.84,15.84,0,0,1,2.46-2.38.57.57,0,0,0,.16-.15,11,11,0,0,1,2.46-2.26,31.55,31.55,0,0,1,3.16-2.35,8.8,8.8,0,0,1,1.67-1.17c.24-.09.42-.47.68-.31s0,.46,0,.7a3.57,3.57,0,0,0,1,2.59,8.56,8.56,0,0,0,1.32.74,2.15,2.15,0,0,0,1.39.27c.28,0,.48-.23.74-.3,1.79-.48,2.44-2.88,1.72-4.44a3.19,3.19,0,0,0-1.49-1.54c-.08,0-.19-.13-.2-.2s.17-.12.25-.19a13.21,13.21,0,0,1,2-1.09c.74-.45,1.52-.88,2.29-1.3a6.39,6.39,0,0,0,1.84-1.17.42.42,0,0,1,.65,0,2.35,2.35,0,0,0,1.44.66,3,3,0,0,0,2.27-.41,2.89,2.89,0,0,0,1-3.34,2.84,2.84,0,0,0-.7-1.18c-.1-.1-.25-.23-.14-.38a9.78,9.78,0,0,1,1.15-1.42c.12-.12.3-.14.35.05.1.39.43.58.64.87a3.26,3.26,0,0,0,5-.22,3.76,3.76,0,0,0,.18-4c-.31-.49-.31-.56.21-.82a2,2,0,0,0,1.07-1.32c.07-.29.18-.57.22-.86a2.66,2.66,0,0,0-.42-2.36,2.8,2.8,0,0,1-.31-.5.38.38,0,0,1,0-.41c.23-.46.42-1,.68-1.38s.38-.57.87-.19a4,4,0,0,0,.64.35c1.31.66,2.23.79,3.38-.34a.94.94,0,0,1,.12-.09,3,3,0,0,0,.93-3.13,3.15,3.15,0,0,0-2.09-2.46c-.24-.09-.33-.14-.18-.39a2,2,0,0,0,.13-.34c.16-.47.16-.45.66-.35a4.85,4.85,0,0,0,1.74.17A3.34,3.34,0,0,0,261.45,142Zm-75,83.15a.23.23,0,0,1-.18-.09c-.25-.45-.49-.91-.73-1.36-.52-.94-1-1.9-1.56-2.83a27.37,27.37,0,0,0-1.52-2.33c-.38-.51-.59-1.12-1-1.63s-.55-1-.93-1.47a3.19,3.19,0,0,1-.66-1.14,1.8,1.8,0,0,0-.3-.5,7.59,7.59,0,0,1-.73-1.19,20.06,20.06,0,0,0-1.3-2.12c-.63-.93-1.19-1.9-1.75-2.87a1.88,1.88,0,0,0-.27-.36,30.06,30.06,0,0,1-2.78-4c-.6-.95-1.13-1.94-1.76-2.87-.39-.56-.76-1.13-1.2-1.66a19.33,19.33,0,0,1-1.32-2c-.74-1.19-1.25-2.49-2-3.67a.53.53,0,0,1-.08-.27,3.71,3.71,0,0,0-1-2.38c-.28-.4-.31-.42.08-.67s.42-.48.74-.59c0,0,.1,0,.11-.09.25-1,.91-1.86.6-2.95a3.27,3.27,0,0,0-.27-.76,1.27,1.27,0,0,1-.27-.8c0-.3-.22-.42-.43-.55a3.2,3.2,0,0,0-2.18-.56,3.26,3.26,0,0,0-1.71.26c-.18.12-.34,0-.41-.23a13.76,13.76,0,0,0-1-2.76c-.13-.26-.12-.36.11-.53a3.09,3.09,0,0,0,.79-4.2,3.62,3.62,0,0,0-3-1.75c-.6-.05-.64,0-.74-.63a9.83,9.83,0,0,0-.69-1.69c-.28-.78-.63-1.54-.95-2.3,0-.05-.05-.09-.07-.13s-.44-.16-.34-.4.35-.09.54-.13a3.54,3.54,0,0,0,2.17-1.49,2.52,2.52,0,0,0,.44-1,3.18,3.18,0,0,0-.93-3.2,4.1,4.1,0,0,0-1.84-1,5,5,0,0,0-2,.13c-.59.13-.6.15-.76-.43-.43-1.56-.84-3.12-1.28-4.68a5.86,5.86,0,0,1,0-1.51c0-.28.26-.41.51-.46a2.51,2.51,0,0,0,1.72-1.83,2.94,2.94,0,0,0,0-2.29,2.34,2.34,0,0,0-.91-1.12c-.63-.38-1.19-1-2-.89h-.07c-.73-.12-.71-.12-.77-.85-.13-1.84-.28-3.68-.45-5.51s-.2-3.73-.28-5.59c0-.34,0-.69,0-1a.26.26,0,0,1,.09-.18c.08-.06.14,0,.19.07a29.87,29.87,0,0,1,2.32,2.32,11.38,11.38,0,0,0,1.8,1.59,12.88,12.88,0,0,1,3.16,3.09c.2.31.21.45,0,.67a3,3,0,0,0-.91,1.87,3.18,3.18,0,0,0,1.73,3.28,4.8,4.8,0,0,0,2.87.27c.58-.07.61-.12.83.41a4.93,4.93,0,0,0,.4.61A71.56,71.56,0,0,1,166,156.5a2,2,0,0,0,.21.3c.24.35.24.44-.14.57a1,1,0,0,0-.54.46c-.29.4-.55.81-.82,1.22a.5.5,0,0,0-.08.2c-.19,1.16.31,2.91,1.39,3.31a.58.58,0,0,1,.35.26c0,.09.08.21.19.2.55,0,1.12.17,1.65-.14a.91.91,0,0,1,.26-.13c.52-.14.38-.24.63.25.43.88.93,1.72,1.36,2.6,1.26,2.52,2.34,5.13,3.42,7.73.81,1.94,1.52,3.92,2.34,5.86a54.65,54.65,0,0,1,2.15,6.48c.41,1.44.88,2.86,1.28,4.3s.84,3.08,1.14,4.65.62,3,1,4.52c.13.5.2,1,.3,1.52.7,3.74,1.53,7.46,2,11.23q.57,4.13,1.37,8.21c.31,1.56.57,3.14,1,4.68a.39.39,0,0,1,0,.15C186.52,225,186.55,225.09,186.47,225.11Z"/><path class="cls-2" d="M27.58,226.27.14,155.87A2,2,0,0,1,2,153.14H29.25a2,2,0,0,1,1.89,1.35L45.57,196.4a2,2,0,0,0,3.8-.07l12.68-41.77A2,2,0,0,1,64,153.14H93a2,2,0,0,1,1.91,1.41l12.83,41a2,2,0,0,0,3.8,0l14-41.14a2,2,0,0,1,1.9-1.36h24.74a2,2,0,0,1,1.86,2.73l-27.44,70.4a2,2,0,0,1-1.86,1.28H94.63a2,2,0,0,1-1.9-1.38L79.61,186.4a2,2,0,0,0-3.8,0L63.12,226.16a2,2,0,0,1-1.9,1.39H29.44A2,2,0,0,1,27.58,226.27Z"/><path class="cls-2" d="M184.88,227.55h-24.3a2,2,0,0,1-2-2V155.14a2,2,0,0,1,2-2h24.3a2,2,0,0,1,2,2v70.41A2,2,0,0,1,184.88,227.55Z"/><path class="cls-2" d="M228.86,153.71l39.22,38.41a2,2,0,0,0,3.4-1.43V155.14a2,2,0,0,1,2-2h24.2a2,2,0,0,1,2,2v70.41a2,2,0,0,1-2,2H272.09a2,2,0,0,1-1.39-.56l-42.63-41.26a2,2,0,0,0-3.39,1.43v38.39a2,2,0,0,1-2,2H198.47a2,2,0,0,1-2-2V155.14a2,2,0,0,1,2-2h29A2,2,0,0,1,228.86,153.71Z"/><path class="cls-2" d="M391.58,155.14v14.2a2,2,0,0,1-2,2H339.27a2,2,0,0,0-2,2v5.3a2,2,0,0,0,2,2h49.21a2,2,0,0,1,2,2v14.11a2,2,0,0,1-2,2H339.27a2,2,0,0,0-2,2V207a2,2,0,0,0,2,2h51.11a2,2,0,0,1,2,2v14.6a2,2,0,0,1-2,2H311.27a2,2,0,0,1-2-2V155.14a2,2,0,0,1,2-2h78.31A2,2,0,0,1,391.58,155.14Z"/></svg>